<svg width="40" height="19" viewBox="0 0 40 19" fill="none" xmlns="http://www.w3.org/2000/svg">
<path d="M8.13281 8.44934H12.3633V11.5079H8.13281V16.2892H4.91016V11.5079H0.667969V8.44934H4.91016V3.86731H8.13281V8.44934ZM22.4883 18.0001H19.1016V4.94543L15.0586 6.19934V3.44543L22.125 0.914185H22.4883V18.0001ZM39.1641 5.47278C39.1641 6.3009 38.957 7.03528 38.543 7.6759C38.1289 8.31653 37.5586 8.82825 36.832 9.21106C37.6602 9.6095 38.3164 10.1603 38.8008 10.8634C39.2852 11.5587 39.5273 12.379 39.5273 13.3243C39.5273 14.84 39.0117 16.0392 37.9805 16.922C36.9492 17.797 35.5469 18.2345 33.7734 18.2345C32 18.2345 30.5938 17.7931 29.5547 16.9103C28.5156 16.0275 27.9961 14.8322 27.9961 13.3243C27.9961 12.379 28.2383 11.5548 28.7227 10.8517C29.207 10.1486 29.8594 9.60168 30.6797 9.21106C29.9531 8.82825 29.3828 8.31653 28.9688 7.6759C28.5625 7.03528 28.3594 6.3009 28.3594 5.47278C28.3594 4.01965 28.8438 2.8634 29.8125 2.00403C30.7812 1.13684 32.0977 0.703247 33.7617 0.703247C35.418 0.703247 36.7305 1.13293 37.6992 1.99231C38.6758 2.84387 39.1641 4.00403 39.1641 5.47278ZM36.1289 13.0782C36.1289 12.3361 35.9141 11.7423 35.4844 11.297C35.0547 10.8517 34.4766 10.629 33.75 10.629C33.0312 10.629 32.457 10.8517 32.0273 11.297C31.5977 11.7345 31.3828 12.3282 31.3828 13.0782C31.3828 13.8048 31.5938 14.3907 32.0156 14.8361C32.4375 15.2814 33.0234 15.504 33.7734 15.504C34.5078 15.504 35.082 15.2892 35.4961 14.8595C35.918 14.4298 36.1289 13.8361 36.1289 13.0782ZM35.7773 5.63684C35.7773 4.97278 35.6016 4.44153 35.25 4.04309C34.8984 3.63684 34.4023 3.43372 33.7617 3.43372C33.1289 3.43372 32.6367 3.62903 32.2852 4.01965C31.9336 4.41028 31.7578 4.94934 31.7578 5.63684C31.7578 6.31653 31.9336 6.8634 32.2852 7.27747C32.6367 7.69153 33.1328 7.89856 33.7734 7.89856C34.4141 7.89856 34.9062 7.69153 35.25 7.27747C35.6016 6.8634 35.7773 6.31653 35.7773 5.63684Z" fill="#944DFF"/>
</svg>
