<svg width="323" height="309" viewBox="0 0 323 309" fill="none" xmlns="http://www.w3.org/2000/svg">
<circle opacity="0.2" cx="161.5" cy="154.5" r="154.5" fill="url(#paint0_radial_98_839)"/>
<circle opacity="0.25" cx="129.073" cy="43.9414" r="5.49303" fill="url(#paint1_radial_98_839)"/>
<path d="M129.051 41.3556C129.051 41.3332 129.094 41.3351 129.094 41.3556C129.094 42.1617 129.42 43.3485 130.2 43.774C130.237 43.7938 130.24 43.8446 130.2 43.8636C129.355 44.2667 129.208 45.3415 129.094 46.2372C129.092 46.2582 129.055 46.2617 129.051 46.2372C128.921 45.3863 128.726 44.2667 127.945 43.8636C127.909 43.8448 127.904 43.8008 127.945 43.774C128.639 43.3261 128.997 42.1841 129.051 41.3556Z" fill="#C7C7CC"/>
<circle opacity="0.25" cx="56.1657" cy="81.3937" r="9.48797" fill="url(#paint2_radial_98_839)"/>
<path d="M56.1284 76.9273C56.1284 76.8886 56.2033 76.892 56.2033 76.9273C56.2033 78.3198 56.7651 80.3697 58.1135 81.1046C58.1763 81.1389 58.1824 81.2265 58.1135 81.2593C56.6528 81.9556 56.4004 83.8122 56.2033 85.3593C56.1987 85.3956 56.1349 85.4015 56.1284 85.3593C55.9037 83.8895 55.5667 81.9556 54.2184 81.2593C54.1558 81.227 54.1467 81.1509 54.2184 81.1046C55.4168 80.3311 56.0356 78.3584 56.1284 76.9273Z" fill="#C7C7CC"/>
<circle opacity="0.25" cx="286.031" cy="244.344" r="8.14691" fill="url(#paint3_radial_98_839)"/>
<path d="M286 240.509C286 240.476 286.064 240.479 286.064 240.509C286.064 241.705 286.546 243.465 287.704 244.096C287.758 244.125 287.763 244.201 287.704 244.229C286.45 244.827 286.233 246.421 286.064 247.749C286.06 247.78 286.005 247.785 286 247.749C285.807 246.487 285.517 244.827 284.36 244.229C284.306 244.201 284.298 244.136 284.36 244.096C285.389 243.432 285.92 241.738 286 240.509Z" fill="#C7C7CC"/>
<circle opacity="0.25" cx="227.448" cy="270.154" r="11.4854" fill="url(#paint4_radial_98_839)"/>
<path d="M227.404 264.748C227.404 264.701 227.495 264.705 227.495 264.748C227.495 266.433 228.175 268.915 229.807 269.804C229.883 269.846 229.89 269.952 229.807 269.992C228.039 270.834 227.733 273.082 227.495 274.955C227.489 274.999 227.412 275.006 227.404 274.955C227.132 273.176 226.724 270.834 225.092 269.992C225.016 269.952 225.005 269.86 225.092 269.804C226.543 268.868 227.292 266.48 227.404 264.748Z" fill="#C7C7CC"/>
<circle opacity="0.25" cx="245.083" cy="216.879" r="6.14945" fill="url(#paint5_radial_98_839)"/>
<path d="M245.06 213.985C245.06 213.959 245.108 213.962 245.108 213.985C245.108 214.887 245.472 216.216 246.346 216.692C246.387 216.714 246.391 216.771 246.346 216.792C245.4 217.244 245.236 218.447 245.108 219.45C245.105 219.473 245.064 219.477 245.06 219.45C244.914 218.497 244.696 217.244 243.822 216.792C243.781 216.771 243.775 216.722 243.822 216.692C244.598 216.191 245 214.912 245.06 213.985Z" fill="#C7C7CC"/>
<circle opacity="0.25" cx="299.107" cy="194.315" r="4.74399" fill="url(#paint6_radial_98_839)"/>
<path d="M299.089 192.082C299.089 192.062 299.127 192.064 299.127 192.082C299.127 192.778 299.407 193.803 300.082 194.17C300.113 194.188 300.116 194.231 300.082 194.248C299.351 194.596 299.225 195.524 299.127 196.298C299.124 196.316 299.092 196.319 299.089 196.298C298.977 195.563 298.808 194.596 298.134 194.248C298.103 194.232 298.098 194.194 298.134 194.17C298.733 193.784 299.043 192.797 299.089 192.082Z" fill="#C7C7CC"/>
<circle opacity="0.25" cx="41.3422" cy="155.956" r="8.14691" fill="url(#paint7_radial_98_839)"/>
<path d="M41.3103 152.121C41.3103 152.088 41.3746 152.091 41.3746 152.121C41.3746 153.317 41.857 155.077 43.0148 155.708C43.0687 155.737 43.0739 155.813 43.0148 155.841C41.7606 156.439 41.5439 158.033 41.3746 159.361C41.3707 159.392 41.3158 159.398 41.3103 159.361C41.1173 158.099 40.828 156.439 39.6703 155.841C39.6165 155.813 39.6087 155.748 39.6703 155.708C40.6993 155.044 41.2306 153.35 41.3103 152.121Z" fill="#C7C7CC"/>
<circle opacity="0.25" cx="99.3606" cy="41.1948" r="8.23955" fill="url(#paint8_radial_98_839)"/>
<path d="M99.3285 37.316C99.3285 37.2824 99.3935 37.2853 99.3935 37.316C99.3935 38.5252 99.8814 40.3055 101.052 40.9437C101.107 40.9734 101.112 41.0495 101.052 41.078C99.7839 41.6826 99.5647 43.2949 99.3935 44.6385C99.3895 44.67 99.3341 44.6752 99.3285 44.6385C99.1333 43.3621 98.8407 41.6826 97.6698 41.078C97.6154 41.0499 97.6075 40.9839 97.6698 40.9437C98.7105 40.2719 99.2479 38.5588 99.3285 37.316Z" fill="#C7C7CC"/>
<circle opacity="0.25" cx="120.085" cy="79.8957" r="5.49303" fill="url(#paint9_radial_98_839)"/>
<path d="M120.063 77.3099C120.063 77.2875 120.106 77.2894 120.106 77.3099C120.106 78.1161 120.431 79.3029 121.212 79.7284C121.248 79.7482 121.252 79.7989 121.212 79.8179C120.366 80.221 120.22 81.2959 120.106 82.1916C120.103 82.2126 120.066 82.216 120.063 82.1916C119.933 81.3407 119.738 80.221 118.957 79.8179C118.921 79.7992 118.915 79.7552 118.957 79.7284C119.651 79.2805 120.009 78.1384 120.063 77.3099Z" fill="#C7C7CC"/>
<circle opacity="0.25" cx="201.046" cy="56.1755" r="6.74145" fill="url(#paint10_radial_98_839)"/>
<path d="M201.02 53.002C201.02 52.9746 201.073 52.9769 201.073 53.002C201.073 53.9914 201.472 55.448 202.43 55.9701C202.475 55.9945 202.479 56.0567 202.43 56.0801C201.393 56.5747 201.213 57.8939 201.073 58.9932C201.07 59.0189 201.024 59.0232 201.02 58.9932C200.86 57.9489 200.621 56.5747 199.663 56.0801C199.618 56.0571 199.612 56.003 199.663 55.9701C200.514 55.4205 200.954 54.0189 201.02 53.002Z" fill="#C7C7CC"/>
<circle opacity="0.25" cx="95.2729" cy="239.85" r="8.14691" fill="url(#paint11_radial_98_839)"/>
<path d="M95.2429 236.015C95.2429 235.982 95.3072 235.984 95.3072 236.015C95.3072 237.21 95.7896 238.971 96.9474 239.602C97.0014 239.631 97.0066 239.706 96.9474 239.735C95.6932 240.332 95.4765 241.927 95.3072 243.255C95.3033 243.286 95.2485 243.291 95.2429 243.255C95.05 241.993 94.7606 240.332 93.6029 239.735C93.5491 239.707 93.5413 239.641 93.6029 239.602C94.6319 238.937 95.1632 237.244 95.2429 236.015Z" fill="#C7C7CC"/>
<circle opacity="0.25" cx="97.77" cy="195.406" r="8.14691" fill="url(#paint12_radial_98_839)"/>
<path d="M97.738 191.571C97.738 191.538 97.8024 191.541 97.8024 191.571C97.8024 192.767 98.2847 194.527 99.4425 195.158C99.4965 195.188 99.5017 195.263 99.4425 195.291C98.1883 195.889 97.9716 197.483 97.8024 198.812C97.7984 198.843 97.7436 198.848 97.738 198.812C97.5451 197.549 97.2557 195.889 96.098 195.291C96.0442 195.263 96.0364 195.198 96.098 195.158C97.127 194.494 97.6583 192.8 97.738 191.571Z" fill="#C7C7CC"/>
<circle opacity="0.25" cx="251.576" cy="120.501" r="8.14691" fill="url(#paint13_radial_98_839)"/>
<path d="M251.543 116.666C251.543 116.633 251.608 116.636 251.608 116.666C251.608 117.862 252.09 119.622 253.248 120.253C253.302 120.282 253.307 120.358 253.248 120.386C251.994 120.984 251.777 122.578 251.608 123.906C251.604 123.938 251.549 123.943 251.543 123.906C251.35 122.644 251.061 120.984 249.903 120.386C249.849 120.358 249.842 120.293 249.903 120.253C250.932 119.589 251.464 117.895 251.543 116.666Z" fill="#C7C7CC"/>
<path d="M300.183 155.492C297.427 154.077 295.152 151.877 293.646 149.169C292.14 146.461 291.471 143.368 291.723 140.28C291.975 137.192 293.138 134.248 295.063 131.82C296.989 129.393 299.591 127.591 302.54 126.643C305.49 125.694 308.655 125.642 311.634 126.492C314.613 127.342 317.274 129.057 319.279 131.419C321.283 133.782 322.543 136.685 322.897 139.763C323.252 142.841 322.685 145.955 321.27 148.711C320.332 150.542 319.041 152.17 317.473 153.501C315.905 154.833 314.09 155.842 312.132 156.472C310.174 157.102 308.11 157.339 306.06 157.171C304.01 157.003 302.013 156.432 300.183 155.492Z" fill="#263238"/>
<path d="M315.225 133.149L322.822 143.81C323.127 141.738 323.009 139.626 322.475 137.601L315.225 133.149Z" fill="#9C6EFF"/>
<path d="M299.295 128.135L317.349 153.603C318.848 152.357 320.099 150.84 321.035 149.13L305.892 125.97C303.558 126.189 301.304 126.928 299.295 128.135Z" fill="#9C6EFF"/>
<path d="M306.759 157.197L298.917 145.965L303.002 156.605C304.226 156.952 305.488 157.151 306.759 157.197Z" fill="#9C6EFF"/>
<path d="M313.132 156.094L295.201 131.658C295.027 131.872 294.864 132.107 294.7 132.332L307.689 157.218C309.556 157.168 311.398 156.787 313.132 156.094Z" fill="#9C6EFF"/>
<path d="M46.4404 98.5085C41.8947 100.581 36.8365 101.259 31.9054 100.458C26.9743 99.6558 22.3915 97.41 18.7366 94.0041C15.0816 90.5982 12.5186 86.1851 11.3714 81.3227C10.2242 76.4603 10.5444 71.367 12.2915 66.6866C14.0387 62.0061 17.1343 57.9488 21.187 55.0275C25.2397 52.1061 30.0676 50.4519 35.0603 50.2741C40.0531 50.0962 44.9864 51.4026 49.2368 54.0282C53.4871 56.6537 56.8636 60.4805 58.9394 65.0247C60.3198 68.0436 61.0916 71.305 61.2104 74.6224C61.3293 77.9398 60.7929 81.2481 59.632 84.358C58.4711 87.468 56.7085 90.3185 54.445 92.7466C52.1814 95.1747 49.4613 97.1327 46.4404 98.5085Z" fill="#263238"/>
<path d="M58.7129 86.4486L41.4757 59.3878L61.0513 78.1976C61.1024 77.6768 61.1432 77.1764 61.1636 76.625L37.9731 50.3404C35.9902 50.1757 33.9947 50.2511 32.03 50.565L36.6865 57.9684L28.9869 51.2288L35.1139 62.3186L22.7272 54.0063C22.4208 54.2004 22.1145 54.3944 21.8184 54.5986L44.8047 80.1276L26.5668 66.25L33.0511 76.4616L23.6054 69.9262L48.3379 97.5588C51.3481 95.8772 53.9795 93.5933 56.0681 90.8498L51.0338 82.4456L57.2832 89.1036C57.8144 88.2491 58.2919 87.3624 58.7129 86.4486Z" fill="#9C6EFF"/>
<path d="M43.3853 99.6724L23.6258 76.8802L32.4078 90.4412L10.7592 73.4695C10.2265 79.9327 12.2007 86.3532 16.2728 91.4005C20.3449 96.4479 26.2027 99.7352 32.6325 100.581L24.8308 93.6476L36.9418 100.796C39.1286 100.696 41.2938 100.319 43.3853 99.6724Z" fill="#9C6EFF"/>
<path d="M45.3457 52.1069L56.4253 64.9736L54.1787 60.0618L57.763 62.8189C54.9369 57.9612 50.5653 54.19 45.3457 52.1069Z" fill="#9C6EFF"/>
<path d="M19.5818 72.0093L13.5978 63.7379C12.3684 66.0802 11.5073 68.598 11.0449 71.2026L19.5818 72.0093Z" fill="#9C6EFF"/>
<path d="M73.4701 58.7341C71.632 54.7108 63.4832 54.1492 52.6589 56.6102C53.3466 57.2144 53.9978 57.8589 54.6093 58.5402C62.6969 56.6816 68.4664 56.845 69.6612 59.4388C71.7648 64.0442 58.6429 74.5621 40.3437 82.9254C22.0445 91.2887 5.52213 94.3522 3.40833 89.7468C2.3259 87.3777 5.29747 83.436 10.9241 79.0246C10.7952 78.1277 10.7167 77.2242 10.6892 76.3185C2.83648 82.4455 -1.34006 88.4091 0.385704 92.1669C3.29601 98.539 22.0241 96.2516 42.2533 86.9897C62.4824 77.7277 76.3804 65.1062 73.4701 58.7341Z" fill="#263238"/>
<path d="M158.798 93.5199C157.942 93.1298 157.276 92.4165 156.946 91.5364C156.615 90.6562 156.646 89.6809 157.033 88.824L159.848 82.5756C160.04 82.1489 160.314 81.7644 160.656 81.444C160.997 81.1237 161.398 80.8738 161.836 80.7088C162.274 80.5439 162.74 80.467 163.207 80.4827C163.675 80.4983 164.135 80.6062 164.561 80.8001C164.988 80.9922 165.372 81.2667 165.693 81.6078C166.013 81.9489 166.263 82.3499 166.428 82.7878C166.593 83.2257 166.67 83.6918 166.654 84.1595C166.638 84.6272 166.53 85.0872 166.336 85.5131L163.519 91.7387C163.327 92.1661 163.052 92.5513 162.71 92.8722C162.368 93.1931 161.967 93.4434 161.528 93.6089C161.089 93.7743 160.623 93.8517 160.154 93.8364C159.686 93.8211 159.225 93.7136 158.798 93.5199Z" fill="white" stroke="#263238" stroke-width="1.19148" stroke-linecap="round" stroke-linejoin="round"/>
<path d="M169.947 116.136C165.51 114.382 160.799 113.423 156.029 113.304C150.065 113.572 144.122 114.199 138.234 115.183L125.359 101.656C126.327 97.385 126.846 93.0248 126.907 88.6463C126.747 82.9896 124.186 80.8133 120.759 79.086C117.332 77.3586 116.311 80.6135 116.816 82.1029C117.454 83.6014 118.198 85.0523 119.044 86.4442C119.044 86.4442 110.813 77.1938 108.417 75.4346C106.021 73.6755 104.218 78.0822 105.02 78.6667C105.02 78.6667 102.113 76.4122 100.054 77.722C97.9939 79.0318 99.686 82.8579 99.686 82.8579C99.686 82.8579 96.2707 83.3737 95.8054 85.8581C95.3402 88.3426 98.547 91.6832 98.547 91.6832C98.547 91.6832 96.7737 94.0763 98.603 97.6283C100.432 101.18 104.551 106.794 106.523 107.781C107.496 108.225 108.432 108.745 109.323 109.335C117.295 123.943 116.736 123.003 120.039 128.751C122.364 132.796 130.873 140.15 137.01 141.497C143.146 142.843 160.611 140.852 160.611 140.852C160.611 140.852 171.953 128.318 169.947 116.136Z" fill="white"/>
<path d="M160.674 140.836C160.674 140.836 171.979 128.301 169.948 116.136C169.948 116.136 169.411 115.915 168.504 115.596L163.007 114.977C158.251 118.721 153.738 122.764 149.497 127.082C143.138 133.723 134.909 133.916 127.228 127.092C119.546 120.269 109.409 109.352 109.409 109.352C117.381 123.96 116.822 123.02 120.125 128.768C122.45 132.813 130.959 140.167 137.096 141.514C143.232 142.861 160.674 140.836 160.674 140.836Z" fill="#944DFF"/>
<path opacity="0.5" d="M160.674 140.836C160.674 140.836 171.979 128.301 169.948 116.136C169.948 116.136 169.411 115.915 168.504 115.596L163.007 114.977C158.251 118.721 153.738 122.764 149.497 127.082C143.138 133.723 134.909 133.916 127.228 127.092C119.546 120.269 109.409 109.352 109.409 109.352C117.381 123.96 116.822 123.02 120.125 128.768C122.45 132.813 130.959 140.167 137.096 141.514C143.232 142.861 160.674 140.836 160.674 140.836Z" fill="white"/>
<path d="M169.947 116.136C165.51 114.382 160.799 113.423 156.029 113.304C150.065 113.572 144.122 114.199 138.234 115.183L125.359 101.656C126.327 97.385 126.846 93.0248 126.907 88.6463C126.747 82.9896 124.186 80.8133 120.759 79.086C117.332 77.3586 116.311 80.6135 116.816 82.1029C117.454 83.6014 118.198 85.0523 119.044 86.4442C119.044 86.4442 110.813 77.1938 108.417 75.4346C106.021 73.6755 104.218 78.0822 105.02 78.6667C105.02 78.6667 102.113 76.4122 100.054 77.722C97.9939 79.0318 99.686 82.8579 99.686 82.8579C99.686 82.8579 96.2707 83.3737 95.8054 85.8581C95.3402 88.3426 98.547 91.6832 98.547 91.6832C98.547 91.6832 96.7737 94.0763 98.603 97.6283C100.432 101.18 104.551 106.794 106.523 107.781C107.496 108.225 108.432 108.745 109.323 109.335C117.295 123.943 116.736 123.003 120.039 128.751C122.364 132.796 130.873 140.15 137.01 141.497C143.146 142.843 160.611 140.852 160.611 140.852C160.611 140.852 171.953 128.318 169.947 116.136Z" stroke="#263238" stroke-width="1.19148" stroke-linecap="round" stroke-linejoin="round"/>
<path d="M133.24 109.927L125.349 101.676C126.317 97.4049 126.836 93.0447 126.897 88.6662C126.737 83.0095 124.176 80.8332 120.749 79.1058C117.322 77.3785 116.301 80.6334 116.806 82.1228C117.444 83.6213 118.189 85.0722 119.034 86.4641C119.034 86.4641 110.803 77.2137 108.407 75.4545C106.011 73.6954 104.208 78.1021 105.01 78.6866C105.01 78.6866 102.104 76.4321 100.044 77.7419C97.9842 79.0517 99.6762 82.8778 99.6762 82.8778C99.6762 82.8778 96.2609 83.3936 95.7957 85.878C95.3304 88.3625 98.5372 91.7031 98.5372 91.7031C98.5372 91.7031 96.7639 94.0962 98.5933 97.6482C100.423 101.2 104.542 106.814 106.514 107.801C107.486 108.245 108.422 108.765 109.313 109.355C112.839 115.813 114.705 119.254 115.955 121.538L133.24 109.927Z" fill="white" stroke="#263238" stroke-width="1.19148" stroke-linecap="round" stroke-linejoin="round"/>
<path d="M133.759 140.314C134.413 140.62 135.084 140.888 135.769 141.117C137.381 135.735 140.716 123.173 140.276 114.569C139.04 114.92 138.234 115.183 138.234 115.183C138.234 115.183 137.216 130.033 133.759 140.314Z" fill="white" stroke="#263238" stroke-width="1.19148" stroke-linecap="round" stroke-linejoin="round"/>
<path d="M119.033 86.4272C119.033 86.4272 110.781 91.4426 114.41 98.7985" stroke="#263238" stroke-width="1.19148" stroke-linecap="round" stroke-linejoin="round"/>
<path d="M105.01 78.6497L110.934 87.0364" stroke="#263238" stroke-width="1.19148" stroke-linecap="round" stroke-linejoin="round"/>
<path d="M99.6992 82.875L105.365 90.2579" stroke="#263238" stroke-width="1.19148" stroke-linecap="round" stroke-linejoin="round"/>
<path d="M98.5596 91.7001L102.617 95.9597" stroke="#263238" stroke-width="1.19148" stroke-linecap="round" stroke-linejoin="round"/>
<path d="M112.289 85.5673C112.289 85.5673 104.2 93.0928 102.659 98.3787" stroke="#263238" stroke-width="1.19148" stroke-linecap="round" stroke-linejoin="round"/>
<path d="M145.591 140.706C146.87 136.192 143.266 131.229 137.477 129.555C131.903 127.948 126.372 130.042 124.828 134.229C128.429 137.481 133.189 140.654 137.037 141.48C139.724 141.901 142.448 142.048 145.166 141.916C145.349 141.528 145.492 141.123 145.591 140.706Z" fill="#944DFF"/>
<path d="M145.591 140.706C146.87 136.192 143.266 131.229 137.477 129.555C131.903 127.948 126.372 130.042 124.828 134.229C128.429 137.481 133.189 140.654 137.037 141.48C139.724 141.901 142.448 142.048 145.166 141.916C145.349 141.528 145.492 141.123 145.591 140.706V140.706Z" stroke="#263238" stroke-width="1.19148" stroke-linecap="round" stroke-linejoin="round"/>
<path d="M146.375 154.488C146.375 154.488 142.83 157.402 142.308 159.226C141.787 161.051 137.802 174.909 139.378 180.525C140.954 186.14 155.742 196.3 165.428 197.594C175.113 198.887 186.541 199.484 192.3 194.009C198.059 188.534 198.925 173.527 197.896 170.279C196.867 167.031 150.633 152.523 150.633 152.523C150.633 152.523 147.614 151.897 146.375 154.488Z" fill="white"/>
<path d="M146.376 154.488C146.376 154.488 145.676 155.06 144.839 155.869L146.642 156.747C146.642 156.747 151.189 165.345 162.768 170.845C174.348 176.345 187.892 175.753 189.803 179.263C191.715 182.773 195.778 186.466 187.076 191.412C178.374 196.357 160.198 188.052 152.575 183.135C148.611 180.575 143.637 176.003 139.282 172.795C138.819 175.365 138.831 177.998 139.318 180.564C140.894 186.18 155.683 196.34 165.368 197.633C175.054 198.927 186.482 199.523 192.241 194.048C198 188.573 198.866 173.567 197.836 170.319C196.807 167.071 150.574 152.563 150.574 152.563C150.574 152.563 147.615 151.897 146.376 154.488Z" fill="#944DFF"/>
<path opacity="0.5" d="M146.376 154.488C146.376 154.488 145.676 155.06 144.839 155.869L146.642 156.747C146.642 156.747 151.189 165.345 162.768 170.845C174.348 176.345 187.892 175.753 189.803 179.263C191.715 182.773 195.778 186.466 187.076 191.412C178.374 196.357 160.198 188.052 152.575 183.135C148.611 180.575 143.637 176.003 139.282 172.795C138.819 175.365 138.831 177.998 139.318 180.564C140.894 186.18 155.683 196.34 165.368 197.633C175.054 198.927 186.482 199.523 192.241 194.048C198 188.573 198.866 173.567 197.836 170.319C196.807 167.071 150.574 152.563 150.574 152.563C150.574 152.563 147.615 151.897 146.376 154.488Z" fill="white"/>
<path d="M146.375 154.488C146.375 154.488 142.83 157.402 142.308 159.226C141.787 161.051 137.802 174.909 139.378 180.525C140.954 186.14 155.742 196.3 165.428 197.594C175.113 198.887 186.541 199.484 192.3 194.009C198.059 188.534 198.925 173.527 197.896 170.279C196.867 167.031 150.633 152.523 150.633 152.523C150.633 152.523 147.614 151.897 146.375 154.488Z" stroke="#263238" stroke-width="1.19148" stroke-linecap="round" stroke-linejoin="round"/>
<path d="M166.657 114.429C166.657 114.429 161.717 115.73 157.386 122.257C153.055 128.784 143.832 147.554 146.702 156.707C148.579 162.724 180.097 175.806 192.626 173.12C195.988 172.394 199.174 171.92 201.709 163.838C204.243 155.755 207.552 135.773 206.957 128.324C206.361 120.876 198.96 119.911 195.803 118.556C192.646 117.201 169.693 109.833 166.657 114.429Z" fill="white"/>
<path d="M206.939 128.225L198.73 138.387C198.73 138.387 196.356 158.303 194.654 164.16C192.952 170.017 175.46 170.057 168.736 168.914L166.755 168.581C176.178 172.054 186.609 174.422 192.636 173.137C195.999 172.411 199.184 171.937 201.719 163.855C204.253 155.773 207.562 135.79 206.967 128.342C206.964 128.302 206.955 128.262 206.939 128.225Z" fill="#944DFF"/>
<path d="M200.791 130.642L206.86 127.678C205.9 120.825 198.892 119.845 195.791 118.538C192.691 117.232 169.692 109.833 166.656 114.429C165.738 114.722 164.862 115.132 164.048 115.648C161.475 122.875 164.973 126.916 174.901 131.805C184.83 136.693 200.791 130.642 200.791 130.642Z" fill="#944DFF"/>
<g opacity="0.5">
<path opacity="0.5" d="M206.939 128.225L198.73 138.387C198.73 138.387 196.356 158.303 194.654 164.16C192.952 170.017 175.46 170.057 168.736 168.914L166.755 168.581C176.178 172.054 186.609 174.422 192.636 173.137C195.999 172.411 199.184 171.937 201.719 163.855C204.253 155.773 207.562 135.79 206.967 128.342C206.964 128.302 206.955 128.262 206.939 128.225Z" fill="white"/>
<path opacity="0.5" d="M200.791 130.642L206.86 127.678C205.9 120.825 198.892 119.845 195.791 118.538C192.691 117.232 169.692 109.833 166.656 114.429C165.738 114.722 164.862 115.132 164.048 115.648C161.475 122.875 164.973 126.916 174.901 131.805C184.83 136.693 200.791 130.642 200.791 130.642Z" fill="white"/>
</g>
<path d="M166.657 114.429C166.657 114.429 161.717 115.73 157.386 122.257C153.055 128.784 143.832 147.554 146.702 156.707C148.579 162.724 180.097 175.806 192.626 173.12C195.988 172.394 199.174 171.92 201.709 163.838C204.243 155.755 207.552 135.773 206.957 128.324C206.361 120.876 198.96 119.911 195.803 118.556C192.646 117.201 169.693 109.833 166.657 114.429Z" stroke="#263238" stroke-width="1.19148" stroke-linecap="round" stroke-linejoin="round"/>
<path d="M186.612 134.808L166.927 127.449C163.816 126.286 160.35 127.865 159.187 130.977L153.523 146.128C152.36 149.239 153.939 152.704 157.05 153.868L176.735 161.227C179.847 162.39 183.312 160.811 184.475 157.699L190.14 142.549C191.303 139.437 189.723 135.972 186.612 134.808Z" fill="white" stroke="#263238" stroke-width="1.19148" stroke-linecap="round" stroke-linejoin="round"/>
<path d="M170.224 132.799C170.585 133.347 170.776 133.99 170.772 134.646C170.769 135.302 170.57 135.943 170.202 136.487C169.834 137.03 169.314 137.452 168.706 137.7C168.098 137.948 167.43 138.009 166.787 137.878C166.144 137.746 165.555 137.426 165.093 136.959C164.632 136.492 164.319 135.899 164.195 135.255C164.071 134.61 164.14 133.943 164.395 133.338C164.65 132.733 165.078 132.218 165.626 131.856C166.361 131.371 167.258 131.199 168.12 131.375C168.983 131.552 169.739 132.064 170.224 132.799Z" fill="#944DFF" stroke="#263238" stroke-width="1.19148" stroke-linecap="round" stroke-linejoin="round"/>
<path d="M166.878 144.083C167.242 144.631 167.435 145.274 167.432 145.931C167.43 146.588 167.232 147.23 166.865 147.775C166.497 148.32 165.976 148.743 165.368 148.992C164.759 149.24 164.091 149.302 163.447 149.17C162.803 149.038 162.213 148.718 161.751 148.25C161.289 147.782 160.977 147.188 160.854 146.542C160.73 145.897 160.801 145.229 161.058 144.624C161.314 144.019 161.745 143.503 162.294 143.143C163.027 142.66 163.921 142.488 164.781 142.664C165.641 142.84 166.395 143.351 166.878 144.083Z" fill="#944DFF" stroke="#263238" stroke-width="1.19148" stroke-linecap="round" stroke-linejoin="round"/>
<path d="M205.465 119.595C215.149 108.212 213.772 91.1334 202.388 81.4493C191.005 71.7652 173.927 73.1427 164.243 84.526C154.558 95.9092 155.936 112.988 167.319 122.672C178.702 132.356 195.781 130.978 205.465 119.595Z" fill="white"/>
<path d="M192.329 76.0496C190.94 75.6486 189.521 75.3576 188.085 75.1792C192.487 78.9609 195.554 84.0585 196.834 89.7184C198.114 95.3782 197.539 101.3 195.193 106.607C192.847 111.915 188.856 116.327 183.809 119.19C178.762 122.054 172.928 123.217 167.168 122.509C170.229 125.156 173.844 127.083 177.748 128.147C181.652 129.212 185.745 129.387 189.725 128.66C193.706 127.933 197.473 126.322 200.748 123.946C204.023 121.57 206.724 118.49 208.651 114.932C210.578 111.374 211.682 107.429 211.882 103.387C212.082 99.3456 211.373 95.3107 209.807 91.5797C208.241 87.8487 205.858 84.5166 202.833 81.8288C199.808 79.1411 196.219 77.1661 192.329 76.0496Z" fill="#944DFF"/>
<path opacity="0.5" d="M192.329 76.0496C190.94 75.6486 189.521 75.3576 188.085 75.1792C192.487 78.9609 195.554 84.0585 196.834 89.7184C198.114 95.3782 197.539 101.3 195.193 106.607C192.847 111.915 188.856 116.327 183.809 119.19C178.762 122.054 172.928 123.217 167.168 122.509C170.229 125.156 173.844 127.083 177.748 128.147C181.652 129.212 185.745 129.387 189.725 128.66C193.706 127.933 197.473 126.322 200.748 123.946C204.023 121.57 206.724 118.49 208.651 114.932C210.578 111.374 211.682 107.429 211.882 103.387C212.082 99.3456 211.373 95.3107 209.807 91.5797C208.241 87.8487 205.858 84.5166 202.833 81.8288C199.808 79.1411 196.219 77.1661 192.329 76.0496Z" fill="white"/>
<path d="M205.465 119.595C215.149 108.212 213.772 91.1334 202.388 81.4493C191.005 71.7652 173.927 73.1427 164.243 84.526C154.558 95.9092 155.936 112.988 167.319 122.672C178.702 132.356 195.781 130.978 205.465 119.595Z" stroke="#263238" stroke-width="1.19148" stroke-linecap="round" stroke-linejoin="round"/>
<path d="M215.201 104.438L218.071 94.471" stroke="#263238" stroke-width="1.19148" stroke-linecap="round" stroke-linejoin="round"/>
<path d="M220.285 94.0259C220.438 93.4952 220.374 92.9256 220.107 92.4422C219.839 91.9589 219.391 91.6016 218.86 91.4487C218.33 91.2959 217.76 91.3602 217.277 91.6274C216.793 91.8946 216.436 92.3429 216.283 92.8736C216.208 93.1363 216.184 93.4114 216.215 93.6831C216.246 93.9549 216.33 94.2179 216.462 94.4572C216.729 94.9405 217.177 95.2979 217.708 95.4507C218.239 95.6035 218.808 95.5393 219.292 95.2721C219.775 95.0049 220.132 94.5566 220.285 94.0259Z" fill="#263238"/>
<path d="M211.636 116.576C211.187 116.447 210.768 116.23 210.403 115.939C210.038 115.647 209.734 115.287 209.508 114.878C209.283 114.469 209.14 114.019 209.088 113.555C209.037 113.09 209.077 112.62 209.207 112.172L211.086 105.599C211.351 104.692 211.963 103.928 212.79 103.472C213.617 103.016 214.591 102.905 215.499 103.165C215.948 103.293 216.367 103.509 216.733 103.8C217.098 104.091 217.403 104.451 217.629 104.859C217.856 105.268 217.999 105.717 218.052 106.181C218.104 106.645 218.065 107.115 217.936 107.564L216.049 114.142C215.786 115.05 215.174 115.817 214.346 116.273C213.519 116.73 212.544 116.839 211.636 116.576Z" fill="white" stroke="#263238" stroke-width="1.19148" stroke-linecap="round" stroke-linejoin="round"/>
<path d="M207.028 124.963C207.028 124.963 196.693 128.379 197.587 137.246C198.482 146.112 213.213 159.968 213.213 159.968C213.213 159.968 213.674 174.613 212.794 176.821C211.913 179.028 207.001 181.559 204.002 186.841C201.002 192.122 204.052 193.499 205.776 193.499C207.501 193.499 209.62 188.7 210.759 188.072C211.898 187.443 213.066 189.473 211.723 196.709C210.379 203.944 208.5 205.343 211.068 206.584C211.785 206.952 212.601 207.079 213.395 206.949C214.19 206.819 214.922 206.438 215.485 205.861C215.669 206.467 216.065 206.986 216.602 207.322C217.139 207.658 217.779 207.789 218.404 207.691C220.722 207.385 221.04 206.234 221.04 206.234C221.04 206.234 222.337 208.571 224.415 208.179C225.94 207.712 227.298 206.816 228.327 205.598C228.327 205.598 231.062 206.387 232.425 205.06C233.788 203.733 234.475 197.04 234.848 191.485C235.22 185.93 237.369 165.637 236.312 154.762C235.255 143.886 227.87 137.087 223.723 132.691C219.575 128.295 211.02 123.895 207.028 124.963Z" fill="white"/>
<path d="M223.739 132.717C219.609 128.309 211.02 123.895 207.027 124.963L206.789 125.047C214.532 130.261 220.889 137.282 225.311 145.503C233.526 160.367 227.916 180.069 226.674 186.772C225.682 192.149 224.743 199.386 221.256 206.58C221.577 207.115 222.042 207.548 222.598 207.83C223.154 208.112 223.779 208.232 224.4 208.176C225.925 207.709 227.283 206.813 228.313 205.595C228.313 205.595 231.047 206.384 232.411 205.057C233.774 203.73 234.46 197.037 234.833 191.482C235.206 185.927 237.355 165.634 236.298 154.759C235.24 143.883 227.887 137.113 223.739 132.717Z" fill="#944DFF"/>
<path opacity="0.5" d="M223.739 132.717C219.609 128.309 211.02 123.895 207.027 124.963L206.789 125.047C214.532 130.261 220.889 137.282 225.311 145.503C233.526 160.367 227.916 180.069 226.674 186.772C225.682 192.149 224.743 199.386 221.256 206.58C221.577 207.115 222.042 207.548 222.598 207.83C223.154 208.112 223.779 208.232 224.4 208.176C225.925 207.709 227.283 206.813 228.313 205.595C228.313 205.595 231.047 206.384 232.411 205.057C233.774 203.73 234.46 197.037 234.833 191.482C235.206 185.927 237.355 165.634 236.298 154.759C235.24 143.883 227.887 137.113 223.739 132.717Z" fill="white"/>
<path d="M207.028 124.963C207.028 124.963 196.693 128.379 197.587 137.246C198.482 146.112 213.213 159.968 213.213 159.968C213.213 159.968 213.674 174.613 212.794 176.821C211.913 179.028 207.001 181.559 204.002 186.841C201.002 192.122 204.052 193.499 205.776 193.499C207.501 193.499 209.62 188.7 210.759 188.072C211.898 187.443 213.066 189.473 211.723 196.709C210.379 203.944 208.5 205.343 211.068 206.584C211.785 206.952 212.601 207.079 213.395 206.949C214.19 206.819 214.922 206.438 215.485 205.861C215.669 206.467 216.065 206.986 216.602 207.322C217.139 207.658 217.779 207.789 218.404 207.691C220.722 207.385 221.04 206.234 221.04 206.234C221.04 206.234 222.337 208.571 224.415 208.179C225.94 207.712 227.298 206.816 228.327 205.598C228.327 205.598 231.062 206.387 232.425 205.06C233.788 203.733 234.475 197.04 234.848 191.485C235.22 185.93 237.369 165.637 236.312 154.762C235.255 143.886 227.87 137.087 223.723 132.691C219.575 128.295 211.02 123.895 207.028 124.963Z" stroke="#263238" stroke-width="1.19148" stroke-linecap="round" stroke-linejoin="round"/>
<path d="M232.433 205.091C233.796 203.764 234.483 197.072 234.856 191.517C235.072 188.377 235.852 180.51 236.297 172.301C227.376 164.73 217.428 167.267 213.311 168.87C213.291 172.382 213.161 175.82 212.777 176.795C211.896 179.002 206.984 181.533 203.985 186.815C200.985 192.097 204.034 193.474 205.759 193.474C207.484 193.473 209.603 188.675 210.742 188.046C211.881 187.417 213.049 189.448 211.705 196.683C210.362 203.919 208.5 205.343 211.068 206.584C211.785 206.951 212.601 207.079 213.395 206.949C214.19 206.819 214.922 206.438 215.484 205.861C215.668 206.467 216.065 206.986 216.602 207.322C217.138 207.658 217.778 207.789 218.404 207.691C220.722 207.385 221.039 206.233 221.039 206.233C221.039 206.233 222.336 208.571 224.414 208.179C225.939 207.712 227.298 206.816 228.327 205.598C228.327 205.598 231.07 206.418 232.433 205.091Z" stroke="#263238" stroke-width="1.19148" stroke-linecap="round" stroke-linejoin="round"/>
<path d="M215.484 205.861C217.619 202.034 219.001 197.834 219.554 193.487" stroke="#263238" stroke-width="1.19148" stroke-linecap="round" stroke-linejoin="round"/>
<path d="M221.031 206.239C223.349 202.33 224.848 197.99 225.438 193.484" stroke="#263238" stroke-width="1.19148" stroke-linecap="round" stroke-linejoin="round"/>
<path d="M228.335 205.629C228.335 205.629 230.821 198.716 231.155 194.141" stroke="#263238" stroke-width="1.19148" stroke-linecap="round" stroke-linejoin="round"/>
<path d="M235.147 149.156C234.899 148.391 234.608 147.653 234.306 146.935C224.019 146.882 216.047 154.38 212.165 158.935C212.807 159.575 213.196 159.942 213.196 159.942L213.242 161.625C222.888 151.286 230.579 149.185 235.147 149.156Z" fill="white" stroke="#263238" stroke-width="1.19148" stroke-linecap="round" stroke-linejoin="round"/>
<path d="M233.042 156.796C234.165 157.118 235.334 157.248 236.501 157.181C236.451 156.345 236.401 155.546 236.357 154.83C235.705 149.115 233.387 143.718 229.691 139.31C227.935 140.583 226.653 142.406 226.049 144.49C225.356 147.049 225.702 149.778 227.011 152.083C228.321 154.388 230.489 156.082 233.042 156.796Z" fill="#944DFF" stroke="#263238" stroke-width="1.19148" stroke-linecap="round" stroke-linejoin="round"/>
<path d="M131.776 178.995C131.776 178.995 142.07 186.885 147.13 184.635C152.191 182.385 153.427 170.462 150.885 163.808C148.343 157.154 140.736 155.469 130.343 153.957C119.95 152.445 108.328 155.243 103.31 164.902C98.2924 174.561 94.891 194.922 94.891 194.922C94.891 194.922 83.2952 193.311 81.5983 199.214C79.9014 205.116 91.7068 211.96 98.0675 213.795C104.428 215.63 115.04 217.474 120.355 211.864C125.67 206.254 122.872 191.181 124.666 185.019C126.461 178.856 130.181 178.543 131.776 178.995Z" fill="white"/>
<path d="M143.59 174.762C134.467 176.009 130.922 166.408 122.513 168.774C114.104 171.14 117.785 175.478 118.08 188.017C118.376 200.557 107.759 206.753 99.3673 209.108C96.7013 209.847 93.9996 210.449 91.2725 210.913C93.4421 212.14 95.7369 213.132 98.1177 213.872C104.478 215.707 115.025 217.508 120.332 211.904C125.638 206.299 122.848 191.221 124.643 185.058C126.437 178.896 130.209 178.549 131.795 179.007C131.795 179.007 142.089 186.896 147.15 184.647C152.211 182.397 153.447 170.474 150.905 163.82C150.491 162.729 149.9 161.713 149.155 160.815L148.786 160.96C148.786 160.96 152.681 173.523 143.59 174.762Z" fill="#944DFF"/>
<path opacity="0.5" d="M143.59 174.762C134.467 176.009 130.922 166.408 122.513 168.774C114.104 171.14 117.785 175.478 118.08 188.017C118.376 200.557 107.759 206.753 99.3673 209.108C96.7013 209.847 93.9996 210.449 91.2725 210.913C93.4421 212.14 95.7369 213.132 98.1177 213.872C104.478 215.707 115.025 217.508 120.332 211.904C125.638 206.299 122.848 191.221 124.643 185.058C126.437 178.896 130.209 178.549 131.795 179.007C131.795 179.007 142.089 186.896 147.15 184.647C152.211 182.397 153.447 170.474 150.905 163.82C150.491 162.729 149.9 161.713 149.155 160.815L148.786 160.96C148.786 160.96 152.681 173.523 143.59 174.762Z" fill="white"/>
<path d="M131.776 178.995C131.776 178.995 142.07 186.885 147.13 184.635C152.191 182.385 153.427 170.462 150.885 163.808C148.343 157.154 140.736 155.469 130.343 153.957C119.95 152.445 108.328 155.243 103.31 164.902C98.2924 174.561 94.891 194.922 94.891 194.922C94.891 194.922 83.2952 193.311 81.5983 199.214C79.9014 205.116 91.7068 211.96 98.0675 213.795C104.428 215.63 115.04 217.474 120.355 211.864C125.67 206.254 122.872 191.181 124.666 185.019C126.461 178.856 130.181 178.543 131.776 178.995Z" stroke="#263238" stroke-width="1.19148" stroke-linecap="round" stroke-linejoin="round"/>
<path d="M98.7841 177.625C96.3967 186.32 94.9555 194.965 94.9555 194.965C94.9555 194.965 83.3597 193.354 81.6628 199.257C79.9659 205.159 91.7713 212.003 98.1321 213.838C104.493 215.673 115.04 217.474 120.355 211.864C125.143 206.809 123.274 194.035 124.231 187.104C115.321 185.24 106.742 182.044 98.7841 177.625V177.625Z" stroke="#263238" stroke-width="1.19148" stroke-linecap="round" stroke-linejoin="round"/>
<path d="M111.959 156.482C111.209 156.86 110.481 157.279 109.777 157.737C116.991 164.142 122.823 171.949 126.92 180.682C127.481 180.05 128.175 179.551 128.952 179.219C125.434 172.866 119.176 162.62 111.959 156.482Z" stroke="#263238" stroke-width="1.19148" stroke-linecap="round" stroke-linejoin="round"/>
<path d="M125.5 166.608C125.004 168.312 124.013 169.83 122.654 170.971C121.295 172.112 119.628 172.825 117.864 173.019C116.1 173.213 114.318 172.88 112.743 172.062C111.169 171.243 109.872 169.977 109.017 168.421C108.162 166.866 107.787 165.092 107.94 163.324C108.093 161.556 108.766 159.873 109.875 158.488C110.984 157.102 112.479 156.076 114.171 155.54C115.863 155.004 117.676 154.982 119.38 155.476C120.513 155.804 121.571 156.352 122.492 157.09C123.413 157.827 124.18 158.739 124.748 159.773C125.317 160.807 125.676 161.943 125.805 163.115C125.934 164.288 125.83 165.475 125.5 166.608Z" fill="#944DFF" stroke="#263238" stroke-width="1.19148" stroke-linecap="round" stroke-linejoin="round"/>
<path d="M120.355 211.864C121.57 210.458 122.417 208.773 122.82 206.959C119.244 210.273 111.682 214.943 99.5862 211.276C87.8271 207.729 83.6734 201.674 82.1958 198.024C81.9629 198.399 81.7809 198.803 81.6546 199.225C79.9492 205.134 91.7631 211.971 98.1238 213.806C104.485 215.641 115.04 217.474 120.355 211.864Z" stroke="#263238" stroke-width="1.19148" stroke-linecap="round" stroke-linejoin="round"/>
<path d="M176.19 201.688C176.19 201.688 188.576 197.896 189.693 192.486C190.81 187.077 184.767 176.86 174.943 177.322C167.838 177.678 162.286 180.778 154.996 188.327C147.706 195.876 143.259 206.994 148.2 216.653C153.14 226.312 167.777 240.952 167.777 240.952C167.777 240.952 159.74 249.447 163.557 254.269C167.374 259.091 179.809 253.444 184.987 249.332C190.164 245.219 197.777 237.677 196.293 230.105C194.809 222.533 180.909 216.056 176.951 211.058C172.993 206.059 174.896 202.712 176.19 201.688Z" fill="white"/>
<path d="M176.19 201.688C176.19 201.688 188.577 197.896 189.693 192.486C190.424 188.958 188.109 183.427 183.704 180.106C183.704 180.106 187.486 183.985 182.097 189.13C176.708 194.276 165.289 198.627 164.512 207.091C163.734 215.556 177.603 222.727 183.094 229.845C188.585 236.964 188.531 240.535 181.609 246.324C174.687 252.114 164.453 251.158 165.058 255.432C169.955 257.866 180.361 252.983 184.993 249.303C190.179 245.185 197.783 237.649 196.299 230.077C194.815 222.505 180.915 216.028 176.957 211.029C173 206.031 174.896 202.712 176.19 201.688Z" fill="#944DFF"/>
<path opacity="0.5" d="M176.19 201.688C176.19 201.688 188.577 197.896 189.693 192.486C190.424 188.958 188.109 183.427 183.704 180.106C183.704 180.106 187.486 183.985 182.097 189.13C176.708 194.276 165.289 198.627 164.512 207.091C163.734 215.556 177.603 222.727 183.094 229.845C188.585 236.964 188.531 240.535 181.609 246.324C174.687 252.114 164.453 251.158 165.058 255.432C169.955 257.866 180.361 252.983 184.993 249.303C190.179 245.185 197.783 237.649 196.299 230.077C194.815 222.505 180.915 216.028 176.957 211.029C173 206.031 174.896 202.712 176.19 201.688Z" fill="white"/>
<path d="M176.19 201.688C176.19 201.688 188.576 197.896 189.693 192.486C190.81 187.077 184.767 176.86 174.943 177.322C167.838 177.678 162.286 180.778 154.996 188.327C147.706 195.876 143.259 206.994 148.2 216.653C153.14 226.312 167.777 240.952 167.777 240.952C167.777 240.952 159.74 249.447 163.557 254.269C167.374 259.091 179.809 253.444 184.987 249.332C190.164 245.219 197.777 237.677 196.293 230.105C194.809 222.533 180.909 216.056 176.951 211.058C172.993 206.059 174.896 202.712 176.19 201.688Z" stroke="#263238" stroke-width="1.19148" stroke-linecap="round" stroke-linejoin="round"/>
<path d="M155.935 227.784C161.627 234.782 167.817 240.975 167.817 240.975C167.817 240.975 159.78 249.469 163.597 254.292C167.414 259.114 179.85 253.467 185.027 249.354C190.205 245.242 197.818 237.7 196.334 230.128C194.993 223.293 183.577 217.355 178.423 212.583C171.734 218.753 164.153 223.877 155.935 227.784V227.784Z" stroke="#263238" stroke-width="1.19148" stroke-linecap="round" stroke-linejoin="round"/>
<path d="M146.377 204.803C146.251 205.629 146.171 206.461 146.138 207.297C155.53 205.161 165.257 204.95 174.733 206.674C174.559 205.863 174.565 205.024 174.75 204.216C167.524 203.294 155.545 202.437 146.377 204.803Z" stroke="#263238" stroke-width="1.19148" stroke-linecap="round" stroke-linejoin="round"/>
<path d="M162.407 210.875C165.539 207.025 164.956 201.365 161.107 198.233C157.257 195.101 151.597 195.683 148.465 199.533C145.333 203.383 145.915 209.043 149.765 212.175C153.615 215.306 159.275 214.724 162.407 210.875Z" fill="#944DFF" stroke="#263238" stroke-width="1.19148" stroke-linecap="round" stroke-linejoin="round"/>
<path d="M196.311 230.094C195.875 228.287 194.993 226.619 193.746 225.241C194.368 230.079 193.781 238.943 183.797 246.655C174.074 254.17 166.731 254.035 162.906 253.096C163.07 253.507 163.291 253.892 163.563 254.24C167.389 259.057 179.816 253.416 184.993 249.303C190.171 245.191 197.795 237.666 196.311 230.094Z" stroke="#263238" stroke-width="1.19148" stroke-linecap="round" stroke-linejoin="round"/>
<path d="M186.194 87.5214C181.992 86.0495 177.898 84.2863 173.942 82.2448C169.789 84.2501 166.332 87.4544 164.018 91.4438C161.704 95.4332 160.639 100.025 160.96 104.625C161.282 109.226 162.975 113.625 165.821 117.254C168.667 120.883 172.536 123.575 176.927 124.984C181.319 126.392 186.032 126.452 190.458 125.156C194.884 123.859 198.819 121.265 201.757 117.71C204.694 114.154 206.498 109.8 206.936 105.209C207.374 100.618 206.426 96.0005 204.214 91.9537C198.075 91.0792 192.038 89.5944 186.194 87.5214Z" fill="#192124" stroke="#263238" stroke-width="1.19148" stroke-linecap="round" stroke-linejoin="round"/>
<g clip-path="url(#clip0_98_839)">
<path d="M191.887 112.168C188.548 117.572 183.363 127.877 186.007 133.263C186.007 133.263 184.645 135.687 174.791 131.951C166.748 128.902 167.872 126.441 167.872 126.441C174.965 127.329 176.61 122.439 177.179 117.48L191.887 112.168Z" fill="#744C28"/>
<path opacity="0.2" d="M185.197 115.893L177.027 118.976C176.907 120.131 176.714 120.194 176.4 121.313C179.025 121.898 182.907 121.608 184.149 119.101C184.686 118.102 185.041 117.016 185.197 115.893Z" fill="black"/>
<path d="M174.877 103.235C174.375 98.1991 175.265 92.3241 178.015 90.5562C180.766 88.7883 186.085 89.497 187.371 92.7531C188.971 96.8576 182.49 102.81 174.877 103.235Z" fill="#263238"/>
<path d="M195.977 106.483C191.884 113.879 189.858 118.427 184.148 120.502C175.554 123.628 167.812 115.656 169.611 107.183C171.233 99.5781 174.821 91.9569 183.722 92.4657C185.687 92.5742 187.592 93.1834 189.255 94.2354C190.919 95.2875 192.285 96.7473 193.226 98.4764C194.166 100.205 197.521 98.9089 197.5 100.877C197.479 102.845 196.955 104.775 195.977 106.483Z" fill="#744C28"/>
<path d="M191.699 113.12C190.184 108.326 188.955 101.586 191.306 99.3087C193.658 97.0315 198.191 97.7836 200.084 100.738C202.48 104.42 199.075 111.192 191.699 113.12Z" fill="#263238"/>
<path d="M179.092 89.3422C173.614 94.0858 188.562 98.9252 194.338 100.499C194.338 100.499 192.543 104.288 200.256 101.027C197.56 90.541 180.043 88.5191 179.092 89.3422Z" fill="#263238"/>
<path d="M195.42 116.538C194.531 117.102 193.539 117.484 192.501 117.663C191.463 117.842 190.401 117.815 189.374 117.582C186.632 116.953 186.607 114.174 188.496 112.283C190.196 110.58 193.677 108.869 195.886 110.506C196.364 110.871 196.743 111.35 196.989 111.898C197.234 112.447 197.338 113.049 197.292 113.648C197.246 114.248 197.05 114.826 196.723 115.331C196.396 115.836 195.948 116.251 195.42 116.538Z" fill="#744C28"/>
<path d="M183.431 103.083C183.141 103.703 182.57 104.052 182.163 103.862C181.757 103.673 181.67 103.011 181.937 102.43C182.204 101.848 182.798 101.461 183.199 101.66C183.6 101.859 183.721 102.464 183.431 103.083Z" fill="#263238"/>
<path d="M176.415 99.7482C176.125 100.368 175.555 100.717 175.154 100.518C174.753 100.319 174.65 99.6605 174.927 99.085C175.204 98.5095 175.788 98.1163 176.195 98.3059C176.601 98.4954 176.711 99.119 176.415 99.7482Z" fill="#263238"/>
<path d="M178.498 101.115C176.856 102.659 175.008 103.969 173.007 105.007C173.285 105.517 173.674 105.96 174.144 106.302C174.615 106.644 175.155 106.877 175.726 106.985L178.498 101.115Z" fill="#5F3E21"/>
<path d="M180.331 110.096C179.111 110.298 177.858 110.116 176.745 109.576C176.7 109.549 176.666 109.505 176.653 109.453C176.64 109.402 176.648 109.347 176.675 109.301C176.702 109.255 176.747 109.222 176.798 109.209C176.85 109.196 176.905 109.204 176.951 109.231C177.714 109.617 178.558 109.818 179.414 109.816C180.27 109.815 181.114 109.611 181.876 109.222C181.898 109.208 181.923 109.198 181.949 109.194C181.974 109.19 182.001 109.191 182.026 109.197C182.052 109.204 182.075 109.216 182.096 109.232C182.117 109.248 182.134 109.268 182.146 109.291C182.175 109.336 182.184 109.39 182.173 109.442C182.162 109.493 182.13 109.538 182.086 109.567C181.537 109.845 180.943 110.024 180.331 110.096Z" fill="#263238"/>
<path d="M186.858 101.86C186.756 101.884 186.65 101.867 186.56 101.814C186.471 101.761 186.405 101.675 186.378 101.575C186.292 101.076 186.089 100.605 185.786 100.2C185.483 99.7942 185.089 99.466 184.635 99.2417C184.585 99.223 184.538 99.1943 184.499 99.1575C184.46 99.1206 184.429 99.0763 184.407 99.0271C184.386 98.978 184.374 98.925 184.373 98.8713C184.373 98.8176 184.383 98.7642 184.403 98.7145C184.443 98.6147 184.521 98.5346 184.619 98.4913C184.718 98.4479 184.829 98.4447 184.93 98.4823C185.511 98.7541 186.019 99.161 186.41 99.6691C186.802 100.177 187.066 100.772 187.181 101.403C187.194 101.454 187.197 101.507 187.19 101.56C187.182 101.612 187.164 101.662 187.137 101.708C187.11 101.753 187.075 101.793 187.032 101.825C186.99 101.856 186.942 101.879 186.89 101.892L186.858 101.86Z" fill="#263238"/>
<path d="M174.736 95.9079C174.665 95.9194 174.593 95.9118 174.526 95.8858C174.459 95.8599 174.401 95.8165 174.356 95.7603C174.323 95.72 174.297 95.6732 174.282 95.6227C174.266 95.5723 174.261 95.5192 174.267 95.4668C174.273 95.4144 174.289 95.3636 174.315 95.3176C174.34 95.2716 174.375 95.2313 174.417 95.1992C174.909 94.7875 175.492 94.4992 176.117 94.3582C176.743 94.2172 177.393 94.2275 178.014 94.3884C178.064 94.4055 178.111 94.4323 178.151 94.4674C178.191 94.5025 178.224 94.5451 178.247 94.5928C178.271 94.6405 178.284 94.6924 178.288 94.7455C178.291 94.7985 178.284 94.8518 178.267 94.9021C178.25 94.9525 178.223 94.999 178.188 95.039C178.153 95.0789 178.11 95.1116 178.063 95.1351C178.015 95.1586 177.963 95.1725 177.91 95.1759C177.857 95.1794 177.804 95.1724 177.753 95.1552C177.262 95.0333 176.748 95.03 176.255 95.1458C175.762 95.2615 175.304 95.493 174.918 95.8209C174.865 95.8634 174.802 95.8931 174.736 95.9079Z" fill="#263238"/>
<path d="M186.194 87.5214C181.992 86.0495 177.898 84.2863 173.942 82.2448C169.789 84.2501 166.332 87.4543 164.018 91.4438C161.704 95.4332 160.639 100.025 160.96 104.625C161.282 109.226 162.975 113.625 165.821 117.254C168.667 120.883 172.536 123.575 176.927 124.984C181.319 126.392 186.032 126.452 190.458 125.156C194.884 123.859 198.819 121.265 201.757 117.71C204.694 114.154 206.498 109.8 206.936 105.209C207.374 100.617 206.426 96.0005 204.214 91.9537C198.075 91.0792 192.038 89.5944 186.194 87.5214Z" fill="url(#paint14_linear_98_839)" stroke="#263238" stroke-width="1.19148" stroke-linecap="round" stroke-linejoin="round"/>
</g>
<defs>
<radialGradient id="paint0_radial_98_839" cx="0" cy="0" r="1" gradientUnits="userSpaceOnUse" gradientTransform="translate(161.5 154.5) rotate(90) scale(154.5)">
<stop offset="0.219291" stop-color="#6D3BC4"/>
<stop offset="1" stop-color="#6D3BC4" stop-opacity="0"/>
</radialGradient>
<radialGradient id="paint1_radial_98_839" cx="0" cy="0" r="1" gradientUnits="userSpaceOnUse" gradientTransform="translate(129.073 43.9414) rotate(90) scale(5.49303)">
<stop stop-color="white"/>
<stop offset="0.785736" stop-color="#6E3CC5" stop-opacity="0.09"/>
<stop offset="1" stop-color="#6F3DC6" stop-opacity="0"/>
</radialGradient>
<radialGradient id="paint2_radial_98_839" cx="0" cy="0" r="1" gradientUnits="userSpaceOnUse" gradientTransform="translate(56.1657 81.3937) rotate(90) scale(9.48797)">
<stop stop-color="white"/>
<stop offset="0.785736" stop-color="#6E3CC5" stop-opacity="0.09"/>
<stop offset="1" stop-color="#6F3DC6" stop-opacity="0"/>
</radialGradient>
<radialGradient id="paint3_radial_98_839" cx="0" cy="0" r="1" gradientUnits="userSpaceOnUse" gradientTransform="translate(286.031 244.344) rotate(90) scale(8.14691)">
<stop stop-color="white"/>
<stop offset="0.785736" stop-color="#6E3CC5" stop-opacity="0.09"/>
<stop offset="1" stop-color="#6F3DC6" stop-opacity="0"/>
</radialGradient>
<radialGradient id="paint4_radial_98_839" cx="0" cy="0" r="1" gradientUnits="userSpaceOnUse" gradientTransform="translate(227.448 270.154) rotate(90) scale(11.4854)">
<stop stop-color="white"/>
<stop offset="0.785736" stop-color="#6E3CC5" stop-opacity="0.09"/>
<stop offset="1" stop-color="#6F3DC6" stop-opacity="0"/>
</radialGradient>
<radialGradient id="paint5_radial_98_839" cx="0" cy="0" r="1" gradientUnits="userSpaceOnUse" gradientTransform="translate(245.083 216.879) rotate(90) scale(6.14945)">
<stop stop-color="white"/>
<stop offset="0.785736" stop-color="#6E3CC5" stop-opacity="0.09"/>
<stop offset="1" stop-color="#6F3DC6" stop-opacity="0"/>
</radialGradient>
<radialGradient id="paint6_radial_98_839" cx="0" cy="0" r="1" gradientUnits="userSpaceOnUse" gradientTransform="translate(299.107 194.315) rotate(90) scale(4.74399)">
<stop stop-color="white"/>
<stop offset="0.785736" stop-color="#6E3CC5" stop-opacity="0.09"/>
<stop offset="1" stop-color="#6F3DC6" stop-opacity="0"/>
</radialGradient>
<radialGradient id="paint7_radial_98_839" cx="0" cy="0" r="1" gradientUnits="userSpaceOnUse" gradientTransform="translate(41.3422 155.956) rotate(90) scale(8.14691)">
<stop stop-color="white"/>
<stop offset="0.785736" stop-color="#6E3CC5" stop-opacity="0.09"/>
<stop offset="1" stop-color="#6F3DC6" stop-opacity="0"/>
</radialGradient>
<radialGradient id="paint8_radial_98_839" cx="0" cy="0" r="1" gradientUnits="userSpaceOnUse" gradientTransform="translate(99.3606 41.1948) rotate(90) scale(8.23955)">
<stop stop-color="white"/>
<stop offset="0.785736" stop-color="#6E3CC5" stop-opacity="0.09"/>
<stop offset="1" stop-color="#6F3DC6" stop-opacity="0"/>
</radialGradient>
<radialGradient id="paint9_radial_98_839" cx="0" cy="0" r="1" gradientUnits="userSpaceOnUse" gradientTransform="translate(120.085 79.8957) rotate(90) scale(5.49303)">
<stop stop-color="white"/>
<stop offset="0.785736" stop-color="#6E3CC5" stop-opacity="0.09"/>
<stop offset="1" stop-color="#6F3DC6" stop-opacity="0"/>
</radialGradient>
<radialGradient id="paint10_radial_98_839" cx="0" cy="0" r="1" gradientUnits="userSpaceOnUse" gradientTransform="translate(201.046 56.1755) rotate(90) scale(6.74145)">
<stop stop-color="white"/>
<stop offset="0.785736" stop-color="#6E3CC5" stop-opacity="0.09"/>
<stop offset="1" stop-color="#6F3DC6" stop-opacity="0"/>
</radialGradient>
<radialGradient id="paint11_radial_98_839" cx="0" cy="0" r="1" gradientUnits="userSpaceOnUse" gradientTransform="translate(95.2729 239.85) rotate(90) scale(8.14691)">
<stop stop-color="white"/>
<stop offset="0.785736" stop-color="#6E3CC5" stop-opacity="0.09"/>
<stop offset="1" stop-color="#6F3DC6" stop-opacity="0"/>
</radialGradient>
<radialGradient id="paint12_radial_98_839" cx="0" cy="0" r="1" gradientUnits="userSpaceOnUse" gradientTransform="translate(97.77 195.406) rotate(90) scale(8.14691)">
<stop stop-color="white"/>
<stop offset="0.785736" stop-color="#6E3CC5" stop-opacity="0.09"/>
<stop offset="1" stop-color="#6F3DC6" stop-opacity="0"/>
</radialGradient>
<radialGradient id="paint13_radial_98_839" cx="0" cy="0" r="1" gradientUnits="userSpaceOnUse" gradientTransform="translate(251.576 120.501) rotate(90) scale(8.14691)">
<stop stop-color="white"/>
<stop offset="0.785736" stop-color="#6E3CC5" stop-opacity="0.09"/>
<stop offset="1" stop-color="#6F3DC6" stop-opacity="0"/>
</radialGradient>
<linearGradient id="paint14_linear_98_839" x1="172.995" y1="77.0584" x2="199.028" y2="128.012" gradientUnits="userSpaceOnUse">
<stop stop-color="white" stop-opacity="0.3"/>
<stop offset="0.494792" stop-color="#FBFBFB" stop-opacity="0"/>
<stop offset="1" stop-color="#F8F8F8" stop-opacity="0.15"/>
</linearGradient>
<clipPath id="clip0_98_839">
<rect x="160.284" y="82.4152" width="45.9087" height="44.3784" rx="22.1892" transform="rotate(-3.41124 160.284 82.4152)" fill="white"/>
</clipPath>
</defs>
</svg>
