<svg width="253" height="256" viewBox="0 0 253 256" fill="none" xmlns="http://www.w3.org/2000/svg">
<path d="M129.798 66.5199C128.942 66.1298 128.276 65.4165 127.946 64.5364C127.615 63.6562 127.646 62.6809 128.033 61.824L130.848 55.5756C131.04 55.1489 131.314 54.7644 131.656 54.444C131.997 54.1237 132.398 53.8738 132.836 53.7088C133.274 53.5439 133.74 53.467 134.207 53.4827C134.675 53.4983 135.135 53.6062 135.561 53.8001C135.988 53.9922 136.372 54.2667 136.693 54.6078C137.013 54.9489 137.263 55.3499 137.428 55.7878C137.593 56.2257 137.67 56.6918 137.654 57.1595C137.638 57.6272 137.53 58.0872 137.336 58.5131L134.519 64.7387C134.327 65.1661 134.052 65.5513 133.71 65.8722C133.368 66.1931 132.967 66.4434 132.528 66.6089C132.089 66.7743 131.623 66.8517 131.154 66.8364C130.686 66.8211 130.225 66.7136 129.798 66.5199Z" fill="white" stroke="#263238" stroke-width="1.19148" stroke-linecap="round" stroke-linejoin="round"/>
<path d="M140.947 89.1357C136.51 87.3819 131.799 86.4233 127.029 86.3037C121.065 86.5716 115.122 87.1991 109.234 88.1827L96.3592 74.6557C97.3269 70.385 97.8456 66.0248 97.9066 61.6463C97.7472 55.9896 95.1862 53.8133 91.7591 52.086C88.332 50.3586 87.3107 53.6135 87.8161 55.1029C88.4538 56.6014 89.1983 58.0523 90.0438 59.4442C90.0438 59.4442 81.813 50.1938 79.417 48.4346C77.021 46.6755 75.2181 51.0822 76.0196 51.6667C76.0196 51.6667 73.1134 49.4122 71.0537 50.722C68.9939 52.0318 70.686 55.8579 70.686 55.8579C70.686 55.8579 67.2707 56.3737 66.8054 58.8581C66.3402 61.3426 69.547 64.6832 69.547 64.6832C69.547 64.6832 67.7737 67.0763 69.603 70.6283C71.4323 74.1803 75.5514 79.794 77.5235 80.7807C78.4956 81.2251 79.4315 81.7448 80.3226 82.3351C88.2951 96.9428 87.736 96.0026 91.0387 101.751C93.3641 105.796 101.873 113.15 108.01 114.497C114.146 115.843 131.611 113.852 131.611 113.852C131.611 113.852 142.953 101.318 140.947 89.1357Z" fill="white"/>
<path d="M131.674 113.836C131.674 113.836 142.979 101.301 140.948 89.1356C140.948 89.1356 140.411 88.9149 139.504 88.5961L134.007 87.9774C129.251 91.7207 124.738 95.7637 120.497 100.082C114.138 106.723 105.909 106.916 98.2276 100.092C90.5458 93.2689 80.4086 82.3524 80.4086 82.3524C88.381 96.9601 87.822 96.0199 91.1247 101.768C93.4501 105.813 101.959 113.167 108.096 114.514C114.232 115.861 131.674 113.836 131.674 113.836Z" fill="#944DFF"/>
<path opacity="0.5" d="M131.674 113.836C131.674 113.836 142.979 101.301 140.948 89.1356C140.948 89.1356 140.411 88.9149 139.504 88.5961L134.007 87.9774C129.251 91.7207 124.738 95.7637 120.497 100.082C114.138 106.723 105.909 106.916 98.2276 100.092C90.5458 93.2689 80.4086 82.3524 80.4086 82.3524C88.381 96.9601 87.822 96.0199 91.1247 101.768C93.4501 105.813 101.959 113.167 108.096 114.514C114.232 115.861 131.674 113.836 131.674 113.836Z" fill="white"/>
<path d="M140.947 89.1357C136.51 87.3819 131.799 86.4233 127.029 86.3037C121.065 86.5716 115.122 87.1991 109.234 88.1827L96.3592 74.6557C97.3269 70.385 97.8456 66.0248 97.9066 61.6463C97.7472 55.9896 95.1862 53.8133 91.7591 52.086C88.332 50.3586 87.3107 53.6135 87.8161 55.1029C88.4538 56.6014 89.1983 58.0523 90.0438 59.4442C90.0438 59.4442 81.813 50.1938 79.417 48.4346C77.021 46.6755 75.2181 51.0822 76.0196 51.6667C76.0196 51.6667 73.1134 49.4122 71.0537 50.722C68.9939 52.0318 70.686 55.8579 70.686 55.8579C70.686 55.8579 67.2707 56.3737 66.8054 58.8581C66.3402 61.3426 69.547 64.6832 69.547 64.6832C69.547 64.6832 67.7737 67.0763 69.603 70.6283C71.4323 74.1803 75.5514 79.794 77.5235 80.7807C78.4956 81.2251 79.4315 81.7448 80.3226 82.3351C88.2951 96.9428 87.736 96.0026 91.0387 101.751C93.3641 105.796 101.873 113.15 108.01 114.497C114.146 115.843 131.611 113.852 131.611 113.852C131.611 113.852 142.953 101.318 140.947 89.1357Z" stroke="#263238" stroke-width="1.19148" stroke-linecap="round" stroke-linejoin="round"/>
<path d="M104.24 82.9274L96.3495 74.6755C97.3172 70.4049 97.8358 66.0447 97.8969 61.6662C97.7375 56.0095 95.1764 53.8332 91.7493 52.1058C88.3223 50.3785 87.301 53.6334 87.8064 55.1228C88.4441 56.6213 89.1886 58.0722 90.034 59.4641C90.034 59.4641 81.8033 50.2137 79.4073 48.4545C77.0113 46.6954 75.2084 51.1021 76.0099 51.6866C76.0099 51.6866 73.1037 49.4321 71.0439 50.7419C68.9842 52.0517 70.6762 55.8778 70.6762 55.8778C70.6762 55.8778 67.2609 56.3936 66.7957 58.878C66.3304 61.3625 69.5372 64.7031 69.5372 64.7031C69.5372 64.7031 67.7639 67.0962 69.5933 70.6482C71.4226 74.2002 75.5416 79.8139 77.5137 80.8006C78.4859 81.245 79.4218 81.7647 80.3129 82.355C83.8387 88.8126 85.7054 92.2543 86.9546 94.5375L104.24 82.9274Z" fill="white" stroke="#263238" stroke-width="1.19148" stroke-linecap="round" stroke-linejoin="round"/>
<path d="M104.759 113.314C105.413 113.62 106.084 113.888 106.769 114.117C108.381 108.735 111.716 96.1731 111.276 87.5695C110.04 87.9203 109.234 88.1826 109.234 88.1826C109.234 88.1826 108.216 103.033 104.759 113.314Z" fill="white" stroke="#263238" stroke-width="1.19148" stroke-linecap="round" stroke-linejoin="round"/>
<path d="M90.0329 59.4272C90.0329 59.4272 81.7809 64.4426 85.41 71.7985" stroke="#263238" stroke-width="1.19148" stroke-linecap="round" stroke-linejoin="round"/>
<path d="M76.0098 51.6497L81.9336 60.0364" stroke="#263238" stroke-width="1.19148" stroke-linecap="round" stroke-linejoin="round"/>
<path d="M70.6992 55.875L76.3645 63.2579" stroke="#263238" stroke-width="1.19148" stroke-linecap="round" stroke-linejoin="round"/>
<path d="M69.5596 64.7001L73.6172 68.9597" stroke="#263238" stroke-width="1.19148" stroke-linecap="round" stroke-linejoin="round"/>
<path d="M83.2889 58.5673C83.2889 58.5673 75.2003 66.0928 73.6594 71.3787" stroke="#263238" stroke-width="1.19148" stroke-linecap="round" stroke-linejoin="round"/>
<path d="M116.591 113.706C117.87 109.192 114.266 104.229 108.477 102.555C102.903 100.948 97.3723 103.042 95.8282 107.229C99.4291 110.481 104.189 113.654 108.037 114.48C110.724 114.901 113.448 115.048 116.166 114.916C116.349 114.528 116.492 114.123 116.591 113.706Z" fill="#944DFF"/>
<path d="M116.591 113.706C117.87 109.192 114.266 104.229 108.477 102.555C102.903 100.948 97.3723 103.042 95.8282 107.229C99.4291 110.481 104.189 113.654 108.037 114.48C110.724 114.901 113.448 115.048 116.166 114.916C116.349 114.528 116.492 114.123 116.591 113.706V113.706Z" stroke="#263238" stroke-width="1.19148" stroke-linecap="round" stroke-linejoin="round"/>
<path d="M117.375 127.488C117.375 127.488 113.83 130.402 113.308 132.226C112.787 134.051 108.802 147.909 110.378 153.525C111.954 159.14 126.742 169.3 136.428 170.594C146.113 171.887 157.541 172.484 163.3 167.009C169.059 161.534 169.925 146.527 168.896 143.279C167.867 140.031 121.633 125.523 121.633 125.523C121.633 125.523 118.614 124.897 117.375 127.488Z" fill="white"/>
<path d="M117.376 127.488C117.376 127.488 116.676 128.06 115.839 128.869L117.642 129.747C117.642 129.747 122.189 138.345 133.768 143.845C145.348 149.345 158.892 148.753 160.803 152.263C162.715 155.773 166.778 159.466 158.076 164.412C149.374 169.357 131.198 161.052 123.575 156.135C119.611 153.575 114.637 149.003 110.282 145.795C109.819 148.365 109.831 150.998 110.318 153.564C111.894 159.18 126.683 169.34 136.368 170.633C146.054 171.927 157.482 172.523 163.241 167.048C169 161.573 169.866 146.567 168.836 143.319C167.807 140.071 121.574 125.563 121.574 125.563C121.574 125.563 118.615 124.897 117.376 127.488Z" fill="#944DFF"/>
<path opacity="0.5" d="M117.376 127.488C117.376 127.488 116.676 128.06 115.839 128.869L117.642 129.747C117.642 129.747 122.189 138.345 133.768 143.845C145.348 149.345 158.892 148.753 160.803 152.263C162.715 155.773 166.778 159.466 158.076 164.412C149.374 169.357 131.198 161.052 123.575 156.135C119.611 153.575 114.637 149.003 110.282 145.795C109.819 148.365 109.831 150.998 110.318 153.564C111.894 159.18 126.683 169.34 136.368 170.633C146.054 171.927 157.482 172.523 163.241 167.048C169 161.573 169.866 146.567 168.836 143.319C167.807 140.071 121.574 125.563 121.574 125.563C121.574 125.563 118.615 124.897 117.376 127.488Z" fill="white"/>
<path d="M117.375 127.488C117.375 127.488 113.83 130.402 113.308 132.226C112.787 134.051 108.802 147.909 110.378 153.525C111.954 159.14 126.742 169.3 136.428 170.594C146.113 171.887 157.541 172.484 163.3 167.009C169.059 161.534 169.925 146.527 168.896 143.279C167.867 140.031 121.633 125.523 121.633 125.523C121.633 125.523 118.614 124.897 117.375 127.488Z" stroke="#263238" stroke-width="1.19148" stroke-linecap="round" stroke-linejoin="round"/>
<path d="M137.657 87.4289C137.657 87.4289 132.717 88.7303 128.386 95.2573C124.055 101.784 114.832 120.554 117.702 129.707C119.579 135.724 151.097 148.806 163.626 146.12C166.988 145.394 170.174 144.92 172.709 136.838C175.243 128.755 178.552 108.773 177.957 101.324C177.361 93.8756 169.96 92.9107 166.803 91.5557C163.646 90.2006 140.693 82.8328 137.657 87.4289Z" fill="white"/>
<path d="M177.939 101.225L169.73 111.387C169.73 111.387 167.356 131.303 165.654 137.16C163.952 143.017 146.46 143.057 139.736 141.914L137.755 141.581C147.178 145.054 157.609 147.422 163.636 146.137C166.999 145.411 170.184 144.937 172.719 136.855C175.253 128.773 178.562 108.79 177.967 101.342C177.964 101.302 177.955 101.262 177.939 101.225Z" fill="#944DFF"/>
<path d="M171.791 103.642L177.86 100.678C176.9 93.8251 169.892 92.845 166.791 91.5385C163.691 90.2319 140.692 82.8326 137.656 87.4287C136.738 87.7222 135.862 88.132 135.048 88.648C132.475 95.8747 135.973 99.9163 145.901 104.805C155.83 109.693 171.791 103.642 171.791 103.642Z" fill="#944DFF"/>
<g opacity="0.5">
<path opacity="0.5" d="M177.939 101.225L169.73 111.387C169.73 111.387 167.356 131.303 165.654 137.16C163.952 143.017 146.46 143.057 139.736 141.914L137.755 141.581C147.178 145.054 157.609 147.422 163.636 146.137C166.999 145.411 170.184 144.937 172.719 136.855C175.253 128.773 178.562 108.79 177.967 101.342C177.964 101.302 177.955 101.262 177.939 101.225Z" fill="white"/>
<path opacity="0.5" d="M171.791 103.642L177.86 100.678C176.9 93.8251 169.892 92.845 166.791 91.5385C163.691 90.2319 140.692 82.8326 137.656 87.4287C136.738 87.7222 135.862 88.132 135.048 88.648C132.475 95.8747 135.973 99.9163 145.901 104.805C155.83 109.693 171.791 103.642 171.791 103.642Z" fill="white"/>
</g>
<path d="M137.657 87.4289C137.657 87.4289 132.717 88.7303 128.386 95.2573C124.055 101.784 114.832 120.554 117.702 129.707C119.579 135.724 151.097 148.806 163.626 146.12C166.988 145.394 170.174 144.92 172.709 136.838C175.243 128.755 178.552 108.773 177.957 101.324C177.361 93.8756 169.96 92.9107 166.803 91.5556C163.646 90.2006 140.693 82.8328 137.657 87.4289Z" stroke="#263238" stroke-width="1.19148" stroke-linecap="round" stroke-linejoin="round"/>
<path d="M157.612 107.808L137.927 100.449C134.816 99.2859 131.35 100.865 130.187 103.977L124.523 119.128C123.36 122.239 124.939 125.704 128.05 126.868L147.735 134.227C150.847 135.39 154.312 133.811 155.475 130.699L161.14 115.549C162.303 112.437 160.723 108.972 157.612 107.808Z" fill="white" stroke="#263238" stroke-width="1.19148" stroke-linecap="round" stroke-linejoin="round"/>
<path d="M141.224 105.799C141.585 106.347 141.776 106.99 141.772 107.646C141.769 108.302 141.57 108.943 141.202 109.487C140.834 110.03 140.314 110.452 139.706 110.7C139.098 110.948 138.43 111.009 137.787 110.878C137.144 110.746 136.555 110.426 136.093 109.959C135.632 109.492 135.319 108.899 135.195 108.255C135.071 107.61 135.14 106.943 135.395 106.338C135.65 105.733 136.078 105.218 136.626 104.856C137.361 104.371 138.258 104.199 139.12 104.375C139.983 104.552 140.739 105.064 141.224 105.799Z" fill="#944DFF" stroke="#263238" stroke-width="1.19148" stroke-linecap="round" stroke-linejoin="round"/>
<path d="M137.878 117.083C138.242 117.631 138.435 118.274 138.432 118.931C138.43 119.588 138.232 120.23 137.865 120.775C137.497 121.32 136.976 121.743 136.368 121.992C135.759 122.24 135.091 122.302 134.447 122.17C133.803 122.038 133.213 121.718 132.751 121.25C132.289 120.782 131.977 120.188 131.854 119.542C131.73 118.897 131.801 118.229 132.058 117.624C132.314 117.019 132.745 116.503 133.294 116.143C134.027 115.66 134.921 115.488 135.781 115.664C136.641 115.84 137.395 116.351 137.878 117.083Z" fill="#944DFF" stroke="#263238" stroke-width="1.19148" stroke-linecap="round" stroke-linejoin="round"/>
<path d="M176.465 92.5951C186.15 81.2118 184.772 64.1334 173.389 54.4493C162.006 44.7652 144.927 46.1427 135.243 57.526C125.559 68.9092 126.936 85.9877 138.32 95.6718C149.703 105.356 166.781 103.978 176.465 92.5951Z" fill="white"/>
<path d="M163.329 49.0496C161.939 48.6486 160.52 48.3576 159.085 48.1792C163.486 51.9609 166.553 57.0585 167.833 62.7184C169.114 68.3782 168.538 74.2997 166.193 79.6072C163.847 84.9147 159.856 89.3265 154.809 92.1902C149.762 95.0539 143.927 96.2174 138.168 95.5086C141.228 98.1558 144.844 100.083 148.747 101.147C152.651 102.212 156.744 102.387 160.725 101.66C164.705 100.933 168.472 99.3222 171.748 96.9463C175.023 94.5704 177.724 91.4899 179.651 87.9318C181.578 84.3736 182.682 80.4285 182.882 76.3871C183.082 72.3456 182.373 68.3107 180.807 64.5797C179.24 60.8487 176.857 57.5166 173.832 54.8288C170.807 52.1411 167.218 50.1661 163.329 49.0496Z" fill="#944DFF"/>
<path opacity="0.5" d="M163.329 49.0496C161.939 48.6486 160.52 48.3576 159.085 48.1792C163.486 51.9609 166.553 57.0585 167.833 62.7184C169.114 68.3782 168.538 74.2997 166.193 79.6072C163.847 84.9147 159.856 89.3265 154.809 92.1902C149.762 95.0539 143.927 96.2174 138.168 95.5086C141.228 98.1558 144.844 100.083 148.747 101.147C152.651 102.212 156.744 102.387 160.725 101.66C164.705 100.933 168.472 99.3222 171.748 96.9463C175.023 94.5704 177.724 91.4899 179.651 87.9318C181.578 84.3736 182.682 80.4285 182.882 76.3871C183.082 72.3456 182.373 68.3107 180.807 64.5797C179.24 60.8487 176.857 57.5166 173.832 54.8288C170.807 52.1411 167.218 50.1661 163.329 49.0496Z" fill="white"/>
<path d="M176.465 92.5951C186.15 81.2118 184.772 64.1334 173.389 54.4493C162.006 44.7652 144.927 46.1427 135.243 57.526C125.559 68.9092 126.936 85.9877 138.32 95.6718C149.703 105.356 166.781 103.978 176.465 92.5951Z" stroke="#263238" stroke-width="1.19148" stroke-linecap="round" stroke-linejoin="round"/>
<path d="M186.201 77.4377L189.071 67.471" stroke="#263238" stroke-width="1.19148" stroke-linecap="round" stroke-linejoin="round"/>
<path d="M191.285 67.0259C191.438 66.4952 191.374 65.9256 191.107 65.4422C190.839 64.9589 190.391 64.6016 189.86 64.4487C189.33 64.2959 188.76 64.3602 188.277 64.6274C187.793 64.8946 187.436 65.3429 187.283 65.8736C187.208 66.1363 187.184 66.4114 187.215 66.6831C187.246 66.9549 187.33 67.2179 187.462 67.4572C187.729 67.9405 188.177 68.2979 188.708 68.4507C189.239 68.6035 189.808 68.5393 190.292 68.2721C190.775 68.0049 191.132 67.5566 191.285 67.0259Z" fill="#263238"/>
<path d="M182.636 89.5764C182.187 89.447 181.768 89.2303 181.403 88.9388C181.038 88.6473 180.734 88.2867 180.508 87.8776C180.283 87.4685 180.14 87.019 180.088 86.5547C180.037 86.0904 180.077 85.6205 180.207 85.1718L182.086 78.5989C182.351 77.6924 182.963 76.9276 183.79 76.4716C184.617 76.0155 185.591 75.9052 186.499 76.1648C186.948 76.2934 187.367 76.5092 187.733 76.7999C188.098 77.0906 188.403 77.4506 188.629 77.8591C188.856 78.2677 188.999 78.7168 189.052 79.1809C189.104 79.645 189.065 80.1149 188.936 80.5638L187.049 87.1423C186.786 88.0503 186.174 88.8168 185.346 89.2733C184.519 89.7298 183.544 89.8388 182.636 89.5764Z" fill="white" stroke="#263238" stroke-width="1.19148" stroke-linecap="round" stroke-linejoin="round"/>
<path d="M178.028 97.9628C178.028 97.9628 167.693 101.379 168.587 110.246C169.482 119.112 184.213 132.968 184.213 132.968C184.213 132.968 184.674 147.613 183.794 149.821C182.913 152.028 178.001 154.559 175.002 159.841C172.002 165.122 175.052 166.499 176.776 166.499C178.501 166.499 180.62 161.7 181.759 161.072C182.898 160.443 184.066 162.473 182.723 169.709C181.379 176.944 179.5 178.343 182.068 179.584C182.785 179.952 183.601 180.079 184.395 179.949C185.19 179.819 185.922 179.438 186.485 178.861C186.669 179.467 187.065 179.986 187.602 180.322C188.139 180.658 188.779 180.789 189.404 180.691C191.722 180.385 192.04 179.234 192.04 179.234C192.04 179.234 193.337 181.571 195.415 181.179C196.94 180.712 198.298 179.816 199.327 178.598C199.327 178.598 202.062 179.387 203.425 178.06C204.788 176.733 205.475 170.04 205.848 164.485C206.22 158.93 208.369 138.637 207.312 127.762C206.255 116.886 198.87 110.087 194.723 105.691C190.575 101.295 182.02 96.8947 178.028 97.9628Z" fill="white"/>
<path d="M194.739 105.717C190.609 101.309 182.02 96.8946 178.027 97.9627L177.789 98.0465C185.532 103.261 191.889 110.282 196.311 118.503C204.526 133.367 198.916 153.069 197.674 159.772C196.682 165.149 195.743 172.386 192.256 179.58C192.577 180.115 193.042 180.548 193.598 180.83C194.154 181.112 194.779 181.232 195.4 181.176C196.925 180.709 198.283 179.813 199.313 178.595C199.313 178.595 202.047 179.384 203.411 178.057C204.774 176.73 205.46 170.037 205.833 164.482C206.206 158.927 208.355 138.634 207.298 127.759C206.24 116.883 198.887 110.113 194.739 105.717Z" fill="#944DFF"/>
<path opacity="0.5" d="M194.739 105.717C190.609 101.309 182.02 96.8946 178.027 97.9627L177.789 98.0465C185.532 103.261 191.889 110.282 196.311 118.503C204.526 133.367 198.916 153.069 197.674 159.772C196.682 165.149 195.743 172.386 192.256 179.58C192.577 180.115 193.042 180.548 193.598 180.83C194.154 181.112 194.779 181.232 195.4 181.176C196.925 180.709 198.283 179.813 199.313 178.595C199.313 178.595 202.047 179.384 203.411 178.057C204.774 176.73 205.46 170.037 205.833 164.482C206.206 158.927 208.355 138.634 207.298 127.759C206.24 116.883 198.887 110.113 194.739 105.717Z" fill="white"/>
<path d="M178.028 97.9628C178.028 97.9628 167.693 101.379 168.587 110.246C169.482 119.112 184.213 132.968 184.213 132.968C184.213 132.968 184.674 147.613 183.794 149.821C182.913 152.028 178.001 154.559 175.002 159.841C172.002 165.122 175.052 166.499 176.776 166.499C178.501 166.499 180.62 161.7 181.759 161.072C182.898 160.443 184.066 162.473 182.723 169.709C181.379 176.944 179.5 178.343 182.068 179.584C182.785 179.952 183.601 180.079 184.395 179.949C185.19 179.819 185.922 179.438 186.485 178.861C186.669 179.467 187.065 179.986 187.602 180.322C188.139 180.658 188.779 180.789 189.404 180.691C191.722 180.385 192.04 179.234 192.04 179.234C192.04 179.234 193.337 181.571 195.415 181.179C196.94 180.712 198.298 179.816 199.327 178.598C199.327 178.598 202.062 179.387 203.425 178.06C204.788 176.733 205.475 170.04 205.848 164.485C206.22 158.93 208.369 138.637 207.312 127.762C206.255 116.886 198.87 110.087 194.723 105.691C190.575 101.295 182.02 96.8947 178.028 97.9628Z" stroke="#263238" stroke-width="1.19148" stroke-linecap="round" stroke-linejoin="round"/>
<path d="M203.433 178.091C204.796 176.764 205.483 170.072 205.856 164.517C206.072 161.377 206.852 153.51 207.297 145.301C198.376 137.73 188.428 140.267 184.311 141.87C184.291 145.382 184.161 148.82 183.777 149.795C182.896 152.002 177.984 154.533 174.985 159.815C171.985 165.097 175.034 166.474 176.759 166.474C178.484 166.473 180.603 161.675 181.742 161.046C182.881 160.417 184.049 162.448 182.705 169.683C181.362 176.919 179.5 178.343 182.068 179.584C182.785 179.951 183.601 180.079 184.395 179.949C185.19 179.819 185.922 179.438 186.484 178.861C186.668 179.467 187.065 179.986 187.602 180.322C188.138 180.658 188.778 180.789 189.404 180.691C191.722 180.385 192.039 179.233 192.039 179.233C192.039 179.233 193.336 181.571 195.414 181.179C196.939 180.712 198.298 179.816 199.327 178.598C199.327 178.598 202.07 179.418 203.433 178.091Z" stroke="#263238" stroke-width="1.19148" stroke-linecap="round" stroke-linejoin="round"/>
<path d="M186.484 178.861C188.619 175.034 190.001 170.834 190.554 166.487" stroke="#263238" stroke-width="1.19148" stroke-linecap="round" stroke-linejoin="round"/>
<path d="M192.031 179.239C194.349 175.33 195.848 170.99 196.438 166.484" stroke="#263238" stroke-width="1.19148" stroke-linecap="round" stroke-linejoin="round"/>
<path d="M199.335 178.629C199.335 178.629 201.821 171.716 202.155 167.141" stroke="#263238" stroke-width="1.19148" stroke-linecap="round" stroke-linejoin="round"/>
<path d="M206.147 122.156C205.899 121.391 205.608 120.653 205.306 119.935C195.019 119.882 187.047 127.38 183.165 131.935C183.807 132.575 184.196 132.942 184.196 132.942L184.242 134.625C193.888 124.286 201.579 122.185 206.147 122.156Z" fill="white" stroke="#263238" stroke-width="1.19148" stroke-linecap="round" stroke-linejoin="round"/>
<path d="M204.042 129.796C205.165 130.118 206.334 130.248 207.501 130.181C207.451 129.345 207.401 128.546 207.357 127.83C206.705 122.115 204.387 116.718 200.691 112.31C198.935 113.583 197.653 115.406 197.049 117.49C196.356 120.049 196.702 122.778 198.011 125.083C199.321 127.388 201.489 129.082 204.042 129.796Z" fill="#944DFF" stroke="#263238" stroke-width="1.19148" stroke-linecap="round" stroke-linejoin="round"/>
<path d="M102.776 151.995C102.776 151.995 113.07 159.885 118.13 157.635C123.191 155.385 124.427 143.462 121.885 136.808C119.343 130.154 111.736 128.469 101.343 126.957C90.9504 125.445 79.3275 128.243 74.31 137.902C69.2924 147.561 65.891 167.922 65.891 167.922C65.891 167.922 54.2952 166.311 52.5983 172.214C50.9014 178.116 62.7068 184.96 69.0675 186.795C75.4283 188.63 86.0401 190.474 91.3552 184.864C96.6702 179.254 93.8717 164.181 95.6662 158.019C97.4606 151.856 101.181 151.543 102.776 151.995Z" fill="white"/>
<path d="M114.59 147.762C105.467 149.009 101.922 139.408 93.513 141.774C85.104 144.14 88.7846 148.478 89.0804 161.017C89.3763 173.557 78.7593 179.753 70.3673 182.108C67.7013 182.847 64.9996 183.449 62.2725 183.913C64.4421 185.14 66.7369 186.132 69.1177 186.872C75.4785 188.707 86.0254 190.508 91.3319 184.904C96.6385 179.299 93.8485 164.221 95.6429 158.058C97.4374 151.896 101.209 151.549 102.795 152.007C102.795 152.007 113.089 159.896 118.15 157.647C123.211 155.397 124.447 143.474 121.905 136.82C121.491 135.729 120.9 134.713 120.155 133.815L119.786 133.96C119.786 133.96 123.681 146.523 114.59 147.762Z" fill="#944DFF"/>
<path opacity="0.5" d="M114.59 147.762C105.467 149.009 101.922 139.408 93.513 141.774C85.104 144.14 88.7846 148.478 89.0804 161.017C89.3763 173.557 78.7593 179.753 70.3673 182.108C67.7013 182.847 64.9996 183.449 62.2725 183.913C64.4421 185.14 66.7369 186.132 69.1177 186.872C75.4785 188.707 86.0254 190.508 91.3319 184.904C96.6385 179.299 93.8485 164.221 95.6429 158.058C97.4374 151.896 101.209 151.549 102.795 152.007C102.795 152.007 113.089 159.896 118.15 157.647C123.211 155.397 124.447 143.474 121.905 136.82C121.491 135.729 120.9 134.713 120.155 133.815L119.786 133.96C119.786 133.96 123.681 146.523 114.59 147.762Z" fill="white"/>
<path d="M102.776 151.995C102.776 151.995 113.07 159.885 118.13 157.635C123.191 155.385 124.427 143.462 121.885 136.808C119.343 130.154 111.736 128.469 101.343 126.957C90.9504 125.445 79.3275 128.243 74.31 137.902C69.2924 147.561 65.891 167.922 65.891 167.922C65.891 167.922 54.2952 166.311 52.5983 172.214C50.9014 178.116 62.7068 184.96 69.0675 186.795C75.4283 188.63 86.0401 190.474 91.3552 184.864C96.6702 179.254 93.8717 164.181 95.6662 158.019C97.4606 151.856 101.181 151.543 102.776 151.995Z" stroke="#263238" stroke-width="1.19148" stroke-linecap="round" stroke-linejoin="round"/>
<path d="M69.7841 150.625C67.3967 159.32 65.9555 167.965 65.9555 167.965C65.9555 167.965 54.3597 166.354 52.6628 172.257C50.9659 178.159 62.7713 185.003 69.1321 186.838C75.4928 188.673 86.0397 190.474 91.3548 184.864C96.1432 179.809 94.2738 167.035 95.2308 160.104C86.3208 158.24 77.7424 155.044 69.7841 150.625V150.625Z" stroke="#263238" stroke-width="1.19148" stroke-linecap="round" stroke-linejoin="round"/>
<path d="M82.9586 129.482C82.2092 129.86 81.481 130.279 80.7773 130.737C87.9906 137.142 93.8233 144.949 97.9196 153.682C98.4806 153.05 99.1746 152.551 99.9517 152.219C96.4339 145.866 90.1764 135.62 82.9586 129.482Z" stroke="#263238" stroke-width="1.19148" stroke-linecap="round" stroke-linejoin="round"/>
<path d="M96.5002 139.608C96.0038 141.312 95.0135 142.83 93.6543 143.971C92.2952 145.112 90.6282 145.825 88.8642 146.019C87.1001 146.213 85.3181 145.88 83.7433 145.062C82.1686 144.243 80.8718 142.977 80.0168 141.421C79.1618 139.866 78.787 138.092 78.9398 136.324C79.0926 134.556 79.7661 132.873 80.8752 131.488C81.9843 130.102 83.4792 129.076 85.171 128.54C86.8628 128.004 88.6755 127.982 90.3801 128.476C91.5134 128.804 92.5708 129.352 93.4919 130.09C94.413 130.827 95.1797 131.739 95.7481 132.773C96.3166 133.807 96.6756 134.943 96.8046 136.115C96.9336 137.288 96.8302 138.475 96.5002 139.608Z" fill="#944DFF" stroke="#263238" stroke-width="1.19148" stroke-linecap="round" stroke-linejoin="round"/>
<path d="M91.3549 184.864C92.5696 183.458 93.4167 181.773 93.8201 179.959C90.2439 183.273 82.6818 187.943 70.5862 184.276C58.8271 180.729 54.6734 174.674 53.1958 171.024C52.9629 171.399 52.7809 171.803 52.6546 172.225C50.9492 178.134 62.7631 184.971 69.1238 186.806C75.4846 188.641 86.0398 190.474 91.3549 184.864Z" stroke="#263238" stroke-width="1.19148" stroke-linecap="round" stroke-linejoin="round"/>
<path d="M147.19 174.688C147.19 174.688 159.576 170.896 160.693 165.486C161.81 160.077 155.767 149.86 145.943 150.322C138.838 150.678 133.286 153.778 125.996 161.327C118.706 168.876 114.259 179.994 119.2 189.653C124.14 199.312 138.777 213.952 138.777 213.952C138.777 213.952 130.74 222.447 134.557 227.269C138.374 232.091 150.809 226.444 155.987 222.332C161.164 218.219 168.777 210.677 167.293 203.105C165.809 195.533 151.909 189.056 147.951 184.058C143.993 179.059 145.896 175.712 147.19 174.688Z" fill="white"/>
<path d="M147.19 174.688C147.19 174.688 159.577 170.896 160.693 165.486C161.424 161.958 159.109 156.427 154.704 153.106C154.704 153.106 158.486 156.985 153.097 162.13C147.708 167.276 136.289 171.627 135.512 180.091C134.734 188.556 148.603 195.727 154.094 202.845C159.585 209.964 159.531 213.535 152.609 219.324C145.687 225.114 135.453 224.158 136.058 228.432C140.955 230.866 151.361 225.983 155.993 222.303C161.179 218.185 168.783 210.649 167.299 203.077C165.815 195.505 151.915 189.028 147.957 184.029C144 179.031 145.896 175.712 147.19 174.688Z" fill="#944DFF"/>
<path opacity="0.5" d="M147.19 174.688C147.19 174.688 159.577 170.896 160.693 165.486C161.424 161.958 159.109 156.427 154.704 153.106C154.704 153.106 158.486 156.985 153.097 162.13C147.708 167.276 136.289 171.627 135.512 180.091C134.734 188.556 148.603 195.727 154.094 202.845C159.585 209.964 159.531 213.535 152.609 219.324C145.687 225.114 135.453 224.158 136.058 228.432C140.955 230.866 151.361 225.983 155.993 222.303C161.179 218.185 168.783 210.649 167.299 203.077C165.815 195.505 151.915 189.028 147.957 184.029C144 179.031 145.896 175.712 147.19 174.688Z" fill="white"/>
<path d="M147.19 174.688C147.19 174.688 159.576 170.896 160.693 165.486C161.81 160.077 155.767 149.86 145.943 150.322C138.838 150.678 133.286 153.778 125.996 161.327C118.706 168.876 114.259 179.994 119.2 189.653C124.14 199.312 138.777 213.952 138.777 213.952C138.777 213.952 130.74 222.447 134.557 227.269C138.374 232.091 150.809 226.444 155.987 222.332C161.164 218.219 168.777 210.677 167.293 203.105C165.809 195.533 151.909 189.056 147.951 184.058C143.993 179.059 145.896 175.712 147.19 174.688Z" stroke="#263238" stroke-width="1.19148" stroke-linecap="round" stroke-linejoin="round"/>
<path d="M126.935 200.784C132.627 207.782 138.817 213.975 138.817 213.975C138.817 213.975 130.78 222.469 134.597 227.292C138.414 232.114 150.85 226.467 156.027 222.354C161.205 218.242 168.818 210.7 167.334 203.128C165.993 196.293 154.577 190.355 149.423 185.583C142.734 191.753 135.153 196.877 126.935 200.784V200.784Z" stroke="#263238" stroke-width="1.19148" stroke-linecap="round" stroke-linejoin="round"/>
<path d="M117.378 177.803C117.251 178.629 117.172 179.461 117.139 180.297C126.531 178.161 136.257 177.95 145.733 179.674C145.56 178.863 145.566 178.024 145.751 177.216C138.525 176.294 126.546 175.437 117.378 177.803Z" stroke="#263238" stroke-width="1.19148" stroke-linecap="round" stroke-linejoin="round"/>
<path d="M133.407 183.875C136.539 180.025 135.957 174.365 132.107 171.233C128.257 168.101 122.597 168.683 119.465 172.533C116.333 176.383 116.915 182.043 120.765 185.175C124.615 188.306 130.275 187.724 133.407 183.875Z" fill="#944DFF" stroke="#263238" stroke-width="1.19148" stroke-linecap="round" stroke-linejoin="round"/>
<path d="M167.311 203.094C166.875 201.287 165.993 199.619 164.746 198.241C165.368 203.079 164.781 211.943 154.797 219.655C145.074 227.17 137.731 227.035 133.906 226.096C134.07 226.507 134.291 226.892 134.563 227.24C138.389 232.057 150.816 226.416 155.993 222.303C161.171 218.191 168.795 210.666 167.311 203.094Z" stroke="#263238" stroke-width="1.19148" stroke-linecap="round" stroke-linejoin="round"/>
<path d="M157.194 60.5214C152.992 59.0495 148.898 57.2863 144.942 55.2448C140.789 57.2501 137.332 60.4544 135.018 64.4438C132.704 68.4332 131.639 73.0246 131.96 77.6253C132.282 82.2261 133.975 86.6249 136.821 90.2539C139.667 93.8828 143.536 96.5754 147.927 97.9839C152.319 99.3924 157.032 99.4522 161.458 98.1555C165.884 96.8589 169.819 94.2654 172.757 90.7098C175.694 87.1541 177.498 82.7997 177.936 78.2086C178.374 73.6175 177.426 69.0005 175.214 64.9537C169.075 64.0792 163.038 62.5944 157.194 60.5214Z" fill="#192124" stroke="#263238" stroke-width="1.19148" stroke-linecap="round" stroke-linejoin="round"/>
<g clip-path="url(#clip0_98_901)">
<path d="M162.887 85.1679C159.548 90.5717 154.363 100.877 157.007 106.263C157.007 106.263 155.645 108.687 145.791 104.951C137.748 101.902 138.872 99.441 138.872 99.441C145.965 100.329 147.61 95.4386 148.179 90.48L162.887 85.1679Z" fill="#744C28"/>
<path opacity="0.2" d="M156.197 88.8933L148.027 91.9758C147.907 93.1309 147.714 93.1945 147.4 94.3127C150.025 94.898 153.907 94.6083 155.149 92.1007C155.686 91.1024 156.041 90.0163 156.197 88.8933Z" fill="black"/>
<path d="M145.877 76.2351C145.375 71.1991 146.265 65.3241 149.015 63.5562C151.766 61.7883 157.085 62.497 158.371 65.7531C159.971 69.8576 153.49 75.8099 145.877 76.2351Z" fill="#263238"/>
<path d="M166.977 79.4831C162.884 86.8793 160.858 91.4273 155.148 93.5016C146.554 96.6285 138.812 88.6563 140.611 80.1832C142.233 72.5781 145.821 64.9569 154.722 65.4657C156.687 65.5742 158.592 66.1834 160.255 67.2354C161.919 68.2875 163.285 69.7473 164.226 71.4764C165.166 73.2054 168.521 71.9089 168.5 73.8769C168.479 75.8449 167.955 77.7747 166.977 79.4831Z" fill="#744C28"/>
<path d="M162.699 86.1203C161.184 81.3262 159.955 74.5859 162.306 72.3087C164.658 70.0315 169.191 70.7836 171.084 73.7383C173.48 77.42 170.075 84.1916 162.699 86.1203Z" fill="#263238"/>
<path d="M150.092 62.3422C144.614 67.0858 159.562 71.9252 165.338 73.4992C165.338 73.4992 163.543 77.288 171.256 74.0273C168.56 63.541 151.043 61.5191 150.092 62.3422Z" fill="#263238"/>
<path d="M166.42 89.5378C165.531 90.1016 164.539 90.484 163.501 90.6632C162.463 90.8423 161.401 90.8147 160.374 90.5818C157.632 89.953 157.607 87.1736 159.496 85.2833C161.196 83.5795 164.677 81.8695 166.886 83.5057C167.364 83.8708 167.743 84.3495 167.989 84.8984C168.234 85.4473 168.338 86.049 168.292 86.6485C168.246 87.248 168.05 87.8264 167.723 88.331C167.396 88.8357 166.948 89.2505 166.42 89.5378Z" fill="#744C28"/>
<path d="M154.431 76.0831C154.141 76.7028 153.57 77.0519 153.163 76.8623C152.757 76.6727 152.67 76.0108 152.937 75.4295C153.204 74.8483 153.798 74.4608 154.199 74.66C154.6 74.8591 154.721 75.4635 154.431 76.0831Z" fill="#263238"/>
<path d="M147.415 72.7482C147.125 73.3679 146.555 73.7169 146.154 73.5178C145.753 73.3186 145.65 72.6605 145.927 72.085C146.204 71.5095 146.788 71.1163 147.195 71.3059C147.601 71.4954 147.711 72.119 147.415 72.7482Z" fill="#263238"/>
<path d="M149.498 74.115C147.856 75.6594 146.008 76.9691 144.007 78.0069C144.285 78.5174 144.674 78.9597 145.144 79.3018C145.615 79.6439 146.155 79.8774 146.726 79.9853L149.498 74.115Z" fill="#5F3E21"/>
<path d="M151.331 83.096C150.111 83.2976 148.858 83.116 147.745 82.5763C147.7 82.5491 147.666 82.5048 147.653 82.4532C147.64 82.4016 147.648 82.3468 147.675 82.301C147.702 82.2552 147.747 82.222 147.798 82.2089C147.85 82.1957 147.905 82.2036 147.951 82.2308C148.714 82.6172 149.558 82.8177 150.414 82.8162C151.27 82.8146 152.114 82.6109 152.876 82.2218C152.898 82.2075 152.923 82.198 152.949 82.1938C152.974 82.1896 153.001 82.1908 153.026 82.1974C153.052 82.2039 153.075 82.2156 153.096 82.2318C153.117 82.248 153.134 82.2683 153.146 82.2914C153.175 82.336 153.184 82.39 153.173 82.4416C153.162 82.4933 153.13 82.5385 153.086 82.5673C152.537 82.8454 151.943 83.0243 151.331 83.096Z" fill="#263238"/>
<path d="M157.858 74.8599C157.756 74.8838 157.65 74.8675 157.56 74.8143C157.471 74.7612 157.405 74.6754 157.378 74.575C157.292 74.0763 157.089 73.6051 156.786 73.1996C156.483 72.7942 156.089 72.466 155.635 72.2417C155.585 72.223 155.538 72.1943 155.499 72.1575C155.46 72.1206 155.429 72.0763 155.407 72.0271C155.386 71.978 155.374 71.925 155.373 71.8713C155.373 71.8176 155.383 71.7642 155.403 71.7145C155.443 71.6147 155.521 71.5346 155.619 71.4913C155.718 71.4479 155.829 71.4447 155.93 71.4823C156.511 71.7541 157.019 72.161 157.41 72.6691C157.802 73.1772 158.066 73.7717 158.181 74.4028C158.194 74.4541 158.197 74.5074 158.19 74.5597C158.182 74.6121 158.164 74.6624 158.137 74.7079C158.11 74.7534 158.075 74.7931 158.032 74.8247C157.99 74.8564 157.942 74.8793 157.89 74.8923L157.858 74.8599Z" fill="#263238"/>
<path d="M145.736 68.9079C145.665 68.9194 145.593 68.9118 145.526 68.8858C145.459 68.8599 145.401 68.8165 145.356 68.7603C145.323 68.72 145.297 68.6732 145.282 68.6227C145.266 68.5723 145.261 68.5192 145.267 68.4668C145.273 68.4144 145.289 68.3636 145.315 68.3176C145.34 68.2716 145.375 68.2313 145.417 68.1992C145.909 67.7875 146.492 67.4992 147.117 67.3582C147.743 67.2172 148.393 67.2275 149.014 67.3884C149.064 67.4055 149.111 67.4323 149.151 67.4674C149.191 67.5025 149.224 67.5451 149.247 67.5928C149.271 67.6405 149.284 67.6924 149.288 67.7455C149.291 67.7985 149.284 67.8518 149.267 67.9021C149.25 67.9525 149.223 67.999 149.188 68.039C149.153 68.0789 149.11 68.1116 149.063 68.1351C149.015 68.1586 148.963 68.1725 148.91 68.1759C148.857 68.1794 148.804 68.1724 148.753 68.1552C148.262 68.0333 147.748 68.03 147.255 68.1458C146.762 68.2615 146.304 68.493 145.918 68.8209C145.865 68.8634 145.802 68.8931 145.736 68.9079Z" fill="#263238"/>
<path d="M157.194 60.5214C152.992 59.0495 148.898 57.2863 144.942 55.2448C140.789 57.2501 137.332 60.4543 135.018 64.4438C132.704 68.4332 131.639 73.0246 131.96 77.6253C132.282 82.2261 133.975 86.6249 136.821 90.2539C139.667 93.8828 143.536 96.5754 147.927 97.9839C152.319 99.3924 157.032 99.4522 161.458 98.1555C165.884 96.8589 169.819 94.2654 172.757 90.7098C175.694 87.1541 177.498 82.7997 177.936 78.2086C178.374 73.6175 177.426 69.0005 175.214 64.9537C169.075 64.0792 163.038 62.5944 157.194 60.5214Z" fill="url(#paint0_linear_98_901)" stroke="#263238" stroke-width="1.19148" stroke-linecap="round" stroke-linejoin="round"/>
</g>
<defs>
<linearGradient id="paint0_linear_98_901" x1="143.995" y1="50.0584" x2="170.028" y2="101.012" gradientUnits="userSpaceOnUse">
<stop stop-color="white" stop-opacity="0.3"/>
<stop offset="0.494792" stop-color="#FBFBFB" stop-opacity="0"/>
<stop offset="1" stop-color="#F8F8F8" stop-opacity="0.15"/>
</linearGradient>
<clipPath id="clip0_98_901">
<rect x="131.284" y="55.4152" width="45.9087" height="44.3784" rx="22.1892" transform="rotate(-3.41124 131.284 55.4152)" fill="white"/>
</clipPath>
</defs>
</svg>
