<svg width="1430" height="702" viewBox="0 0 1430 702" fill="none" xmlns="http://www.w3.org/2000/svg">
<circle cx="1364.27" cy="505.609" r="2.10488" fill="#323239"/>
<circle cx="1327.45" cy="542.424" r="2.10488" fill="#323239"/>
<circle cx="1364.27" cy="579.24" r="2.10488" fill="#323239"/>
<circle cx="1327.45" cy="505.609" r="2.10488" fill="#323239"/>
<circle cx="1364.27" cy="542.424" r="2.10488" fill="#323239"/>
<circle cx="1401.08" cy="579.24" r="2.10488" fill="#323239"/>
<circle cx="1401.08" cy="505.609" r="2.10488" fill="#323239"/>
<circle cx="1401.08" cy="542.424" r="2.10488" fill="#323239"/>
<circle cx="1327.45" cy="579.24" r="2.10488" fill="#323239"/>
<circle cx="1327.45" cy="616.055" r="2.10488" fill="#323239"/>
<circle cx="1327.45" cy="652.87" r="2.10488" fill="#323239"/>
<circle cx="1327.45" cy="689.686" r="2.10488" fill="#323239"/>
<circle cx="1364.27" cy="616.055" r="2.10488" fill="#323239"/>
<circle cx="1364.27" cy="652.87" r="2.10488" fill="#323239"/>
<circle cx="1364.27" cy="689.686" r="2.10488" fill="#323239"/>
<circle cx="1401.08" cy="616.055" r="2.10488" fill="#323239"/>
<circle cx="1401.08" cy="652.87" r="2.10488" fill="#323239"/>
<circle cx="1401.08" cy="689.686" r="2.10488" fill="#323239"/>
<circle cx="1180.19" cy="505.609" r="2.10488" fill="#323239"/>
<circle cx="1180.19" cy="542.424" r="2.10488" fill="#323239"/>
<circle cx="1180.19" cy="579.24" r="2.10488" fill="#323239"/>
<circle cx="1217" cy="505.609" r="2.10488" fill="#323239"/>
<circle cx="1217" cy="542.424" r="2.10488" fill="#323239"/>
<circle cx="1217" cy="579.24" r="2.10488" fill="#323239"/>
<circle cx="1253.82" cy="505.609" r="2.10488" fill="#323239"/>
<circle cx="1253.82" cy="542.424" r="2.10488" fill="#323239"/>
<circle cx="1253.82" cy="579.24" r="2.10488" fill="#323239"/>
<circle cx="1290.64" cy="505.609" r="2.10488" fill="#323239"/>
<circle cx="1290.64" cy="542.424" r="2.10488" fill="#323239"/>
<circle cx="1290.64" cy="579.24" r="2.10488" fill="#323239"/>
<circle cx="1180.19" cy="616.055" r="2.10488" fill="#323239"/>
<circle cx="1180.19" cy="652.87" r="2.10488" fill="#323239"/>
<circle cx="1180.19" cy="689.686" r="2.10488" fill="#323239"/>
<circle cx="1217" cy="616.055" r="2.10488" fill="#323239"/>
<circle cx="1217" cy="652.87" r="2.10488" fill="#323239"/>
<circle cx="1217" cy="689.686" r="2.10488" fill="#323239"/>
<circle cx="1253.82" cy="616.055" r="2.10488" fill="#323239"/>
<circle cx="1253.82" cy="652.87" r="2.10488" fill="#323239"/>
<circle cx="1253.82" cy="689.686" r="2.10488" fill="#323239"/>
<circle cx="1290.64" cy="616.055" r="2.10488" fill="#323239"/>
<circle cx="1290.64" cy="652.87" r="2.10488" fill="#323239"/>
<circle cx="1290.64" cy="689.686" r="2.10488" fill="#323239"/>
<circle cx="1327.45" cy="284.717" r="2.10488" fill="#323239"/>
<circle cx="1327.45" cy="321.532" r="2.10488" fill="#323239"/>
<circle cx="1327.45" cy="358.347" r="2.10488" fill="#323239"/>
<circle cx="1364.27" cy="284.717" r="2.10488" fill="#323239"/>
<circle cx="1364.27" cy="321.532" r="2.10488" fill="#323239"/>
<circle cx="1364.27" cy="358.347" r="2.10488" fill="#323239"/>
<circle cx="1401.08" cy="284.717" r="2.10488" fill="#323239"/>
<circle cx="1401.08" cy="321.532" r="2.10488" fill="#323239"/>
<circle cx="1401.08" cy="358.347" r="2.10488" fill="#323239"/>
<circle cx="1327.45" cy="395.163" r="2.10488" fill="#323239"/>
<circle cx="1327.45" cy="431.978" r="2.10488" fill="#323239"/>
<circle cx="1327.45" cy="468.793" r="2.10488" fill="#323239"/>
<circle cx="1364.27" cy="395.163" r="2.10488" fill="#323239"/>
<circle cx="1364.27" cy="431.978" r="2.10488" fill="#323239"/>
<circle cx="1364.27" cy="468.793" r="2.10488" fill="#323239"/>
<circle cx="1401.08" cy="395.163" r="2.10488" fill="#323239"/>
<circle cx="1401.08" cy="431.978" r="2.10488" fill="#323239"/>
<circle cx="1401.08" cy="468.793" r="2.10488" fill="#323239"/>
<circle cx="1180.19" cy="284.717" r="2.10488" fill="#323239"/>
<circle cx="1180.19" cy="321.532" r="2.10488" fill="#323239"/>
<circle cx="1180.19" cy="358.347" r="2.10488" fill="#323239"/>
<circle cx="1217" cy="284.717" r="2.10488" fill="#323239"/>
<circle cx="1217" cy="321.532" r="2.10488" fill="#323239"/>
<circle cx="1217" cy="358.347" r="2.10488" fill="#323239"/>
<circle cx="1253.82" cy="284.717" r="2.10488" fill="#323239"/>
<circle cx="1253.82" cy="321.532" r="2.10488" fill="#323239"/>
<circle cx="1253.82" cy="358.347" r="2.10488" fill="#323239"/>
<circle cx="1290.64" cy="284.717" r="2.10488" fill="#323239"/>
<circle cx="1290.64" cy="321.532" r="2.10488" fill="#323239"/>
<circle cx="1290.64" cy="358.347" r="2.10488" fill="#323239"/>
<circle cx="1180.19" cy="395.163" r="2.10488" fill="#323239"/>
<circle cx="1180.19" cy="431.978" r="2.10488" fill="#323239"/>
<circle cx="1180.19" cy="468.793" r="2.10488" fill="#323239"/>
<circle cx="1217" cy="395.163" r="2.10488" fill="#323239"/>
<circle cx="1217" cy="431.978" r="2.10488" fill="#323239"/>
<circle cx="1217" cy="468.793" r="2.10488" fill="#323239"/>
<circle cx="1253.82" cy="395.163" r="2.10488" fill="#323239"/>
<circle cx="1253.82" cy="431.978" r="2.10488" fill="#323239"/>
<circle cx="1253.82" cy="468.793" r="2.10488" fill="#323239"/>
<circle cx="1290.64" cy="395.163" r="2.10488" fill="#323239"/>
<circle cx="1290.64" cy="431.978" r="2.10488" fill="#323239"/>
<circle cx="1290.64" cy="468.793" r="2.10488" fill="#323239"/>
<circle cx="1069.74" cy="505.609" r="2.10488" fill="#323239"/>
<circle cx="1032.93" cy="542.424" r="2.10488" fill="#323239"/>
<circle cx="1069.74" cy="579.24" r="2.10488" fill="#323239"/>
<circle cx="1032.93" cy="505.609" r="2.10488" fill="#323239"/>
<circle cx="1069.74" cy="542.424" r="2.10488" fill="#323239"/>
<circle cx="1106.56" cy="579.24" r="2.10488" fill="#323239"/>
<circle cx="1106.56" cy="505.609" r="2.10488" fill="#323239"/>
<circle cx="1106.56" cy="542.424" r="2.10488" fill="#323239"/>
<circle cx="1143.37" cy="579.24" r="2.10488" fill="#323239"/>
<circle cx="1143.37" cy="505.609" r="2.10488" fill="#323239"/>
<circle cx="1143.37" cy="542.424" r="2.10488" fill="#323239"/>
<circle cx="1032.93" cy="579.24" r="2.10488" fill="#323239"/>
<circle cx="1032.93" cy="616.055" r="2.10488" fill="#323239"/>
<circle cx="1032.93" cy="652.87" r="2.10488" fill="#323239"/>
<circle cx="1032.93" cy="689.686" r="2.10488" fill="#323239"/>
<circle cx="1069.74" cy="616.055" r="2.10488" fill="#323239"/>
<circle cx="1069.74" cy="652.87" r="2.10488" fill="#323239"/>
<circle cx="1069.74" cy="689.686" r="2.10488" fill="#323239"/>
<circle cx="1106.56" cy="616.055" r="2.10488" fill="#323239"/>
<circle cx="1106.56" cy="652.87" r="2.10488" fill="#323239"/>
<circle cx="1106.56" cy="689.686" r="2.10488" fill="#323239"/>
<circle cx="1143.37" cy="616.055" r="2.10488" fill="#323239"/>
<circle cx="1143.37" cy="652.87" r="2.10488" fill="#323239"/>
<circle cx="1143.37" cy="689.686" r="2.10488" fill="#323239"/>
<circle cx="885.668" cy="505.609" r="2.10488" fill="#323239"/>
<circle cx="885.668" cy="542.424" r="2.10488" fill="#323239"/>
<circle cx="885.668" cy="579.24" r="2.10488" fill="#323239"/>
<circle cx="922.484" cy="505.609" r="2.10488" fill="#323239"/>
<circle cx="922.484" cy="542.424" r="2.10488" fill="#323239"/>
<circle cx="922.484" cy="579.24" r="2.10488" fill="#323239"/>
<circle cx="959.298" cy="505.609" r="2.10488" fill="#323239"/>
<circle cx="959.298" cy="542.424" r="2.10488" fill="#323239"/>
<circle cx="959.298" cy="579.24" r="2.10488" fill="#323239"/>
<circle cx="996.114" cy="505.609" r="2.10488" fill="#323239"/>
<circle cx="996.114" cy="542.424" r="2.10488" fill="#323239"/>
<circle cx="996.114" cy="579.24" r="2.10488" fill="#323239"/>
<circle cx="885.668" cy="616.055" r="2.10488" fill="#323239"/>
<circle cx="885.668" cy="652.87" r="2.10488" fill="#323239"/>
<circle cx="885.668" cy="689.686" r="2.10488" fill="#323239"/>
<circle cx="922.484" cy="616.055" r="2.10488" fill="#323239"/>
<circle cx="922.484" cy="652.87" r="2.10488" fill="#323239"/>
<circle cx="922.484" cy="689.686" r="2.10488" fill="#323239"/>
<circle cx="959.298" cy="616.055" r="2.10488" fill="#323239"/>
<circle cx="959.298" cy="652.87" r="2.10488" fill="#323239"/>
<circle cx="959.298" cy="689.686" r="2.10488" fill="#323239"/>
<circle cx="996.114" cy="616.055" r="2.10488" fill="#323239"/>
<circle cx="996.114" cy="652.87" r="2.10488" fill="#323239"/>
<circle cx="996.114" cy="689.686" r="2.10488" fill="#323239"/>
<circle cx="1032.93" cy="284.717" r="2.10488" fill="#323239"/>
<circle cx="1032.93" cy="321.532" r="2.10488" fill="#323239"/>
<circle cx="1032.93" cy="358.347" r="2.10488" fill="#323239"/>
<circle cx="1069.74" cy="284.717" r="2.10488" fill="#323239"/>
<circle cx="1069.74" cy="321.532" r="2.10488" fill="#323239"/>
<circle cx="1069.74" cy="358.347" r="2.10488" fill="#323239"/>
<circle cx="1106.56" cy="284.717" r="2.10488" fill="#323239"/>
<circle cx="1106.56" cy="321.532" r="2.10488" fill="#323239"/>
<circle cx="1106.56" cy="358.347" r="2.10488" fill="#323239"/>
<circle cx="1143.37" cy="284.717" r="2.10488" fill="#323239"/>
<circle cx="1143.37" cy="321.532" r="2.10488" fill="#323239"/>
<circle cx="1143.37" cy="358.347" r="2.10488" fill="#323239"/>
<circle cx="1032.93" cy="395.163" r="2.10488" fill="#323239"/>
<circle cx="1032.93" cy="431.978" r="2.10488" fill="#323239"/>
<circle cx="1032.93" cy="468.793" r="2.10488" fill="#323239"/>
<circle cx="1069.74" cy="395.163" r="2.10488" fill="#323239"/>
<circle cx="1069.74" cy="431.978" r="2.10488" fill="#323239"/>
<circle cx="1069.74" cy="468.793" r="2.10488" fill="#323239"/>
<circle cx="1106.56" cy="395.163" r="2.10488" fill="#323239"/>
<circle cx="1106.56" cy="431.978" r="2.10488" fill="#323239"/>
<circle cx="1106.56" cy="468.793" r="2.10488" fill="#323239"/>
<circle cx="1143.37" cy="395.163" r="2.10488" fill="#323239"/>
<circle cx="1143.37" cy="431.978" r="2.10488" fill="#323239"/>
<circle cx="1143.37" cy="468.793" r="2.10488" fill="#323239"/>
<circle cx="885.668" cy="284.717" r="2.10488" fill="#323239"/>
<circle cx="885.668" cy="321.532" r="2.10488" fill="#323239"/>
<circle cx="885.668" cy="358.347" r="2.10488" fill="#323239"/>
<circle cx="922.484" cy="284.717" r="2.10488" fill="#323239"/>
<circle cx="922.484" cy="321.532" r="2.10488" fill="#323239"/>
<circle cx="922.484" cy="358.347" r="2.10488" fill="#323239"/>
<circle cx="959.298" cy="284.717" r="2.10488" fill="#323239"/>
<circle cx="959.298" cy="321.532" r="2.10488" fill="#323239"/>
<circle cx="959.298" cy="358.347" r="2.10488" fill="#323239"/>
<circle cx="996.114" cy="284.717" r="2.10488" fill="#323239"/>
<circle cx="996.114" cy="321.532" r="2.10488" fill="#323239"/>
<circle cx="996.114" cy="358.347" r="2.10488" fill="#323239"/>
<circle cx="885.668" cy="395.163" r="2.10488" fill="#323239"/>
<circle cx="885.668" cy="431.978" r="2.10488" fill="#323239"/>
<circle cx="885.668" cy="468.793" r="2.10488" fill="#323239"/>
<circle cx="922.484" cy="395.163" r="2.10488" fill="#323239"/>
<circle cx="922.484" cy="431.978" r="2.10488" fill="#323239"/>
<circle cx="922.484" cy="468.793" r="2.10488" fill="#323239"/>
<circle cx="959.298" cy="395.163" r="2.10488" fill="#323239"/>
<circle cx="959.298" cy="431.978" r="2.10488" fill="#323239"/>
<circle cx="959.298" cy="468.793" r="2.10488" fill="#323239"/>
<circle cx="996.114" cy="395.163" r="2.10488" fill="#323239"/>
<circle cx="996.114" cy="431.978" r="2.10488" fill="#323239"/>
<circle cx="996.114" cy="468.793" r="2.10488" fill="#323239"/>
<circle cx="775.223" cy="505.609" r="2.10488" fill="#323239"/>
<circle cx="738.408" cy="542.424" r="2.10488" fill="#323239"/>
<circle cx="775.223" cy="579.24" r="2.10488" fill="#323239"/>
<circle cx="738.408" cy="505.609" r="2.10488" fill="#323239"/>
<circle cx="775.223" cy="542.424" r="2.10488" fill="#323239"/>
<circle cx="812.037" cy="579.24" r="2.10488" fill="#323239"/>
<circle cx="812.037" cy="505.609" r="2.10488" fill="#323239"/>
<circle cx="812.037" cy="542.424" r="2.10488" fill="#323239"/>
<circle cx="848.853" cy="579.24" r="2.10488" fill="#323239"/>
<circle cx="848.853" cy="505.609" r="2.10488" fill="#323239"/>
<circle cx="848.853" cy="542.424" r="2.10488" fill="#323239"/>
<circle cx="738.408" cy="579.24" r="2.10488" fill="#323239"/>
<circle cx="738.408" cy="616.055" r="2.10488" fill="#323239"/>
<circle cx="738.408" cy="652.87" r="2.10488" fill="#323239"/>
<circle cx="738.408" cy="689.686" r="2.10488" fill="#323239"/>
<circle cx="775.223" cy="616.055" r="2.10488" fill="#323239"/>
<circle cx="775.223" cy="652.87" r="2.10488" fill="#323239"/>
<circle cx="775.223" cy="689.686" r="2.10488" fill="#323239"/>
<circle cx="812.037" cy="616.055" r="2.10488" fill="#323239"/>
<circle cx="812.037" cy="652.87" r="2.10488" fill="#323239"/>
<circle cx="812.037" cy="689.686" r="2.10488" fill="#323239"/>
<circle cx="848.853" cy="616.055" r="2.10488" fill="#323239"/>
<circle cx="848.853" cy="652.87" r="2.10488" fill="#323239"/>
<circle cx="848.853" cy="689.686" r="2.10488" fill="#323239"/>
<circle cx="591.147" cy="505.609" r="2.10488" fill="#323239"/>
<circle cx="591.147" cy="542.424" r="2.10488" fill="#323239"/>
<circle cx="591.147" cy="579.24" r="2.10488" fill="#323239"/>
<circle cx="627.962" cy="505.609" r="2.10488" fill="#323239"/>
<circle cx="627.962" cy="542.424" r="2.10488" fill="#323239"/>
<circle cx="627.962" cy="579.24" r="2.10488" fill="#323239"/>
<circle cx="664.777" cy="505.609" r="2.10488" fill="#323239"/>
<circle cx="664.777" cy="542.424" r="2.10488" fill="#323239"/>
<circle cx="664.777" cy="579.24" r="2.10488" fill="#323239"/>
<circle cx="701.592" cy="505.609" r="2.10488" fill="#323239"/>
<circle cx="701.592" cy="542.424" r="2.10488" fill="#323239"/>
<circle cx="701.592" cy="579.24" r="2.10488" fill="#323239"/>
<circle cx="591.147" cy="616.055" r="2.10488" fill="#323239"/>
<circle cx="591.147" cy="652.87" r="2.10488" fill="#323239"/>
<circle cx="591.147" cy="689.686" r="2.10488" fill="#323239"/>
<circle cx="627.962" cy="616.055" r="2.10488" fill="#323239"/>
<circle cx="627.962" cy="652.87" r="2.10488" fill="#323239"/>
<circle cx="627.962" cy="689.686" r="2.10488" fill="#323239"/>
<circle cx="664.777" cy="616.055" r="2.10488" fill="#323239"/>
<circle cx="664.777" cy="652.87" r="2.10488" fill="#323239"/>
<circle cx="664.777" cy="689.686" r="2.10488" fill="#323239"/>
<circle cx="701.592" cy="616.055" r="2.10488" fill="#323239"/>
<circle cx="701.592" cy="652.87" r="2.10488" fill="#323239"/>
<circle cx="701.592" cy="689.686" r="2.10488" fill="#323239"/>
<circle cx="738.408" cy="284.717" r="2.10488" fill="#323239"/>
<circle cx="738.408" cy="321.532" r="2.10488" fill="#323239"/>
<circle cx="738.408" cy="358.347" r="2.10488" fill="#323239"/>
<circle cx="775.223" cy="284.717" r="2.10488" fill="#323239"/>
<circle cx="775.223" cy="321.532" r="2.10488" fill="#323239"/>
<circle cx="775.223" cy="358.347" r="2.10488" fill="#323239"/>
<circle cx="812.037" cy="284.717" r="2.10488" fill="#323239"/>
<circle cx="812.037" cy="321.532" r="2.10488" fill="#323239"/>
<circle cx="812.037" cy="358.347" r="2.10488" fill="#323239"/>
<circle cx="848.853" cy="284.717" r="2.10488" fill="#323239"/>
<circle cx="848.853" cy="321.532" r="2.10488" fill="#323239"/>
<circle cx="848.853" cy="358.347" r="2.10488" fill="#323239"/>
<circle cx="738.408" cy="395.163" r="2.10488" fill="#323239"/>
<circle cx="738.408" cy="431.978" r="2.10488" fill="#323239"/>
<circle cx="738.408" cy="468.793" r="2.10488" fill="#323239"/>
<circle cx="775.223" cy="395.163" r="2.10488" fill="#323239"/>
<circle cx="775.223" cy="431.978" r="2.10488" fill="#323239"/>
<circle cx="775.223" cy="468.793" r="2.10488" fill="#323239"/>
<circle cx="812.037" cy="395.163" r="2.10488" fill="#323239"/>
<circle cx="812.037" cy="431.978" r="2.10488" fill="#323239"/>
<circle cx="812.037" cy="468.793" r="2.10488" fill="#323239"/>
<circle cx="848.853" cy="395.163" r="2.10488" fill="#323239"/>
<circle cx="848.853" cy="431.978" r="2.10488" fill="#323239"/>
<circle cx="848.853" cy="468.793" r="2.10488" fill="#323239"/>
<circle cx="591.147" cy="284.717" r="2.10488" fill="#323239"/>
<circle cx="591.147" cy="321.532" r="2.10488" fill="#323239"/>
<circle cx="591.147" cy="358.347" r="2.10488" fill="#323239"/>
<circle cx="627.962" cy="284.717" r="2.10488" fill="#323239"/>
<circle cx="627.962" cy="321.532" r="2.10488" fill="#323239"/>
<circle cx="627.962" cy="358.347" r="2.10488" fill="#323239"/>
<circle cx="664.777" cy="284.717" r="2.10488" fill="#323239"/>
<circle cx="664.777" cy="321.532" r="2.10488" fill="#323239"/>
<circle cx="664.777" cy="358.347" r="2.10488" fill="#323239"/>
<circle cx="701.592" cy="284.717" r="2.10488" fill="#323239"/>
<circle cx="701.592" cy="321.532" r="2.10488" fill="#323239"/>
<circle cx="701.592" cy="358.347" r="2.10488" fill="#323239"/>
<circle cx="591.147" cy="395.163" r="2.10488" fill="#323239"/>
<circle cx="591.147" cy="431.978" r="2.10488" fill="#323239"/>
<circle cx="591.147" cy="468.793" r="2.10488" fill="#323239"/>
<circle cx="627.962" cy="395.163" r="2.10488" fill="#323239"/>
<circle cx="627.962" cy="431.978" r="2.10488" fill="#323239"/>
<circle cx="627.962" cy="468.793" r="2.10488" fill="#323239"/>
<circle cx="664.777" cy="395.163" r="2.10488" fill="#323239"/>
<circle cx="664.777" cy="431.978" r="2.10488" fill="#323239"/>
<circle cx="664.777" cy="468.793" r="2.10488" fill="#323239"/>
<circle cx="701.592" cy="395.163" r="2.10488" fill="#323239"/>
<circle cx="701.592" cy="431.978" r="2.10488" fill="#323239"/>
<circle cx="701.592" cy="468.793" r="2.10488" fill="#323239"/>
<circle cx="480.703" cy="505.609" r="2.10488" fill="#323239"/>
<circle cx="443.887" cy="542.424" r="2.10488" fill="#323239"/>
<circle cx="480.703" cy="579.24" r="2.10488" fill="#323239"/>
<circle cx="443.887" cy="505.609" r="2.10488" fill="#323239"/>
<circle cx="480.703" cy="542.424" r="2.10488" fill="#323239"/>
<circle cx="517.517" cy="579.24" r="2.10488" fill="#323239"/>
<circle cx="517.517" cy="505.609" r="2.10488" fill="#323239"/>
<circle cx="517.517" cy="542.424" r="2.10488" fill="#323239"/>
<circle cx="554.332" cy="579.24" r="2.10488" fill="#323239"/>
<circle cx="554.332" cy="505.609" r="2.10488" fill="#323239"/>
<circle cx="554.332" cy="542.424" r="2.10488" fill="#323239"/>
<circle cx="443.887" cy="579.24" r="2.10488" fill="#323239"/>
<circle cx="443.887" cy="616.055" r="2.10488" fill="#323239"/>
<circle cx="443.887" cy="652.87" r="2.10488" fill="#323239"/>
<circle cx="443.887" cy="689.686" r="2.10488" fill="#323239"/>
<circle cx="480.703" cy="616.055" r="2.10488" fill="#323239"/>
<circle cx="480.703" cy="652.87" r="2.10488" fill="#323239"/>
<circle cx="480.703" cy="689.686" r="2.10488" fill="#323239"/>
<circle cx="517.517" cy="616.055" r="2.10488" fill="#323239"/>
<circle cx="517.517" cy="652.87" r="2.10488" fill="#323239"/>
<circle cx="517.517" cy="689.686" r="2.10488" fill="#323239"/>
<circle cx="554.332" cy="616.055" r="2.10488" fill="#323239"/>
<circle cx="554.332" cy="652.87" r="2.10488" fill="#323239"/>
<circle cx="554.332" cy="689.686" r="2.10488" fill="#323239"/>
<circle cx="296.626" cy="505.609" r="2.10488" fill="#323239"/>
<circle cx="296.626" cy="542.424" r="2.10488" fill="#323239"/>
<circle cx="296.626" cy="579.24" r="2.10488" fill="#323239"/>
<circle cx="333.442" cy="505.609" r="2.10488" fill="#323239"/>
<circle cx="333.442" cy="542.424" r="2.10488" fill="#323239"/>
<circle cx="333.442" cy="579.24" r="2.10488" fill="#323239"/>
<circle cx="370.256" cy="505.609" r="2.10488" fill="#323239"/>
<circle cx="370.256" cy="542.424" r="2.10488" fill="#323239"/>
<circle cx="370.256" cy="579.24" r="2.10488" fill="#323239"/>
<circle cx="407.072" cy="505.609" r="2.10488" fill="#323239"/>
<circle cx="407.072" cy="542.424" r="2.10488" fill="#323239"/>
<circle cx="407.072" cy="579.24" r="2.10488" fill="#323239"/>
<circle cx="296.626" cy="616.055" r="2.10488" fill="#323239"/>
<circle cx="296.626" cy="652.87" r="2.10488" fill="#323239"/>
<circle cx="296.626" cy="689.686" r="2.10488" fill="#323239"/>
<circle cx="333.442" cy="616.055" r="2.10488" fill="#323239"/>
<circle cx="333.442" cy="652.87" r="2.10488" fill="#323239"/>
<circle cx="333.442" cy="689.686" r="2.10488" fill="#323239"/>
<circle cx="370.256" cy="616.055" r="2.10488" fill="#323239"/>
<circle cx="370.256" cy="652.87" r="2.10488" fill="#323239"/>
<circle cx="370.256" cy="689.686" r="2.10488" fill="#323239"/>
<circle cx="407.072" cy="616.055" r="2.10488" fill="#323239"/>
<circle cx="407.072" cy="652.87" r="2.10488" fill="#323239"/>
<circle cx="407.072" cy="689.686" r="2.10488" fill="#323239"/>
<circle cx="443.887" cy="284.717" r="2.10488" fill="#323239"/>
<circle cx="443.887" cy="321.532" r="2.10488" fill="#323239"/>
<circle cx="443.887" cy="358.347" r="2.10488" fill="#323239"/>
<circle cx="480.703" cy="284.717" r="2.10488" fill="#323239"/>
<circle cx="480.703" cy="321.532" r="2.10488" fill="#323239"/>
<circle cx="480.703" cy="358.347" r="2.10488" fill="#323239"/>
<circle cx="517.517" cy="284.717" r="2.10488" fill="#323239"/>
<circle cx="517.517" cy="321.532" r="2.10488" fill="#323239"/>
<circle cx="517.517" cy="358.347" r="2.10488" fill="#323239"/>
<circle cx="554.332" cy="284.717" r="2.10488" fill="#323239"/>
<circle cx="554.332" cy="321.532" r="2.10488" fill="#323239"/>
<circle cx="554.332" cy="358.347" r="2.10488" fill="#323239"/>
<circle cx="443.887" cy="395.163" r="2.10488" fill="#323239"/>
<circle cx="443.887" cy="431.978" r="2.10488" fill="#323239"/>
<circle cx="443.887" cy="468.793" r="2.10488" fill="#323239"/>
<circle cx="480.703" cy="395.163" r="2.10488" fill="#323239"/>
<circle cx="480.703" cy="431.978" r="2.10488" fill="#323239"/>
<circle cx="480.703" cy="468.793" r="2.10488" fill="#323239"/>
<circle cx="517.517" cy="395.163" r="2.10488" fill="#323239"/>
<circle cx="517.517" cy="431.978" r="2.10488" fill="#323239"/>
<circle cx="517.517" cy="468.793" r="2.10488" fill="#323239"/>
<circle cx="554.332" cy="395.163" r="2.10488" fill="#323239"/>
<circle cx="554.332" cy="431.978" r="2.10488" fill="#323239"/>
<circle cx="554.332" cy="468.793" r="2.10488" fill="#323239"/>
<circle cx="296.626" cy="284.717" r="2.10488" fill="#323239"/>
<circle cx="296.626" cy="321.532" r="2.10488" fill="#323239"/>
<circle cx="296.626" cy="358.347" r="2.10488" fill="#323239"/>
<circle cx="333.442" cy="284.717" r="2.10488" fill="#323239"/>
<circle cx="333.442" cy="321.532" r="2.10488" fill="#323239"/>
<circle cx="333.442" cy="358.347" r="2.10488" fill="#323239"/>
<circle cx="370.256" cy="284.717" r="2.10488" fill="#323239"/>
<circle cx="370.256" cy="321.532" r="2.10488" fill="#323239"/>
<circle cx="370.256" cy="358.347" r="2.10488" fill="#323239"/>
<circle cx="407.072" cy="284.717" r="2.10488" fill="#323239"/>
<circle cx="407.072" cy="321.532" r="2.10488" fill="#323239"/>
<circle cx="407.072" cy="358.347" r="2.10488" fill="#323239"/>
<circle cx="296.626" cy="395.163" r="2.10488" fill="#323239"/>
<circle cx="296.626" cy="431.978" r="2.10488" fill="#323239"/>
<circle cx="296.626" cy="468.793" r="2.10488" fill="#323239"/>
<circle cx="333.442" cy="395.163" r="2.10488" fill="#323239"/>
<circle cx="333.442" cy="431.978" r="2.10488" fill="#323239"/>
<circle cx="333.442" cy="468.793" r="2.10488" fill="#323239"/>
<circle cx="370.256" cy="395.163" r="2.10488" fill="#323239"/>
<circle cx="370.256" cy="431.978" r="2.10488" fill="#323239"/>
<circle cx="370.256" cy="468.793" r="2.10488" fill="#323239"/>
<circle cx="407.072" cy="395.163" r="2.10488" fill="#323239"/>
<circle cx="407.072" cy="431.978" r="2.10488" fill="#323239"/>
<circle cx="407.072" cy="468.793" r="2.10488" fill="#323239"/>
<circle cx="186.181" cy="505.609" r="2.10488" fill="#323239"/>
<circle cx="149.365" cy="542.424" r="2.10488" fill="#323239"/>
<circle cx="186.181" cy="579.24" r="2.10488" fill="#323239"/>
<circle cx="149.365" cy="505.609" r="2.10488" fill="#323239"/>
<circle cx="186.181" cy="542.424" r="2.10488" fill="#323239"/>
<circle cx="222.996" cy="579.24" r="2.10488" fill="#323239"/>
<circle cx="222.996" cy="505.609" r="2.10488" fill="#323239"/>
<circle cx="222.996" cy="542.424" r="2.10488" fill="#323239"/>
<circle cx="259.811" cy="579.24" r="2.10488" fill="#323239"/>
<circle cx="259.811" cy="505.609" r="2.10488" fill="#323239"/>
<circle cx="259.811" cy="542.424" r="2.10488" fill="#323239"/>
<circle cx="149.365" cy="579.24" r="2.10488" fill="#323239"/>
<circle cx="149.365" cy="616.055" r="2.10488" fill="#323239"/>
<circle cx="149.365" cy="652.87" r="2.10488" fill="#323239"/>
<circle cx="149.365" cy="689.686" r="2.10488" fill="#323239"/>
<circle cx="186.181" cy="616.055" r="2.10488" fill="#323239"/>
<circle cx="186.181" cy="652.87" r="2.10488" fill="#323239"/>
<circle cx="186.181" cy="689.686" r="2.10488" fill="#323239"/>
<circle cx="222.996" cy="616.055" r="2.10488" fill="#323239"/>
<circle cx="222.996" cy="652.87" r="2.10488" fill="#323239"/>
<circle cx="222.996" cy="689.686" r="2.10488" fill="#323239"/>
<circle cx="259.811" cy="616.055" r="2.10488" fill="#323239"/>
<circle cx="259.811" cy="652.87" r="2.10488" fill="#323239"/>
<circle cx="259.811" cy="689.686" r="2.10488" fill="#323239"/>
<circle cx="2.10488" cy="505.609" r="2.10488" fill="#323239"/>
<circle cx="2.10488" cy="542.424" r="2.10488" fill="#323239"/>
<circle cx="2.10488" cy="579.24" r="2.10488" fill="#323239"/>
<circle cx="38.9203" cy="505.609" r="2.10488" fill="#323239"/>
<circle cx="38.9203" cy="542.424" r="2.10488" fill="#323239"/>
<circle cx="38.9203" cy="579.24" r="2.10488" fill="#323239"/>
<circle cx="75.7348" cy="505.609" r="2.10488" fill="#323239"/>
<circle cx="75.7348" cy="542.424" r="2.10488" fill="#323239"/>
<circle cx="75.7348" cy="579.24" r="2.10488" fill="#323239"/>
<circle cx="112.55" cy="505.609" r="2.10488" fill="#323239"/>
<circle cx="112.55" cy="542.424" r="2.10488" fill="#323239"/>
<circle cx="112.55" cy="579.24" r="2.10488" fill="#323239"/>
<circle cx="2.10488" cy="616.055" r="2.10488" fill="#323239"/>
<circle cx="2.10488" cy="652.87" r="2.10488" fill="#323239"/>
<circle cx="2.10488" cy="689.686" r="2.10488" fill="#323239"/>
<circle cx="38.9203" cy="616.055" r="2.10488" fill="#323239"/>
<circle cx="38.9203" cy="652.87" r="2.10488" fill="#323239"/>
<circle cx="38.9203" cy="689.686" r="2.10488" fill="#323239"/>
<circle cx="75.7348" cy="616.055" r="2.10488" fill="#323239"/>
<circle cx="75.7348" cy="652.87" r="2.10488" fill="#323239"/>
<circle cx="75.7348" cy="689.686" r="2.10488" fill="#323239"/>
<circle cx="112.55" cy="616.055" r="2.10488" fill="#323239"/>
<circle cx="112.55" cy="652.87" r="2.10488" fill="#323239"/>
<circle cx="112.55" cy="689.686" r="2.10488" fill="#323239"/>
<circle cx="149.365" cy="284.717" r="2.10488" fill="#323239"/>
<circle cx="149.365" cy="321.532" r="2.10488" fill="#323239"/>
<circle cx="149.365" cy="358.347" r="2.10488" fill="#323239"/>
<circle cx="186.181" cy="284.717" r="2.10488" fill="#323239"/>
<circle cx="186.181" cy="321.532" r="2.10488" fill="#323239"/>
<circle cx="186.181" cy="358.347" r="2.10488" fill="#323239"/>
<circle cx="222.996" cy="284.717" r="2.10488" fill="#323239"/>
<circle cx="222.996" cy="321.532" r="2.10488" fill="#323239"/>
<circle cx="222.996" cy="358.347" r="2.10488" fill="#323239"/>
<circle cx="259.811" cy="284.717" r="2.10488" fill="#323239"/>
<circle cx="259.811" cy="321.532" r="2.10488" fill="#323239"/>
<circle cx="259.811" cy="358.347" r="2.10488" fill="#323239"/>
<circle cx="149.365" cy="395.163" r="2.10488" fill="#323239"/>
<circle cx="149.365" cy="431.978" r="2.10488" fill="#323239"/>
<circle cx="149.365" cy="468.793" r="2.10488" fill="#323239"/>
<circle cx="186.181" cy="395.163" r="2.10488" fill="#323239"/>
<circle cx="186.181" cy="431.978" r="2.10488" fill="#323239"/>
<circle cx="186.181" cy="468.793" r="2.10488" fill="#323239"/>
<circle cx="222.996" cy="395.163" r="2.10488" fill="#323239"/>
<circle cx="222.996" cy="431.978" r="2.10488" fill="#323239"/>
<circle cx="222.996" cy="468.793" r="2.10488" fill="#323239"/>
<circle cx="259.811" cy="395.163" r="2.10488" fill="#323239"/>
<circle cx="259.811" cy="431.978" r="2.10488" fill="#323239"/>
<circle cx="259.811" cy="468.793" r="2.10488" fill="#323239"/>
<circle cx="2.10488" cy="284.717" r="2.10488" fill="#323239"/>
<circle cx="2.10488" cy="321.532" r="2.10488" fill="#323239"/>
<circle cx="2.10488" cy="358.347" r="2.10488" fill="#323239"/>
<circle cx="38.9203" cy="284.717" r="2.10488" fill="#323239"/>
<circle cx="38.9203" cy="321.532" r="2.10488" fill="#323239"/>
<circle cx="38.9203" cy="358.347" r="2.10488" fill="#323239"/>
<circle cx="75.7348" cy="284.717" r="2.10488" fill="#323239"/>
<circle cx="75.7348" cy="321.532" r="2.10488" fill="#323239"/>
<circle cx="75.7348" cy="358.347" r="2.10488" fill="#323239"/>
<circle cx="112.55" cy="284.717" r="2.10488" fill="#323239"/>
<circle cx="112.55" cy="321.532" r="2.10488" fill="#323239"/>
<circle cx="112.55" cy="358.347" r="2.10488" fill="#323239"/>
<circle cx="2.10488" cy="395.163" r="2.10488" fill="#323239"/>
<circle cx="2.10488" cy="431.978" r="2.10488" fill="#323239"/>
<circle cx="2.10488" cy="468.793" r="2.10488" fill="#323239"/>
<circle cx="38.9203" cy="395.163" r="2.10488" fill="#323239"/>
<circle cx="38.9203" cy="431.978" r="2.10488" fill="#323239"/>
<circle cx="38.9203" cy="468.793" r="2.10488" fill="#323239"/>
<circle cx="75.7348" cy="395.163" r="2.10488" fill="#323239"/>
<circle cx="75.7348" cy="431.978" r="2.10488" fill="#323239"/>
<circle cx="75.7348" cy="468.793" r="2.10488" fill="#323239"/>
<circle cx="112.55" cy="395.163" r="2.10488" fill="#323239"/>
<circle cx="112.55" cy="431.978" r="2.10488" fill="#323239"/>
<circle cx="112.55" cy="468.793" r="2.10488" fill="#323239"/>
<rect width="1437" height="702" transform="matrix(1 1.74846e-07 1.7241e-07 -1 1 702)" fill="url(#paint0_linear_129_2)"/>
<defs>
<linearGradient id="paint0_linear_129_2" x1="718.5" y1="702" x2="718.086" y2="-354.557" gradientUnits="userSpaceOnUse">
<stop offset="0.243522" stop-color="#141414"/>
<stop offset="0.712515" stop-color="#141414" stop-opacity="0"/>
</linearGradient>
</defs>
</svg>
