<svg width="323" height="309" viewBox="0 0 323 309" fill="none" xmlns="http://www.w3.org/2000/svg">
<circle opacity="0.2" cx="161.5" cy="154.5" r="154.5" fill="url(#paint0_radial_233_11)"/>
<circle opacity="0.25" cx="129.073" cy="43.9414" r="5.49303" fill="url(#paint1_radial_233_11)"/>
<path d="M129.051 41.3556C129.051 41.3332 129.094 41.3351 129.094 41.3556C129.094 42.1617 129.42 43.3485 130.2 43.774C130.237 43.7938 130.24 43.8446 130.2 43.8636C129.355 44.2667 129.208 45.3415 129.094 46.2372C129.092 46.2582 129.055 46.2617 129.051 46.2372C128.921 45.3863 128.726 44.2667 127.945 43.8636C127.909 43.8448 127.904 43.8008 127.945 43.774C128.639 43.3261 128.997 42.1841 129.051 41.3556Z" fill="#C7C7CC"/>
<circle opacity="0.25" cx="56.1657" cy="81.3937" r="9.48797" fill="url(#paint2_radial_233_11)"/>
<path d="M56.1284 76.9273C56.1284 76.8886 56.2033 76.892 56.2033 76.9273C56.2033 78.3198 56.7651 80.3697 58.1135 81.1046C58.1763 81.1389 58.1824 81.2265 58.1135 81.2593C56.6528 81.9556 56.4004 83.8122 56.2033 85.3593C56.1987 85.3956 56.1349 85.4015 56.1284 85.3593C55.9037 83.8895 55.5667 81.9556 54.2184 81.2593C54.1558 81.227 54.1467 81.1509 54.2184 81.1046C55.4168 80.3311 56.0356 78.3584 56.1284 76.9273Z" fill="#C7C7CC"/>
<circle opacity="0.25" cx="286.031" cy="244.344" r="8.14691" fill="url(#paint3_radial_233_11)"/>
<path d="M286 240.509C286 240.476 286.064 240.479 286.064 240.509C286.064 241.705 286.546 243.465 287.704 244.096C287.758 244.125 287.763 244.201 287.704 244.229C286.45 244.827 286.233 246.421 286.064 247.749C286.06 247.78 286.005 247.785 286 247.749C285.807 246.487 285.517 244.827 284.36 244.229C284.306 244.201 284.298 244.136 284.36 244.096C285.389 243.432 285.92 241.738 286 240.509Z" fill="#C7C7CC"/>
<circle opacity="0.25" cx="227.448" cy="270.154" r="11.4854" fill="url(#paint4_radial_233_11)"/>
<path d="M227.404 264.748C227.404 264.701 227.495 264.705 227.495 264.748C227.495 266.433 228.175 268.915 229.807 269.804C229.883 269.846 229.89 269.952 229.807 269.992C228.039 270.834 227.733 273.082 227.495 274.955C227.489 274.999 227.412 275.006 227.404 274.955C227.132 273.176 226.724 270.834 225.092 269.992C225.016 269.952 225.005 269.86 225.092 269.804C226.543 268.868 227.292 266.48 227.404 264.748Z" fill="#C7C7CC"/>
<circle opacity="0.25" cx="245.083" cy="216.879" r="6.14945" fill="url(#paint5_radial_233_11)"/>
<path d="M245.06 213.985C245.06 213.959 245.108 213.962 245.108 213.985C245.108 214.887 245.472 216.216 246.346 216.692C246.387 216.714 246.391 216.771 246.346 216.792C245.4 217.244 245.236 218.447 245.108 219.45C245.105 219.473 245.064 219.477 245.06 219.45C244.914 218.497 244.696 217.244 243.822 216.792C243.781 216.771 243.775 216.722 243.822 216.692C244.598 216.191 245 214.912 245.06 213.985Z" fill="#C7C7CC"/>
<circle opacity="0.25" cx="299.107" cy="194.315" r="4.74399" fill="url(#paint6_radial_233_11)"/>
<path d="M299.089 192.082C299.089 192.062 299.127 192.064 299.127 192.082C299.127 192.778 299.407 193.803 300.082 194.17C300.113 194.188 300.116 194.231 300.082 194.248C299.351 194.596 299.225 195.524 299.127 196.298C299.124 196.316 299.092 196.319 299.089 196.298C298.977 195.563 298.808 194.596 298.134 194.248C298.103 194.232 298.098 194.194 298.134 194.17C298.733 193.784 299.043 192.797 299.089 192.082Z" fill="#C7C7CC"/>
<circle opacity="0.25" cx="41.3422" cy="155.956" r="8.14691" fill="url(#paint7_radial_233_11)"/>
<path d="M41.3103 152.121C41.3103 152.088 41.3746 152.091 41.3746 152.121C41.3746 153.317 41.857 155.077 43.0148 155.708C43.0687 155.737 43.0739 155.813 43.0148 155.841C41.7606 156.439 41.5439 158.033 41.3746 159.361C41.3707 159.392 41.3158 159.398 41.3103 159.361C41.1173 158.099 40.828 156.439 39.6703 155.841C39.6165 155.813 39.6087 155.748 39.6703 155.708C40.6993 155.044 41.2306 153.35 41.3103 152.121Z" fill="#C7C7CC"/>
<circle opacity="0.25" cx="99.3606" cy="41.1948" r="8.23955" fill="url(#paint8_radial_233_11)"/>
<path d="M99.3285 37.316C99.3285 37.2824 99.3935 37.2853 99.3935 37.316C99.3935 38.5252 99.8814 40.3055 101.052 40.9437C101.107 40.9734 101.112 41.0495 101.052 41.078C99.7839 41.6826 99.5647 43.2949 99.3935 44.6385C99.3895 44.67 99.3341 44.6752 99.3285 44.6385C99.1333 43.3621 98.8407 41.6826 97.6698 41.078C97.6154 41.0499 97.6075 40.9839 97.6698 40.9437C98.7105 40.2719 99.2479 38.5588 99.3285 37.316Z" fill="#C7C7CC"/>
<circle opacity="0.25" cx="120.085" cy="79.8957" r="5.49303" fill="url(#paint9_radial_233_11)"/>
<path d="M120.063 77.3099C120.063 77.2875 120.106 77.2894 120.106 77.3099C120.106 78.1161 120.431 79.3029 121.212 79.7284C121.248 79.7482 121.252 79.7989 121.212 79.8179C120.366 80.221 120.22 81.2959 120.106 82.1916C120.103 82.2126 120.066 82.216 120.063 82.1916C119.933 81.3407 119.738 80.221 118.957 79.8179C118.921 79.7992 118.915 79.7552 118.957 79.7284C119.651 79.2805 120.009 78.1384 120.063 77.3099Z" fill="#C7C7CC"/>
<circle opacity="0.25" cx="201.046" cy="56.1755" r="6.74145" fill="url(#paint10_radial_233_11)"/>
<path d="M201.02 53.002C201.02 52.9746 201.073 52.9769 201.073 53.002C201.073 53.9914 201.472 55.448 202.43 55.9701C202.475 55.9945 202.479 56.0567 202.43 56.0801C201.393 56.5747 201.213 57.8939 201.073 58.9932C201.07 59.0189 201.024 59.0232 201.02 58.9932C200.86 57.9489 200.621 56.5747 199.663 56.0801C199.618 56.0571 199.612 56.003 199.663 55.9701C200.514 55.4205 200.954 54.0189 201.02 53.002Z" fill="#C7C7CC"/>
<circle opacity="0.25" cx="95.2729" cy="239.85" r="8.14691" fill="url(#paint11_radial_233_11)"/>
<path d="M95.2429 236.015C95.2429 235.982 95.3072 235.984 95.3072 236.015C95.3072 237.21 95.7896 238.971 96.9474 239.602C97.0014 239.631 97.0066 239.706 96.9474 239.735C95.6932 240.332 95.4765 241.927 95.3072 243.255C95.3033 243.286 95.2485 243.291 95.2429 243.255C95.05 241.993 94.7606 240.332 93.6029 239.735C93.5491 239.707 93.5413 239.641 93.6029 239.602C94.6319 238.937 95.1632 237.244 95.2429 236.015Z" fill="#C7C7CC"/>
<circle opacity="0.25" cx="97.77" cy="195.406" r="8.14691" fill="url(#paint12_radial_233_11)"/>
<path d="M97.738 191.571C97.738 191.538 97.8024 191.541 97.8024 191.571C97.8024 192.767 98.2847 194.527 99.4425 195.158C99.4965 195.188 99.5017 195.263 99.4425 195.291C98.1883 195.889 97.9716 197.483 97.8024 198.812C97.7984 198.843 97.7436 198.848 97.738 198.812C97.5451 197.549 97.2557 195.889 96.098 195.291C96.0442 195.263 96.0364 195.198 96.098 195.158C97.127 194.494 97.6583 192.8 97.738 191.571Z" fill="#C7C7CC"/>
<circle opacity="0.25" cx="251.576" cy="120.501" r="8.14691" fill="url(#paint13_radial_233_11)"/>
<path d="M251.543 116.666C251.543 116.633 251.608 116.636 251.608 116.666C251.608 117.862 252.09 119.622 253.248 120.253C253.302 120.282 253.307 120.358 253.248 120.386C251.994 120.984 251.777 122.578 251.608 123.906C251.604 123.938 251.549 123.943 251.543 123.906C251.35 122.644 251.061 120.984 249.903 120.386C249.849 120.358 249.842 120.293 249.903 120.253C250.932 119.589 251.464 117.895 251.543 116.666Z" fill="#C7C7CC"/>
<path d="M300.183 155.492C297.427 154.077 295.152 151.877 293.646 149.169C292.14 146.461 291.471 143.368 291.723 140.28C291.975 137.192 293.138 134.248 295.063 131.82C296.989 129.393 299.591 127.591 302.54 126.643C305.49 125.694 308.655 125.642 311.634 126.492C314.613 127.342 317.274 129.057 319.279 131.419C321.283 133.782 322.543 136.685 322.897 139.763C323.252 142.841 322.685 145.955 321.27 148.711C320.332 150.542 319.041 152.17 317.473 153.501C315.905 154.833 314.09 155.842 312.132 156.472C310.174 157.102 308.11 157.339 306.06 157.171C304.01 157.003 302.013 156.432 300.183 155.492Z" fill="#263238"/>
<path d="M315.225 133.149L322.822 143.81C323.127 141.738 323.009 139.626 322.475 137.601L315.225 133.149Z" fill="#9C6EFF"/>
<path d="M299.295 128.135L317.349 153.603C318.848 152.357 320.099 150.84 321.035 149.13L305.892 125.97C303.558 126.189 301.304 126.928 299.295 128.135Z" fill="#9C6EFF"/>
<path d="M306.759 157.197L298.917 145.965L303.002 156.605C304.226 156.952 305.488 157.151 306.759 157.197Z" fill="#9C6EFF"/>
<path d="M313.132 156.094L295.201 131.658C295.027 131.872 294.864 132.107 294.7 132.332L307.689 157.218C309.556 157.168 311.398 156.787 313.132 156.094Z" fill="#9C6EFF"/>
<path d="M46.4404 98.5085C41.8947 100.581 36.8365 101.259 31.9054 100.458C26.9743 99.6558 22.3915 97.41 18.7366 94.0041C15.0816 90.5982 12.5186 86.1851 11.3714 81.3227C10.2242 76.4603 10.5444 71.367 12.2915 66.6866C14.0387 62.0061 17.1343 57.9488 21.187 55.0275C25.2397 52.1061 30.0676 50.4519 35.0603 50.2741C40.0531 50.0962 44.9864 51.4026 49.2368 54.0282C53.4871 56.6537 56.8636 60.4805 58.9394 65.0247C60.3198 68.0436 61.0916 71.305 61.2104 74.6224C61.3293 77.9398 60.7929 81.2481 59.632 84.358C58.4711 87.468 56.7085 90.3185 54.445 92.7466C52.1814 95.1747 49.4613 97.1327 46.4404 98.5085Z" fill="#263238"/>
<path d="M58.7129 86.4486L41.4757 59.3878L61.0513 78.1976C61.1024 77.6768 61.1432 77.1764 61.1636 76.625L37.9731 50.3404C35.9902 50.1757 33.9947 50.2511 32.03 50.565L36.6865 57.9684L28.9869 51.2288L35.1139 62.3186L22.7272 54.0063C22.4208 54.2004 22.1145 54.3944 21.8184 54.5986L44.8047 80.1276L26.5668 66.25L33.0511 76.4616L23.6054 69.9262L48.3379 97.5588C51.3481 95.8772 53.9795 93.5933 56.0681 90.8498L51.0338 82.4456L57.2832 89.1036C57.8144 88.2491 58.2919 87.3624 58.7129 86.4486Z" fill="#9C6EFF"/>
<path d="M43.3853 99.6724L23.6258 76.8802L32.4078 90.4412L10.7592 73.4695C10.2265 79.9327 12.2007 86.3532 16.2728 91.4005C20.3449 96.4479 26.2027 99.7352 32.6325 100.581L24.8308 93.6476L36.9418 100.796C39.1286 100.696 41.2938 100.319 43.3853 99.6724Z" fill="#9C6EFF"/>
<path d="M45.3457 52.1069L56.4253 64.9736L54.1787 60.0618L57.763 62.8189C54.9369 57.9612 50.5653 54.19 45.3457 52.1069Z" fill="#9C6EFF"/>
<path d="M19.5818 72.0093L13.5978 63.7379C12.3684 66.0802 11.5073 68.598 11.0449 71.2026L19.5818 72.0093Z" fill="#9C6EFF"/>
<path d="M73.4701 58.7341C71.632 54.7108 63.4832 54.1492 52.6589 56.6102C53.3466 57.2144 53.9978 57.8589 54.6093 58.5402C62.6969 56.6816 68.4664 56.845 69.6612 59.4388C71.7648 64.0442 58.6429 74.5621 40.3437 82.9254C22.0445 91.2887 5.52213 94.3522 3.40833 89.7468C2.3259 87.3777 5.29747 83.436 10.9241 79.0246C10.7952 78.1277 10.7167 77.2242 10.6892 76.3185C2.83648 82.4455 -1.34006 88.4091 0.385704 92.1669C3.29601 98.539 22.0241 96.2516 42.2533 86.9897C62.4824 77.7277 76.3804 65.1062 73.4701 58.7341Z" fill="#263238"/>
<defs>
<radialGradient id="paint0_radial_233_11" cx="0" cy="0" r="1" gradientUnits="userSpaceOnUse" gradientTransform="translate(161.5 154.5) rotate(90) scale(154.5)">
<stop offset="0.219291" stop-color="#6D3BC4"/>
<stop offset="1" stop-color="#6D3BC4" stop-opacity="0"/>
</radialGradient>
<radialGradient id="paint1_radial_233_11" cx="0" cy="0" r="1" gradientUnits="userSpaceOnUse" gradientTransform="translate(129.073 43.9414) rotate(90) scale(5.49303)">
<stop stop-color="white"/>
<stop offset="0.785736" stop-color="#6E3CC5" stop-opacity="0.09"/>
<stop offset="1" stop-color="#6F3DC6" stop-opacity="0"/>
</radialGradient>
<radialGradient id="paint2_radial_233_11" cx="0" cy="0" r="1" gradientUnits="userSpaceOnUse" gradientTransform="translate(56.1657 81.3937) rotate(90) scale(9.48797)">
<stop stop-color="white"/>
<stop offset="0.785736" stop-color="#6E3CC5" stop-opacity="0.09"/>
<stop offset="1" stop-color="#6F3DC6" stop-opacity="0"/>
</radialGradient>
<radialGradient id="paint3_radial_233_11" cx="0" cy="0" r="1" gradientUnits="userSpaceOnUse" gradientTransform="translate(286.031 244.344) rotate(90) scale(8.14691)">
<stop stop-color="white"/>
<stop offset="0.785736" stop-color="#6E3CC5" stop-opacity="0.09"/>
<stop offset="1" stop-color="#6F3DC6" stop-opacity="0"/>
</radialGradient>
<radialGradient id="paint4_radial_233_11" cx="0" cy="0" r="1" gradientUnits="userSpaceOnUse" gradientTransform="translate(227.448 270.154) rotate(90) scale(11.4854)">
<stop stop-color="white"/>
<stop offset="0.785736" stop-color="#6E3CC5" stop-opacity="0.09"/>
<stop offset="1" stop-color="#6F3DC6" stop-opacity="0"/>
</radialGradient>
<radialGradient id="paint5_radial_233_11" cx="0" cy="0" r="1" gradientUnits="userSpaceOnUse" gradientTransform="translate(245.083 216.879) rotate(90) scale(6.14945)">
<stop stop-color="white"/>
<stop offset="0.785736" stop-color="#6E3CC5" stop-opacity="0.09"/>
<stop offset="1" stop-color="#6F3DC6" stop-opacity="0"/>
</radialGradient>
<radialGradient id="paint6_radial_233_11" cx="0" cy="0" r="1" gradientUnits="userSpaceOnUse" gradientTransform="translate(299.107 194.315) rotate(90) scale(4.74399)">
<stop stop-color="white"/>
<stop offset="0.785736" stop-color="#6E3CC5" stop-opacity="0.09"/>
<stop offset="1" stop-color="#6F3DC6" stop-opacity="0"/>
</radialGradient>
<radialGradient id="paint7_radial_233_11" cx="0" cy="0" r="1" gradientUnits="userSpaceOnUse" gradientTransform="translate(41.3422 155.956) rotate(90) scale(8.14691)">
<stop stop-color="white"/>
<stop offset="0.785736" stop-color="#6E3CC5" stop-opacity="0.09"/>
<stop offset="1" stop-color="#6F3DC6" stop-opacity="0"/>
</radialGradient>
<radialGradient id="paint8_radial_233_11" cx="0" cy="0" r="1" gradientUnits="userSpaceOnUse" gradientTransform="translate(99.3606 41.1948) rotate(90) scale(8.23955)">
<stop stop-color="white"/>
<stop offset="0.785736" stop-color="#6E3CC5" stop-opacity="0.09"/>
<stop offset="1" stop-color="#6F3DC6" stop-opacity="0"/>
</radialGradient>
<radialGradient id="paint9_radial_233_11" cx="0" cy="0" r="1" gradientUnits="userSpaceOnUse" gradientTransform="translate(120.085 79.8957) rotate(90) scale(5.49303)">
<stop stop-color="white"/>
<stop offset="0.785736" stop-color="#6E3CC5" stop-opacity="0.09"/>
<stop offset="1" stop-color="#6F3DC6" stop-opacity="0"/>
</radialGradient>
<radialGradient id="paint10_radial_233_11" cx="0" cy="0" r="1" gradientUnits="userSpaceOnUse" gradientTransform="translate(201.046 56.1755) rotate(90) scale(6.74145)">
<stop stop-color="white"/>
<stop offset="0.785736" stop-color="#6E3CC5" stop-opacity="0.09"/>
<stop offset="1" stop-color="#6F3DC6" stop-opacity="0"/>
</radialGradient>
<radialGradient id="paint11_radial_233_11" cx="0" cy="0" r="1" gradientUnits="userSpaceOnUse" gradientTransform="translate(95.2729 239.85) rotate(90) scale(8.14691)">
<stop stop-color="white"/>
<stop offset="0.785736" stop-color="#6E3CC5" stop-opacity="0.09"/>
<stop offset="1" stop-color="#6F3DC6" stop-opacity="0"/>
</radialGradient>
<radialGradient id="paint12_radial_233_11" cx="0" cy="0" r="1" gradientUnits="userSpaceOnUse" gradientTransform="translate(97.77 195.406) rotate(90) scale(8.14691)">
<stop stop-color="white"/>
<stop offset="0.785736" stop-color="#6E3CC5" stop-opacity="0.09"/>
<stop offset="1" stop-color="#6F3DC6" stop-opacity="0"/>
</radialGradient>
<radialGradient id="paint13_radial_233_11" cx="0" cy="0" r="1" gradientUnits="userSpaceOnUse" gradientTransform="translate(251.576 120.501) rotate(90) scale(8.14691)">
<stop stop-color="white"/>
<stop offset="0.785736" stop-color="#6E3CC5" stop-opacity="0.09"/>
<stop offset="1" stop-color="#6F3DC6" stop-opacity="0"/>
</radialGradient>
</defs>
</svg>
