<svg width="40" height="40" viewBox="0 0 40 40" fill="none" xmlns="http://www.w3.org/2000/svg">
<path d="M20 0.00012207C8.95536 0.00012207 0 8.95548 0 20.0001C0 31.0448 8.95536 40.0001 20 40.0001C31.0446 40.0001 40 31.0448 40 20.0001C40 8.95548 31.0446 0.00012207 20 0.00012207ZM27.8795 26.1474L26.6027 27.8885C26.5749 27.9264 26.5399 27.9585 26.4997 27.9828C26.4595 28.0072 26.4149 28.0233 26.3685 28.0304C26.322 28.0374 26.2746 28.0352 26.229 28.0239C26.1834 28.0126 26.1404 27.9924 26.1027 27.9644L18.7187 22.5805C18.6727 22.5474 18.6354 22.5038 18.6097 22.4533C18.5841 22.4028 18.571 22.3469 18.5714 22.2903V10.0001C18.5714 9.80369 18.7321 9.64298 18.9286 9.64298H21.0759C21.2723 9.64298 21.433 9.80369 21.433 10.0001V21.0492L27.7991 25.6519C27.9598 25.7635 27.9955 25.9867 27.8795 26.1474Z" fill="#8137F3"/>
</svg>
