<svg width="40" height="40" viewBox="0 0 40 40" fill="none" xmlns="http://www.w3.org/2000/svg">
<rect width="40" height="40" rx="6" fill="#35583B"/>
<path d="M8.09556 31.9032C9.02935 32.8383 10.3645 33.332 11.9578 33.332C14.2883 33.332 17.1151 32.2911 20.0007 30.4864C22.885 32.2925 25.7132 33.332 28.0436 33.332C29.6356 33.332 30.9708 32.8383 31.9059 31.9032C33.6036 30.2055 33.7935 27.3372 32.4423 23.8242C31.9634 22.5773 31.2999 21.289 30.4932 19.9994C31.2635 18.7896 31.9162 17.5088 32.4423 16.1746C33.7935 12.6615 33.6022 9.79187 31.9059 8.09553C30.9721 7.1604 29.637 6.66675 28.0436 6.66675C25.7132 6.66675 22.8864 7.70756 20.0007 9.51227C17.1164 7.70623 14.2883 6.66675 11.9578 6.66675C10.3658 6.66675 9.03068 7.1604 8.09556 8.09553C6.39788 9.79321 6.20657 12.6615 7.55776 16.1746C8.03803 17.4214 8.70025 18.7097 9.50694 19.9994C8.73661 21.2091 8.0839 22.4899 7.55776 23.8242C6.20657 27.3372 6.39788 30.2055 8.09556 31.9032ZM29.9433 24.7847C30.8651 27.1794 30.8905 29.1339 30.0129 30.0115C29.5848 30.4396 28.9226 30.6563 28.0423 30.6563C26.4811 30.6563 24.5024 29.9834 22.4128 28.8102C24.8093 26.9577 26.9596 24.807 28.8115 22.4101C29.261 23.2141 29.645 24.0101 29.9433 24.7847ZM19.9994 27.2463C18.6027 26.2477 17.29 25.1368 16.0742 23.9245C14.856 22.7079 13.7375 21.3953 12.7297 19.9994C14.744 17.2055 17.1992 14.7579 19.9994 12.7524C21.396 13.751 22.7088 14.8619 23.9245 16.0742C25.1428 17.2908 26.2612 18.6034 27.269 19.9994C25.2548 22.7932 22.7995 25.2408 19.9994 27.2463ZM28.0423 9.34237C28.9212 9.34237 29.5834 9.55909 30.0129 9.98719C30.8905 10.8648 30.8664 12.8193 29.9433 15.214C29.645 15.9886 29.261 16.7846 28.8115 17.5886C26.9614 15.1902 24.8109 13.0392 22.4128 11.1885C24.5024 10.0166 26.4811 9.34237 28.0423 9.34237ZM10.0554 15.214C9.1337 12.8193 9.10828 10.8648 9.98588 9.98719C10.414 9.55909 11.0762 9.34237 11.9565 9.34237C13.5177 9.34237 15.4963 10.0153 17.586 11.1885C15.1879 13.0392 13.0374 15.1902 11.1872 17.5886C10.7545 16.8247 10.3763 16.0312 10.0554 15.214ZM10.0554 24.7847C10.3538 24.0101 10.7377 23.2141 11.1872 22.4101C13.0374 24.8086 15.1879 26.9595 17.586 28.8102C15.495 29.9834 13.5177 30.6563 11.9565 30.6563C11.0775 30.6563 10.4153 30.4396 9.98588 30.0115C9.10828 29.1339 9.1337 27.1794 10.0554 24.7847Z" fill="#9CD33B"/>
<path d="M19.9982 23.4427C21.9 23.4427 23.4417 21.901 23.4417 19.9992C23.4417 18.0974 21.9 16.5557 19.9982 16.5557C18.0964 16.5557 16.5547 18.0974 16.5547 19.9992C16.5547 21.901 18.0964 23.4427 19.9982 23.4427Z" fill="#9CD33B"/>
</svg>
