<svg width="40" height="40" viewBox="0 0 40 40" fill="none" xmlns="http://www.w3.org/2000/svg">
<rect width="40" height="40" rx="6" fill="#FF068A" fill-opacity="0.25"/>
<path d="M19.0709 11.6425C18.031 11.6425 17.0598 11.9266 16.2297 12.4224C16.1402 11.4702 15.8354 10.5507 15.3384 9.73353C16.5423 9.13227 17.8736 8.83065 19.2191 8.85432C20.5645 8.87799 21.8844 9.22625 23.0664 9.86949C24.2484 10.5127 25.2576 11.4319 26.0081 12.5489C26.7586 13.6658 27.2283 14.9475 27.3772 16.2849H29.7504C31.5442 16.2849 33.0001 17.7408 33.0001 19.5347V27.8911C33.0001 28.318 32.916 28.7407 32.7525 29.1351C32.5891 29.5295 32.3496 29.8878 32.0476 30.1896C31.7457 30.4914 31.3872 30.7307 30.9927 30.8939C30.5982 31.0571 30.1754 31.141 29.7485 31.1408H21.3921C20.5302 31.1408 19.7037 30.7984 19.0942 30.1889C18.4848 29.5795 18.1424 28.7529 18.1424 27.8911V25.5197C17.4987 25.4483 16.8655 25.3018 16.2557 25.0833C16.2743 24.6451 16.2854 24.1882 16.2854 23.7129V23.5643C16.2854 23.1186 16.2854 22.5931 16.2669 22.0286C16.8456 22.3675 17.4811 22.5984 18.1424 22.7101V19.5347C18.1424 17.7408 19.5983 16.2849 21.3921 16.2849H24.5657C24.3462 14.9865 23.6739 13.8078 22.668 12.958C21.6621 12.1081 20.3877 11.6421 19.0709 11.6425ZM27.2212 19.0704C26.8703 20.6051 26.0936 22.0097 24.9804 23.1229C23.8672 24.2361 22.4626 25.0128 20.9279 25.3637V27.8911C20.9279 28.1473 21.1359 28.3553 21.3921 28.3553H29.7485C29.8716 28.3553 29.9897 28.3064 30.0768 28.2193C30.1639 28.1323 30.2128 28.0142 30.2128 27.8911V19.5347C30.2128 19.4115 30.1639 19.2934 30.0768 19.2064C29.9897 19.1193 29.8716 19.0704 29.7485 19.0704H27.2212ZM24.3243 19.0704H21.3921C21.269 19.0704 21.1509 19.1193 21.0639 19.2064C20.9768 19.2934 20.9279 19.4115 20.9279 19.5347V22.4687C21.7115 22.1909 22.4233 21.7416 23.0112 21.1537C23.5991 20.5658 24.0483 19.8541 24.3261 19.0704H24.3243Z" fill="#FF068A"/>
<path d="M11.791 7.23205C11.9454 7.36663 12.051 7.54852 12.0913 7.74937C12.1317 7.95022 12.1044 8.15877 12.0138 8.34252C11.9981 8.39685 11.99 8.45309 11.9897 8.50965C11.9897 8.62664 12.0194 8.84947 12.2998 9.12802C12.4354 9.26358 12.5394 9.36014 12.6526 9.46599C12.7455 9.55141 12.8439 9.64055 12.9683 9.76311C13.2097 9.99337 13.4641 10.2645 13.6925 10.6043C14.1661 11.3155 14.4279 12.205 14.4279 13.4993C14.4279 15.0443 13.8708 16.3647 12.9943 17.1984C13.5366 17.7481 13.8522 18.4668 14.0472 19.1854C14.4279 20.5819 14.4279 22.3088 14.4279 23.644V23.7127C14.4279 27.5344 13.713 29.8036 12.9033 31.1536C12.5975 31.6852 12.1958 32.1555 11.7186 32.5408C11.5296 32.6882 11.3239 32.8129 11.1058 32.9122C11.1058 32.9122 10.8699 32.9976 10.714 32.9976C10.5801 32.987 10.4483 32.9582 10.3221 32.9122C10.104 32.8129 9.89832 32.6882 9.70933 32.5408C9.23214 32.1555 8.83044 31.6852 8.52458 31.1536C7.71494 29.8055 7 27.5344 7 23.7127V23.6459C7 22.3088 7 20.5837 7.38068 19.1836C7.57566 18.4668 7.89135 17.7481 8.43359 17.1966C7.55709 16.3665 7 15.0443 7 13.4993C7 12.894 7.16156 12.1716 7.38439 11.505C7.60723 10.8364 7.9192 10.1456 8.27946 9.58855C8.70842 8.86433 9.31194 8.2571 9.77989 7.84856C10.0365 7.62293 10.3042 7.41035 10.5821 7.21162L10.6378 7.17448L10.6545 7.16148L10.6601 7.15777L10.6638 7.15591C10.8341 7.04241 11.0371 6.98834 11.2413 7.0021C11.4455 7.01587 11.6394 7.09671 11.7929 7.23205H11.791Z" fill="#FF068A"/>
</svg>
