<svg width="24" height="25" viewBox="0 0 24 25" fill="none" xmlns="http://www.w3.org/2000/svg">
<path d="M0 2.11793C0 1.16843 0.789 0.398926 1.7625 0.398926H22.2375C23.211 0.398926 24 1.16843 24 2.11793V22.6799C24 23.6294 23.211 24.3989 22.2375 24.3989H1.7625C0.789 24.3989 0 23.6294 0 22.6799V2.11793ZM7.4145 20.4899V9.65243H3.813V20.4899H7.4145ZM5.6145 8.17193C6.87 8.17193 7.6515 7.34093 7.6515 6.29993C7.629 5.23643 6.8715 4.42793 5.6385 4.42793C4.4055 4.42793 3.6 5.23793 3.6 6.29993C3.6 7.34093 4.3815 8.17193 5.5905 8.17193H5.6145V8.17193ZM12.9765 20.4899V14.4374C12.9765 14.1134 13.0005 13.7894 13.0965 13.5584C13.356 12.9119 13.9485 12.2414 14.9445 12.2414C16.248 12.2414 16.7685 13.2344 16.7685 14.6924V20.4899H20.37V14.2739C20.37 10.9439 18.594 9.39593 16.224 9.39593C14.313 9.39593 13.4565 10.4459 12.9765 11.1854V11.2229H12.9525C12.9605 11.2104 12.9685 11.1979 12.9765 11.1854V9.65243H9.3765C9.4215 10.6694 9.3765 20.4899 9.3765 20.4899H12.9765Z" fill="#944DFF"/>
</svg>
