<svg width="100" height="49" viewBox="0 0 100 49" fill="none" xmlns="http://www.w3.org/2000/svg">
<path d="M5.06271 31.0588C5.42767 32.1281 6.18479 33.2892 7.13993 34.2443L13.3728 40.4772C13.331 40.7351 13.33 40.9819 13.3719 41.2077L8.86877 36.7046C11.3811 40.5999 9.17686 43.2298 11.8692 45.9222L11.8693 45.9223L14.795 42.9966L15.1441 43.3456L12.2184 46.2714C12.7968 46.8498 13.9206 46.6637 14.7285 45.8558L16.1914 44.3929C16.6975 44.899 17.1189 44.8618 17.4382 44.5425L18.3525 43.6282C18.6721 43.3086 18.7086 42.8873 18.2029 42.3815L18.5686 42.0158C19.0747 42.5219 19.4961 42.4847 19.8153 42.1654L20.7296 41.2511C21.0492 40.9315 21.0858 40.5101 20.58 40.0043L22.0429 38.5415C22.8508 37.7336 23.0369 36.6097 22.4585 36.0313L19.5327 38.9571L19.1836 38.608L22.1094 35.6822L22.1093 35.6822C19.4169 32.9898 16.787 35.1941 12.8917 32.6817L17.3948 37.1849C17.169 37.1429 16.9222 37.144 16.6643 37.1858L10.4314 30.9529C9.47624 29.9977 8.31518 29.2406 7.24585 28.8756C6.28036 28.5461 5.48571 28.5676 5.12018 28.9331C4.75465 29.2986 4.73315 30.0933 5.06271 31.0588ZM9.35085 31.3352C9.39715 31.3815 9.42228 31.4451 9.42072 31.5122C9.41916 31.5792 9.39104 31.6441 9.34254 31.6926L7.87968 33.1555C7.83118 33.204 7.76628 33.2321 7.69925 33.2336C7.63223 33.2352 7.56856 33.2101 7.52227 33.1638C6.82607 32.4676 8.65393 30.6383 9.35085 31.3352Z" fill="#E1E1E6"/>
<path d="M21.7286 43.1566C21.9657 43.3932 22.0581 43.7728 22.1371 44.2296C22.312 45.256 21.425 46.1624 20.3872 45.978C19.9938 45.9076 19.4423 45.6995 19.3127 45.5699C19.285 45.5416 19.249 45.5228 19.2099 45.5161C19.1708 45.5094 19.1306 45.5151 19.0949 45.5326C19.0593 45.55 19.0301 45.5783 19.0115 45.6133C18.9928 45.6483 18.9856 45.6882 18.991 45.7275C19.0612 46.3015 19.3215 46.8355 19.7303 47.2444C20.7465 48.2596 24.5171 48.3555 24.5171 48.3555C24.5171 48.3555 24.4213 44.5833 23.4051 43.5681C22.9964 43.158 22.4615 42.8975 21.8866 42.8284C21.7061 42.8124 21.5986 43.0322 21.7286 43.1566Z" fill="url(#paint0_linear_98_1896)"/>
<path d="M11.3048 22.7177C9.6829 22.7177 8.22947 22.4544 6.94456 21.9278C5.65964 21.4012 4.62749 20.6218 3.84812 19.5897C3.08981 18.5576 2.68959 17.3148 2.64746 15.8613H8.39799C8.48224 16.6828 8.76661 17.3148 9.25108 17.7571C9.73556 18.1784 10.3675 18.389 11.1469 18.389C11.9473 18.389 12.5792 18.21 13.0426 17.8519C13.5061 17.4727 13.7378 16.9567 13.7378 16.3037C13.7378 15.756 13.5482 15.3031 13.169 14.945C12.8109 14.587 12.3581 14.2921 11.8104 14.0603C11.2838 13.8286 10.5255 13.5653 9.53545 13.2704C8.10309 12.8281 6.93402 12.3857 6.02826 11.9434C5.1225 11.501 4.34313 10.8481 3.69014 9.98443C3.03715 9.12079 2.71065 7.99386 2.71065 6.60362C2.71065 4.53933 3.45843 2.92792 4.95399 1.76939C6.44955 0.589797 8.39799 0 10.7993 0C13.2428 0 15.2123 0.589797 16.7078 1.76939C18.2034 2.92792 19.0038 4.54987 19.1091 6.63522H13.2638C13.2217 5.91904 12.9584 5.36084 12.4739 4.96062C11.9894 4.53933 11.368 4.32869 10.6097 4.32869C9.95674 4.32869 9.43013 4.50774 9.02991 4.86583C8.62969 5.20286 8.42958 5.69786 8.42958 6.35085C8.42958 7.06704 8.76661 7.62524 9.44066 8.02546C10.1147 8.42568 11.1679 8.85749 12.6003 9.3209C14.0327 9.80538 15.1912 10.2688 16.0759 10.7111C16.9816 11.1535 17.761 11.7959 18.414 12.6385C19.067 13.4811 19.3935 14.5659 19.3935 15.8929C19.3935 17.1568 19.067 18.3048 18.414 19.3369C17.7821 20.3691 16.8553 21.1906 15.6335 21.8014C14.4118 22.4123 12.9689 22.7177 11.3048 22.7177Z" fill="url(#paint1_linear_98_1896)"/>
<path d="M28.1215 7.36194C28.6481 6.54043 29.3748 5.87691 30.3016 5.37137C31.2284 4.86583 32.3132 4.61306 33.556 4.61306C35.0095 4.61306 36.326 4.98168 37.5056 5.71893C38.6852 6.45617 39.612 7.50938 40.286 8.87856C40.9812 10.2477 41.3287 11.8381 41.3287 13.6496C41.3287 15.4611 40.9812 17.062 40.286 18.4522C39.612 19.8214 38.6852 20.8851 37.5056 21.6435C36.326 22.3807 35.0095 22.7493 33.556 22.7493C32.3343 22.7493 31.2495 22.4966 30.3016 21.991C29.3748 21.4855 28.6481 20.8325 28.1215 20.032V30.9012H22.7185V4.86583H28.1215V7.36194ZM35.831 13.6496C35.831 12.3015 35.4518 11.2483 34.6935 10.49C33.9563 9.71059 33.04 9.3209 31.9446 9.3209C30.8704 9.3209 29.9541 9.71059 29.1957 10.49C28.4585 11.2693 28.0899 12.3331 28.0899 13.6812C28.0899 15.0293 28.4585 16.093 29.1957 16.8724C29.9541 17.6518 30.8704 18.0415 31.9446 18.0415C33.0189 18.0415 33.9352 17.6518 34.6935 16.8724C35.4518 16.072 35.831 14.9977 35.831 13.6496Z" fill="url(#paint2_linear_98_1896)"/>
<path d="M63.1761 13.6812C63.1761 11.8486 63.5447 10.2477 64.2819 8.87856C65.0403 7.50938 66.0829 6.45617 67.41 5.71893C68.7581 4.98168 70.2958 4.61306 72.023 4.61306C74.2348 4.61306 76.0779 5.19232 77.5524 6.35085C79.0479 7.50938 80.0274 9.14186 80.4908 11.2483H74.7403C74.2558 9.90017 73.3185 9.22612 71.9282 9.22612C70.9382 9.22612 70.1483 9.6158 69.5585 10.3952C68.9687 11.1535 68.6738 12.2488 68.6738 13.6812C68.6738 15.1136 68.9687 16.2194 69.5585 16.9988C70.1483 17.7571 70.9382 18.1363 71.9282 18.1363C73.3185 18.1363 74.2558 17.4622 74.7403 16.1141H80.4908C80.0274 18.1784 79.0479 19.8003 77.5524 20.9799C76.0568 22.1595 74.2137 22.7493 72.023 22.7493C70.2958 22.7493 68.7581 22.3807 67.41 21.6435C66.0829 20.9062 65.0403 19.853 64.2819 18.4838C63.5447 17.1147 63.1761 15.5138 63.1761 13.6812Z" fill="url(#paint3_linear_98_1896)"/>
<path d="M100.001 13.3968C100.001 13.9024 99.969 14.429 99.9058 14.9766H87.678C87.7623 16.072 88.1098 16.9145 88.7207 17.5043C89.3526 18.0731 90.1214 18.3574 91.0272 18.3574C92.3753 18.3574 93.3127 17.7887 93.8393 16.6512H99.5898C99.2949 17.8098 98.7578 18.8525 97.9784 19.7793C97.2201 20.7061 96.2617 21.4328 95.1031 21.9594C93.9446 22.486 92.6492 22.7493 91.2168 22.7493C89.4895 22.7493 87.9518 22.3807 86.6037 21.6435C85.2556 20.9062 84.2024 19.853 83.4441 18.4838C82.6858 17.1147 82.3066 15.5138 82.3066 13.6812C82.3066 11.8486 82.6753 10.2477 83.4125 8.87856C84.1708 7.50938 85.224 6.45617 86.5721 5.71893C87.9202 4.98168 89.4685 4.61306 91.2168 4.61306C92.923 4.61306 94.4396 4.97115 95.7667 5.68733C97.0937 6.40351 98.1258 7.42513 98.8631 8.75217C99.6214 10.0792 100.001 11.6274 100.001 13.3968ZM94.4712 11.975C94.4712 11.0482 94.1552 10.3109 93.5233 9.76325C92.8914 9.21558 92.1015 8.94175 91.1536 8.94175C90.2478 8.94175 89.479 9.20505 88.8471 9.73166C88.2362 10.2583 87.857 11.006 87.7096 11.975H94.4712Z" fill="url(#paint4_linear_98_1896)"/>
<path d="M42.5806 29.5583V32.8048H35.8032V36.312H40.8744V39.4637H35.8032V46.1937H31.751V29.5583H42.5806Z" fill="#E1E1E6"/>
<path d="M50.7295 46.3833C49.434 46.3833 48.265 46.1069 47.2223 45.5539C46.1954 45.001 45.3818 44.2111 44.7815 43.1842C44.197 42.1573 43.9047 40.9567 43.9047 39.5822C43.9047 38.2236 44.2049 37.0308 44.8052 36.0039C45.4055 34.9613 46.227 34.1635 47.2697 33.6105C48.3124 33.0576 49.4814 32.7811 50.7769 32.7811C52.0723 32.7811 53.2414 33.0576 54.2841 33.6105C55.3267 34.1635 56.1483 34.9613 56.7486 36.0039C57.3489 37.0308 57.6491 38.2236 57.6491 39.5822C57.6491 40.9409 57.341 42.1415 56.7249 43.1842C56.1246 44.2111 55.2952 45.001 54.2367 45.5539C53.194 46.1069 52.0249 46.3833 50.7295 46.3833ZM50.7295 42.8761C51.5036 42.8761 52.1592 42.5918 52.6964 42.023C53.2493 41.4543 53.5258 40.6407 53.5258 39.5822C53.5258 38.5237 53.2572 37.7101 52.7201 37.1414C52.1987 36.5727 51.551 36.2883 50.7769 36.2883C49.987 36.2883 49.3314 36.5727 48.81 37.1414C48.2887 37.6943 48.028 38.508 48.028 39.5822C48.028 40.6407 48.2808 41.4543 48.7863 42.023C49.3077 42.5918 49.9554 42.8761 50.7295 42.8761Z" fill="#E1E1E6"/>
<path d="M63.8511 35.1745C64.325 34.4478 64.9175 33.8791 65.6284 33.4683C66.3393 33.0418 67.1292 32.8285 67.9981 32.8285V37.1177H66.8843C65.8732 37.1177 65.1149 37.3389 64.6094 37.7812C64.1039 38.2078 63.8511 38.9661 63.8511 40.0562V46.1937H59.7989V32.9707H63.8511V35.1745Z" fill="#E1E1E6"/>
<path d="M80.2906 43.2553H74.082L73.0867 46.1937H68.8449L74.864 29.5583H79.556L85.5751 46.1937H81.2859L80.2906 43.2553ZM79.248 40.1273L77.1863 34.0371L75.1484 40.1273H79.248Z" fill="#E1E1E6"/>
<path d="M91.4593 28.6578V46.1937H87.407V28.6578H91.4593Z" fill="#E1E1E6"/>
<path d="M98.4481 28.6578V46.1937H94.3959V28.6578H98.4481Z" fill="#E1E1E6"/>
<path d="M47.0205 12.129L47.4966 12.129C48.3676 14.1629 50.3494 15.5848 52.6627 15.5848C54.976 15.5848 56.9579 14.1629 57.8289 12.129L58.3049 12.129C58.6153 12.129 58.8692 11.8698 58.8692 11.553L58.8692 8.09719C58.8692 7.7804 58.6153 7.52121 58.3049 7.52121L57.8289 7.52121C56.9579 5.4873 54.976 4.06537 52.6627 4.06537C50.3494 4.06537 48.3676 5.4873 47.4966 7.52121L47.0205 7.52121C46.7102 7.52121 46.4563 7.7804 46.4563 8.09719L46.4563 11.553C46.4563 11.8698 46.7102 12.129 47.0205 12.129ZM48.4311 8.96115C48.4311 8.16558 49.1893 7.52121 50.1238 7.52121L55.2017 7.52121C56.1362 7.52121 56.8944 8.16558 56.8944 8.96115L56.8944 9.82511C56.8944 11.733 55.378 13.281 53.5091 13.281L51.8164 13.281C49.9474 13.281 48.4311 11.733 48.4311 9.82511L48.4311 8.96115ZM50.9701 11.553L51.3932 10.2571L52.6627 9.82511L51.3932 9.39313L50.9701 8.09719L50.5469 9.39313L49.2774 9.82511L50.5469 10.2571L50.9701 11.553ZM56.3161 15.6352C55.2617 16.33 54.0098 16.7368 52.6627 16.7368C51.3157 16.7368 50.0638 16.33 49.0094 15.6352C46.6291 15.8908 44.7637 17.9247 44.7637 20.423L44.7637 20.7686C44.7637 21.7226 45.5218 22.4965 46.4563 22.4965L49.2774 22.4965L49.2774 20.1926C49.2774 19.5555 49.7817 19.0407 50.4059 19.0407L54.9196 19.0407C55.5438 19.0407 56.0481 19.5555 56.0481 20.1926L56.0481 22.4965L58.8692 22.4965C59.8036 22.4965 60.5618 21.7226 60.5618 20.7686L60.5618 20.423C60.5618 17.9247 58.6964 15.8908 56.3161 15.6352ZM54.3554 20.1926C54.0451 20.1926 53.7912 20.4518 53.7912 20.7686C53.7912 21.0854 54.0451 21.3446 54.3554 21.3446C54.6657 21.3446 54.9196 21.0854 54.9196 20.7686C54.9196 20.4518 54.6657 20.1926 54.3554 20.1926ZM50.9701 20.1926C50.6598 20.1926 50.4059 20.4518 50.4059 20.7686L50.4059 22.4965L51.5343 22.4965L51.5343 20.7686C51.5343 20.4518 51.2804 20.1926 50.9701 20.1926Z" fill="#E1E1E6"/>
<defs>
<linearGradient id="paint0_linear_98_1896" x1="20.4806" y1="44.2931" x2="24.6697" y2="48.4823" gradientUnits="userSpaceOnUse">
<stop stop-color="#E1E1E6"/>
<stop offset="1" stop-color="#111013"/>
</linearGradient>
<linearGradient id="paint1_linear_98_1896" x1="2.64746" y1="0" x2="108.474" y2="33.8084" gradientUnits="userSpaceOnUse">
<stop stop-color="#944CFF"/>
<stop offset="1" stop-color="#6E2BD9"/>
</linearGradient>
<linearGradient id="paint2_linear_98_1896" x1="2.64746" y1="0" x2="108.474" y2="33.8084" gradientUnits="userSpaceOnUse">
<stop stop-color="#944CFF"/>
<stop offset="1" stop-color="#6E2BD9"/>
</linearGradient>
<linearGradient id="paint3_linear_98_1896" x1="2.64746" y1="0" x2="108.474" y2="33.8084" gradientUnits="userSpaceOnUse">
<stop stop-color="#944CFF"/>
<stop offset="1" stop-color="#6E2BD9"/>
</linearGradient>
<linearGradient id="paint4_linear_98_1896" x1="2.64746" y1="0" x2="108.474" y2="33.8084" gradientUnits="userSpaceOnUse">
<stop stop-color="#944CFF"/>
<stop offset="1" stop-color="#6E2BD9"/>
</linearGradient>
</defs>
</svg>
