<svg width="244" height="268" viewBox="0 0 244 268" fill="none" xmlns="http://www.w3.org/2000/svg">
<path d="M77.4328 36.3909L27.8301 10.7671L13.2445 39.0019L62.8473 64.6257L77.4328 36.3909Z" fill="#944DFF"/>
<path d="M123.488 61.583L73.8857 35.9592L60.509 61.8539L110.112 87.4777L123.488 61.583Z" fill="#944DFF"/>
<path d="M66.3552 65.2451L63.0088 64.4571L77.3981 36.5959L79.9781 38.8628L66.3552 65.2451Z" fill="#263238"/>
<path opacity="0.2" d="M66.3552 65.2451L63.0088 64.4571L77.3981 36.5959L79.9781 38.8628L66.3552 65.2451Z" fill="black"/>
<path d="M77.4773 36.411L74.4658 34.8553L59.8803 63.0902L62.8917 64.6458L77.4773 36.411Z" fill="#263238"/>
<path d="M121.203 87.1045L113.388 88.8209L126.503 63.4102L129.634 70.7829L121.203 87.1045Z" fill="#263238"/>
<path d="M150.447 83.3261L141.402 78.6558L135.038 90.9808L144.083 95.6512L150.447 83.3261Z" fill="#263238"/>
<path opacity="0.2" d="M150.447 83.3261L141.402 78.6558L135.038 90.9808L144.083 95.6512L150.447 83.3261Z" fill="black"/>
<path d="M144.87 77.9579L125.766 68.0889L117.145 84.7766L136.25 94.6456L144.87 77.9579Z" fill="#263238"/>
<path opacity="0.2" d="M121.203 87.1045L113.388 88.8209L126.503 63.4102L129.634 70.7829L121.203 87.1045Z" fill="black"/>
<path d="M126.504 63.1401L123.492 61.5845L110.115 87.4792L113.127 89.0348L126.504 63.1401Z" fill="#263238"/>
<path d="M29.3672 11.5387L26.3555 9.98352L11.7748 38.2209L14.7866 39.776L29.3672 11.5387Z" fill="#263238"/>
<path d="M132.008 94.4988C131.537 95.4089 130.807 96.159 129.91 96.6542C129.013 97.1494 127.989 97.3675 126.968 97.2809C125.947 97.1943 124.975 96.807 124.174 96.1678C123.373 95.5286 122.78 94.6664 122.469 93.69C122.158 92.7136 122.144 91.667 122.427 90.6824C122.711 89.6978 123.281 88.8195 124.064 88.1586C124.847 87.4976 125.808 87.0837 126.826 86.969C127.845 86.8544 128.874 87.0443 129.784 87.5146C130.389 87.8271 130.926 88.2556 131.365 88.7757C131.805 89.2959 132.137 89.8974 132.343 90.546C132.55 91.1946 132.627 91.8775 132.569 92.5558C132.511 93.234 132.321 93.8943 132.008 94.4988Z" fill="#263238"/>
<path d="M132.008 94.4988C131.537 95.4089 130.807 96.159 129.91 96.6542C129.013 97.1494 127.989 97.3675 126.968 97.2809C125.947 97.1943 124.975 96.807 124.174 96.1678C123.373 95.5286 122.78 94.6664 122.469 93.69C122.158 92.7136 122.144 91.667 122.427 90.6824C122.711 89.6978 123.281 88.8195 124.064 88.1586C124.847 87.4976 125.808 87.0837 126.826 86.969C127.845 86.8544 128.874 87.0443 129.784 87.5146C130.389 87.8271 130.926 88.2556 131.365 88.7757C131.805 89.2959 132.137 89.8974 132.343 90.546C132.55 91.1946 132.627 91.8775 132.569 92.5558C132.511 93.234 132.321 93.8943 132.008 94.4988Z" fill="#944DFF"/>
<path d="M171.509 73.1483L162.389 68.4368L153.52 85.604L162.641 90.3155L171.509 73.1483Z" fill="#263238"/>
<path opacity="0.2" d="M171.509 73.1483L162.389 68.4368L153.52 85.604L162.641 90.3155L171.509 73.1483Z" fill="black"/>
<path d="M151.461 81.3293L142.836 98.0179L146.938 100.134L165.159 93.6353L167.372 89.5441L151.461 81.3293Z" fill="#263238"/>
<path d="M171.258 74.8201L161.208 69.6279V65.1265L174.939 72.2186L171.258 74.8201Z" fill="#944DFF"/>
<path d="M27.6408 7.41926L19.0859 3L2.04303 35.9918L10.5979 40.411L27.6408 7.41926Z" fill="#944DFF"/>
<g opacity="0.4">
<path opacity="0.4" d="M34.057 16.7661L30.376 14.8771L28.7568 18.0183L32.4918 19.929C33.0801 18.9089 33.6028 17.8525 34.057 16.7661Z" fill="white"/>
<path opacity="0.4" d="M36.281 17.9967C35.8203 19.0836 35.2977 20.1432 34.7158 21.1703L70.1656 39.2515L71.7956 36.121L36.281 17.9967Z" fill="white"/>
</g>
<g opacity="0.4">
<path opacity="0.4" d="M121.311 63.1509L119.681 66.2814L78.6289 44.9511L80.2481 41.8098L121.311 63.1509Z" fill="white"/>
</g>
<g opacity="0.4">
<path opacity="0.4" d="M26.3608 8.098L24.7308 11.2285L18.0488 7.73098L19.668 4.58972L26.3608 8.098Z" fill="white"/>
</g>
<path d="M113.155 44.7738L103.832 39.9598L102.044 43.4224L111.367 48.2364L113.155 44.7738Z" fill="#263238"/>
<path d="M134.14 40.9694L90.5127 18.4321L86.5195 26.1622L130.147 48.6994L134.14 40.9694Z" fill="#944DFF"/>
<g opacity="0.4">
<path opacity="0.4" d="M94.1946 21.2352L91.2693 19.7347L90.5244 21.2568L93.5577 22.8112C93.8577 22.3257 94.0731 21.7928 94.1946 21.2352Z" fill="white"/>
<path opacity="0.4" d="M95.6624 22.0341C95.5084 22.581 95.2872 23.1068 95.0039 23.5993L131.933 42.49L132.591 40.9356L95.6624 22.0341Z" fill="white"/>
</g>
<path d="M111.443 28.2838L108.873 26.9561L97.8348 48.324L100.405 49.6517L111.443 28.2838Z" fill="#263238"/>
<path opacity="0.2" d="M111.443 28.2838L108.873 26.9561L97.8348 48.324L100.405 49.6517L111.443 28.2838Z" fill="black"/>
<path d="M84.998 24.3332L86.5525 26.1468L90.5357 18.4177L88.1609 18.2126L84.998 24.3332Z" fill="#263238"/>
<path d="M138.973 42.5028L125.325 35.4528L120.505 44.7844L134.152 51.8345L138.973 42.5028Z" fill="#263238"/>
<path opacity="0.3" d="M88.7869 22.9515C88.3261 24.0349 87.8036 25.091 87.2217 26.1144L129.666 48.4054L131.296 45.275L88.7869 22.9515Z" fill="black"/>
<path opacity="0.3" d="M4.94413 32.2673C4.48338 33.3507 3.96078 34.4067 3.37891 35.4302L10.2767 39.0896L11.9067 35.9591L4.94413 32.2673Z" fill="black"/>
<path opacity="0.3" d="M18.826 36.0886C18.3652 37.1755 17.8427 38.2351 17.2607 39.2623L59.7055 61.5425L61.3355 58.4121L18.826 36.0886Z" fill="black"/>
<path opacity="0.3" d="M70.9109 62.0823C70.4502 63.1692 69.9276 64.2288 69.3457 65.2559L109.038 85.9278L110.668 82.7973L70.9109 62.0823Z" fill="black"/>
<path d="M101.438 80.9592L78.0947 68.9004L73.8637 77.0908L97.2073 89.1496L101.438 80.9592Z" fill="#263238"/>
<path d="M89.0882 94.1101H78.5742V104.624H89.0882V94.1101Z" fill="#263238"/>
<path opacity="0.2" d="M89.0882 94.1101H78.5742V104.624H89.0882V94.1101Z" fill="black"/>
<path d="M89.089 77.3892H83.8428V96.6361H89.089V77.3892Z" fill="#263238"/>
<path d="M89.0886 91.6057H68.0605V96.636H89.0886V91.6057Z" fill="#263238"/>
<path d="M94.3348 102.875H68.0605V110.378H94.3348V102.875Z" fill="#263238"/>
<path d="M83.1952 267.16H79.4494L77.1934 110.378H85.4621L83.1952 267.16Z" fill="#263238"/>
<path opacity="0.1" d="M83.1952 267.16H79.4494L77.1934 110.378H85.4621L83.1952 267.16Z" fill="white"/>
<path d="M41.5706 263.781L37.8896 263.08L64.9844 108.64L73.102 110.184L41.5706 263.781Z" fill="#263238"/>
<path opacity="0.1" d="M41.5706 263.781L37.8896 263.08L64.9844 108.64L73.102 110.184L41.5706 263.781Z" fill="white"/>
<path d="M48.188 240.538L40.0244 238.975L38.4612 247.138L46.6248 248.701L48.188 240.538Z" fill="#263238"/>
<path d="M45.0636 248.941L36.918 247.362L35.3387 255.508L43.4844 257.087L45.0636 248.941Z" fill="#263238"/>
<path d="M43.4491 258.416L38.0193 257.38L36.8535 267.16H41.0634L43.4491 258.416Z" fill="#263238"/>
<path d="M120.631 263.781L124.312 263.08L97.2065 108.64L89.0889 110.184L120.631 263.781Z" fill="#263238"/>
<path opacity="0.1" d="M120.631 263.781L124.312 263.08L97.2065 108.64L89.0889 110.184L120.631 263.781Z" fill="white"/>
<path d="M115.592 248.685L123.756 247.122L122.193 238.958L114.029 240.521L115.592 248.685Z" fill="#263238"/>
<path d="M117.287 257.527L125.45 255.964L123.887 247.8L115.723 249.363L117.287 257.527Z" fill="#263238"/>
<path d="M118.752 258.416L124.171 257.38L125.337 267.16H121.127L118.752 258.416Z" fill="#263238"/>
<path d="M81.0118 233.205L44.3867 236.036L44.7203 240.352L81.3454 237.521L81.0118 233.205Z" fill="#263238"/>
<path d="M81.3593 237.525L117.984 240.356L118.318 236.041L81.6929 233.21L81.3593 237.525Z" fill="#263238"/>
<path d="M171.248 82.8729C172.327 81.7934 173.849 80.5844 174.896 79.4726C175.367 77.4118 175.684 75.3191 175.846 73.2116C175.696 72.8096 175.448 72.4508 175.127 72.1666C174.805 71.8824 174.418 71.6815 174.001 71.5816C173.72 71.4953 171.55 73.4491 171.259 73.5247C170.179 72.6071 168.743 76.8279 168.765 76.7631C168.333 78.2744 167.373 79.7964 167.686 81.34C167.891 82.6354 170.363 83.8228 171.248 82.8729Z" fill="#B55B52"/>
<path d="M168.258 82.5599L171.95 81.2753L177.045 91.0661C177.79 92.5283 179.001 93.7003 180.487 94.3963C181.973 95.0924 183.649 95.2728 185.249 94.909C189.469 93.8296 195.331 90.5912 201.138 81.2322C201.138 81.2322 207.615 83.9416 207.853 87.1369C207.853 87.1369 187.98 110.313 175.846 99.119C171.831 95.4164 168.258 82.5599 168.258 82.5599Z" fill="#B55B52"/>
<path d="M206.88 128.2C206.88 128.2 222.166 147.77 213.811 166.856C209.244 177.305 204.819 207.789 204.819 207.789C210.455 211.672 215.256 216.646 218.938 222.416C227.995 237.043 232.421 240.896 232.421 240.896L225.944 245.83C225.944 245.83 199.238 225.557 192.48 215.669C185.723 205.781 186.964 197.016 195.719 159.245L175.274 203.687C184.071 215.561 183.078 245.97 183.078 245.97L172.92 247.589C172.92 247.589 162.126 217.116 159.308 208.912C156.491 200.708 154.105 198.56 162.547 171.627C165.785 161.296 175.781 129.268 175.781 129.268L206.88 128.2Z" fill="#407BFF"/>
<path opacity="0.6" d="M206.88 128.2C206.88 128.2 222.166 147.77 213.811 166.856C209.244 177.305 204.819 207.789 204.819 207.789C210.455 211.672 215.256 216.646 218.938 222.416C227.995 237.043 232.421 240.896 232.421 240.896L225.944 245.83C225.944 245.83 199.238 225.557 192.48 215.669C185.723 205.781 186.964 197.016 195.719 159.245L175.274 203.687C184.071 215.561 183.078 245.97 183.078 245.97L172.92 247.589C172.92 247.589 162.126 217.116 159.308 208.912C156.491 200.708 154.105 198.56 162.547 171.627C165.785 161.296 175.781 129.268 175.781 129.268L206.88 128.2Z" fill="#944DFF"/>
<path opacity="0.2" d="M195.794 159.245C195.794 159.245 202.67 156.234 203.501 149.303C203.501 149.303 203.501 159.656 196.874 165.722C192.75 169.5 193.279 170.04 193.279 170.04L195.794 159.245Z" fill="black"/>
<path d="M225.663 244.599L234.439 253.602L239.998 253.095L231.222 240.67L225.663 244.599Z" fill="#B55B52"/>
<path d="M174.075 247.589L177.886 261.082L183.272 260.867L182.43 247.136L174.075 247.589Z" fill="#B55B52"/>
<path d="M242.751 254.584C242.955 254.337 243.059 254.022 243.041 253.702C243.023 253.381 242.885 253.08 242.654 252.857C242.114 252.404 240.495 251.292 239.351 250.515C238.628 250.029 237.699 249.262 236.976 249.737L233.738 252.619C232.896 253.159 232.82 253.947 232.863 254.94C232.844 257.951 231.976 260.896 230.359 263.436C229.182 265.292 228.502 266.674 229.279 267.354C229.507 267.529 229.781 267.634 230.067 267.657C230.632 267.709 231.2 267.618 231.721 267.394C232.241 267.169 232.697 266.818 233.047 266.372L242.751 254.584Z" fill="#263238"/>
<path d="M182.96 258.071C183.44 258.071 183.901 258.26 184.243 258.598C184.584 258.935 184.779 259.394 184.784 259.874C184.893 262.393 184.85 264.916 184.655 267.43C184.342 268.164 162.677 267.311 162.677 267.311C162.33 267.071 162.05 266.747 161.861 266.37C161.673 265.992 161.582 265.574 161.597 265.152C161.759 263.814 169.078 263.101 171.69 261.741C173.341 260.834 174.887 259.748 176.3 258.503C176.63 258.21 177.057 258.049 177.498 258.049L182.96 258.071Z" fill="#263238"/>
<path d="M222.166 244.707L231.655 237.636L234.019 240.724L225.34 247.449L222.166 244.707Z" fill="#9C6EFF"/>
<path d="M171.226 246.628C171.452 246.467 184.589 244.167 184.589 244.167L184.892 248.55L172.521 251.41L171.226 246.628Z" fill="#9C6EFF"/>
<path d="M189.598 58.1206C190.44 63.043 193.441 74.6149 197.845 76.4716C197.845 76.4716 198.342 81.6099 189.803 84.8591C180.412 88.4213 182.852 79.0947 182.852 79.0947C187.515 75.9103 185.928 72.1645 183.672 68.9369L189.598 58.1206Z" fill="#B55B52"/>
<path d="M199.767 75.8671C199.776 75.3787 199.596 74.9057 199.263 74.5474C198.931 74.1892 198.473 73.9735 197.986 73.9457C194.229 73.7729 185.69 73.5139 181.535 74.5933C178.447 75.4029 177.832 77.3244 177.875 78.8357C177.882 79.079 177.937 79.3186 178.037 79.5406C178.137 79.7626 178.28 79.9627 178.458 80.1293C178.635 80.2958 178.844 80.4256 179.072 80.5111C179.3 80.5966 179.542 80.6362 179.786 80.6276H180.077L198.223 77.659C198.647 77.5825 199.031 77.3628 199.312 77.0365C199.593 76.7103 199.754 76.2975 199.767 75.8671Z" fill="#407BFF"/>
<path d="M199.767 75.8671C199.776 75.3787 199.596 74.9057 199.263 74.5474C198.931 74.1892 198.473 73.9735 197.986 73.9457C194.229 73.7729 185.69 73.5139 181.535 74.5933C178.447 75.4029 177.832 77.3244 177.875 78.8357C177.882 79.079 177.937 79.3186 178.037 79.5406C178.137 79.7626 178.28 79.9627 178.458 80.1293C178.635 80.2958 178.844 80.4256 179.072 80.5111C179.3 80.5966 179.542 80.6362 179.786 80.6276H180.077L198.223 77.659C198.647 77.5825 199.031 77.3628 199.312 77.0365C199.593 76.7103 199.754 76.2975 199.767 75.8671Z" fill="#9C6EFF"/>
<path d="M209.86 84.7188C205.65 107.528 205.974 115.656 206.902 128.157L175.856 129.236C175.856 129.236 172.154 110.669 171.776 103.912C171.549 100.004 171.366 96.6361 171.215 93.7324C170.546 81.5991 170.427 77.7238 170.427 77.7238C179.119 75.9415 188.028 75.4576 196.863 76.2881C199.209 76.3529 201.548 76.4932 203.88 76.7091C204.815 76.8018 205.722 77.0885 206.541 77.551C207.36 78.0135 208.073 78.6416 208.636 79.3952C209.199 80.1488 209.598 81.0114 209.809 81.928C210.02 82.8446 210.037 83.7951 209.86 84.7188Z" fill="#944DFF"/>
<path d="M136.812 99.5722C136.219 98.1689 135.733 96.2583 135.171 94.8658C133.092 93.3106 130.834 92.0096 128.446 90.9905C127.371 92.0543 126.382 93.2022 125.489 94.4232C125.305 94.6607 125.435 95.1356 125.391 95.4271C126.683 96.7659 128.159 97.9144 129.774 98.8382C130.983 99.8313 132.44 101.893 133.962 102.249C135.247 102.552 137.32 100.781 136.812 99.5722Z" fill="#B55B52"/>
<path d="M133.962 102.249L136.812 99.5723L153.889 104.43C153.889 104.43 162.007 93.3221 163.464 87.6657C163.464 87.6657 170.48 87.5146 172.002 90.332C172.002 90.332 162.665 109.762 157.71 112.817C152.755 115.872 133.962 102.249 133.962 102.249Z" fill="#B55B52"/>
<path d="M135.636 101.796L134.675 103.34L136.888 104.71L137.514 103.07C137.514 103.07 136.596 103.124 135.636 101.796Z" fill="#407BFF"/>
<path d="M139.392 101.191C139.394 101.563 139.286 101.928 139.081 102.238C138.876 102.548 138.583 102.791 138.24 102.934C137.897 103.078 137.519 103.117 137.154 103.046C136.789 102.974 136.453 102.796 136.19 102.534C135.926 102.272 135.746 101.937 135.673 101.573C135.599 101.208 135.636 100.83 135.778 100.486C135.92 100.142 136.16 99.8481 136.469 99.6413C136.778 99.4344 137.142 99.324 137.514 99.324C138.01 99.324 138.486 99.5204 138.838 99.8703C139.19 100.22 139.389 100.695 139.392 101.191Z" fill="#263238"/>
<path d="M137.514 103.609C137.035 103.609 136.568 103.468 136.17 103.202C135.773 102.936 135.463 102.559 135.28 102.117C135.097 101.675 135.049 101.189 135.142 100.72C135.235 100.251 135.466 99.8198 135.804 99.4817C136.142 99.1435 136.573 98.9132 137.042 98.8199C137.511 98.7266 137.997 98.7745 138.439 98.9575C138.881 99.1405 139.259 99.4504 139.524 99.8481C139.79 100.246 139.932 100.713 139.932 101.191C139.932 101.833 139.677 102.448 139.224 102.901C138.77 103.355 138.155 103.609 137.514 103.609ZM137.514 99.8637C137.249 99.8637 136.989 99.9425 136.769 100.09C136.549 100.238 136.377 100.447 136.276 100.693C136.175 100.938 136.149 101.207 136.202 101.467C136.254 101.727 136.383 101.966 136.571 102.153C136.759 102.339 136.999 102.466 137.259 102.516C137.52 102.567 137.789 102.539 138.033 102.436C138.278 102.333 138.486 102.16 138.632 101.938C138.778 101.716 138.854 101.457 138.852 101.191C138.849 100.838 138.707 100.501 138.456 100.252C138.206 100.003 137.867 99.8637 137.514 99.8637Z" fill="#407BFF"/>
<path opacity="0.2" d="M172.003 104.03C171.924 104.011 171.848 103.982 171.776 103.944C171.549 100.036 171.366 96.6685 171.215 93.7647C173.158 89.0798 175.533 84.1142 176.148 86.5215C176.979 89.9542 172.003 104.03 172.003 104.03Z" fill="black"/>
<path d="M158.262 94.4447L169.963 101.299C169.963 101.299 178.459 89.4252 176.634 82.8512C176.537 78.3822 172.511 76.9249 170.438 77.7237C163.486 79.2566 158.262 94.4447 158.262 94.4447Z" fill="#944DFF"/>
<path d="M168.98 57.7212C169.255 57.4101 169.6 57.1701 169.988 57.0216C170.375 56.8731 170.792 56.8205 171.204 56.8684H171.312C171.356 56.8699 171.4 56.8626 171.441 56.8471C171.482 56.8316 171.52 56.8082 171.552 56.7781C171.584 56.748 171.61 56.7119 171.628 56.6718C171.646 56.6318 171.656 56.5885 171.658 56.5446C171.659 56.5006 171.652 56.4568 171.636 56.4157C171.621 56.3745 171.597 56.3368 171.567 56.3047C171.537 56.2727 171.501 56.2468 171.461 56.2287C171.421 56.2106 171.378 56.2005 171.334 56.1991C170.819 56.1263 170.294 56.1786 169.804 56.3514C169.313 56.5243 168.872 56.8127 168.516 57.1923C168.463 57.2521 168.433 57.3284 168.43 57.4081C168.427 57.4732 168.443 57.5377 168.476 57.5941C168.508 57.6506 168.556 57.6967 168.614 57.7271C168.671 57.7576 168.736 57.7712 168.801 57.7663C168.866 57.7614 168.928 57.7383 168.98 57.6996V57.7212Z" fill="#263238"/>
<path d="M171.658 60.042C171.935 61.5366 172.051 63.0565 172.004 64.5758C172.292 64.6986 172.609 64.7394 172.92 64.6937C173.23 64.648 173.522 64.5176 173.763 64.3167L171.658 60.042Z" fill="#DF5753"/>
<path d="M170.449 57.8077C170.049 58.002 169.974 58.6497 170.265 59.2542C170.557 59.8587 171.129 60.1825 171.517 59.9882C171.906 59.7939 171.992 59.157 171.69 58.5525C171.388 57.948 170.837 57.6134 170.449 57.8077Z" fill="#263238"/>
<path d="M190.657 46.1062C193.83 53.6625 195.331 56.9009 193.474 62.4601C190.667 70.9016 180.661 73.1469 175.306 66.6917C170.46 60.8409 165.85 51.2768 171.647 44.7892C175.738 40.1475 183.057 37.859 187.699 41.9502C188.991 43.0897 190.003 44.5119 190.657 46.1062Z" fill="#B55B52"/>
<path d="M168.257 47.7901C168.196 49.0212 168.413 50.2502 168.892 51.3862C169.37 52.5223 170.098 53.5362 171.02 54.3533C172.661 55.7998 175.079 56.8576 175.338 59.0274C175.446 59.8154 175.252 60.7006 175.727 61.3374C176.396 62.2442 177.8 61.9419 178.857 61.5533C179.192 61.6613 179.289 62.0931 179.408 62.4277C179.883 63.8418 178.879 65.2775 178.382 66.6808C177.837 69.0391 178.064 71.5103 179.03 73.7298C179.905 71.8407 186.176 69.1204 191.984 67.3609C195.827 66.1735 197.845 59.8046 197.845 59.8046C199.118 55.6976 198.822 51.2642 197.013 47.3633C195.204 43.4625 192.012 40.3719 188.055 38.6902C174.68 35.3006 168.387 45.3289 168.257 47.7901Z" fill="#263238"/>
<path d="M178.242 57.1922C178.933 58.5929 179.203 60.1641 179.02 61.7152C178.771 63.7122 177.303 63.7338 176.202 62.2549C175.241 60.9487 174.194 58.3256 174.993 56.7064C175.792 55.0872 177.39 55.4974 178.242 57.1922Z" fill="#B55B52"/>
<path d="M164.015 51.0285C163.926 51.7835 164.125 52.5442 164.571 53.1599C165.016 53.7756 165.677 54.2015 166.422 54.3532C166.638 55.0253 166.993 55.6443 167.465 56.1697C167.936 56.6952 168.513 57.1153 169.158 57.4025C169.803 57.6898 170.501 57.8378 171.207 57.8369C171.913 57.8361 172.611 57.6863 173.255 57.3974C171.862 57.2139 171.236 55.4543 171.528 54.0834C172.057 51.5574 175.133 48.1247 171.528 46.6027C168.754 45.4368 164.306 48.1139 164.015 51.0285Z" fill="#263238"/>
<rect width="243" height="268" fill="url(#paint0_linear_144_2)"/>
<defs>
<linearGradient id="paint0_linear_144_2" x1="121.02" y1="268" x2="121.02" y2="1.18699e-06" gradientUnits="userSpaceOnUse">
<stop stop-color="#141414"/>
<stop offset="0.309957" stop-color="#141414"/>
<stop offset="1" stop-color="#141414" stop-opacity="0"/>
</linearGradient>
</defs>
</svg>
