<svg width="40" height="40" viewBox="0 0 40 40" fill="none" xmlns="http://www.w3.org/2000/svg">
<rect width="40" height="40" rx="6" fill="#35583B"/>
<path d="M16.75 22C16.75 21.7845 16.8356 21.5778 16.988 21.4255C17.1403 21.2731 17.347 21.1875 17.5625 21.1875H22.4375C22.653 21.1875 22.8597 21.2731 23.012 21.4255C23.1644 21.5778 23.25 21.7845 23.25 22C23.25 22.2155 23.1644 22.4222 23.012 22.5745C22.8597 22.7269 22.653 22.8125 22.4375 22.8125H17.5625C17.347 22.8125 17.1403 22.7269 16.988 22.5745C16.8356 22.4222 16.75 22.2155 16.75 22ZM13.2628 14.1123C13.1872 14.0367 13.0975 13.9768 12.9988 13.9359C12.9001 13.895 12.7943 13.874 12.6875 13.874C12.5807 13.874 12.4749 13.895 12.3762 13.9359C12.2775 13.9768 12.1878 14.0367 12.1123 14.1123C12.0367 14.1878 11.9768 14.2775 11.9359 14.3762C11.895 14.4749 11.874 14.5807 11.874 14.6875C11.874 14.7943 11.895 14.9001 11.9359 14.9988C11.9768 15.0975 12.0367 15.1872 12.1123 15.2628L14.7886 17.9375L12.1123 20.6122C12.0367 20.6878 11.9768 20.7775 11.9359 20.8762C11.895 20.9749 11.874 21.0807 11.874 21.1875C11.874 21.2943 11.895 21.4001 11.9359 21.4988C11.9768 21.5975 12.0367 21.6872 12.1123 21.7628C12.2648 21.9153 12.4717 22.001 12.6875 22.001C12.7943 22.001 12.9001 21.98 12.9988 21.9391C13.0975 21.8982 13.1872 21.8383 13.2628 21.7628L16.5128 18.5128C16.5884 18.4373 16.6484 18.3476 16.6894 18.2489C16.7304 18.1502 16.7515 18.0444 16.7515 17.9375C16.7515 17.8306 16.7304 17.7248 16.6894 17.6261C16.6484 17.5274 16.5884 17.4377 16.5128 17.3622L13.2628 14.1123Z" fill="#00C86F"/>
<path d="M10.25 9C9.38805 9 8.5614 9.34241 7.9519 9.9519C7.34241 10.5614 7 11.388 7 12.25V28.5C7 29.362 7.34241 30.1886 7.9519 30.7981C8.5614 31.4076 9.38805 31.75 10.25 31.75H29.75C30.612 31.75 31.4386 31.4076 32.0481 30.7981C32.6576 30.1886 33 29.362 33 28.5V12.25C33 11.388 32.6576 10.5614 32.0481 9.9519C31.4386 9.34241 30.612 9 29.75 9H10.25ZM29.75 10.625C30.181 10.625 30.5943 10.7962 30.899 11.101C31.2038 11.4057 31.375 11.819 31.375 12.25V28.5C31.375 28.931 31.2038 29.3443 30.899 29.649C30.5943 29.9538 30.181 30.125 29.75 30.125H10.25C9.81902 30.125 9.4057 29.9538 9.10095 29.649C8.7962 29.3443 8.625 28.931 8.625 28.5V12.25C8.625 11.819 8.7962 11.4057 9.10095 11.101C9.4057 10.7962 9.81902 10.625 10.25 10.625H29.75Z" fill="#00C86F"/>
</svg>
